<?xml version="1.0" encoding="UTF-8"?>
<!DOCTYPE svg PUBLIC "-//W3C//DTD SVG 1.1//EN" "http://www.w3.org/Graphics/SVG/1.1/DTD/svg11.dtd">
<!-- Creator: CorelDRAW X7 -->
<svg xmlns="http://www.w3.org/2000/svg" xml:space="preserve" width="0.666661in" height="0.666661in" version="1.1" style="shape-rendering:geometricPrecision; text-rendering:geometricPrecision; image-rendering:optimizeQuality; fill-rule:evenodd; clip-rule:evenodd"
viewBox="0 0 667 667"
 xmlns:xlink="http://www.w3.org/1999/xlink">
 <defs>
  <style type="text/css">
   <![CDATA[
    .fil0 {fill:#2853A8}
   ]]>
  </style>
 </defs>
 <g id="Layer_x0020_1">
  <metadata id="CorelCorpID_0Corel-Layer"/>
  <g id="_59684316224">
   <g id="_538199213360">
    <path class="fil0" d="M184 491l0 -221 298 0 0 221c0,18 -11,29 -27,32 -21,4 -41,-9 -42,17 0,13 2,79 -2,87 -9,17 -37,15 -42,-6 -4,-24 4,-88 -4,-94 -1,-1 -4,-3 -6,-3l-51 0c-3,0 -8,2 -9,9 -2,11 2,72 -2,88 -4,20 -31,23 -41,6 -4,-7 -2,-18 -2,-28 0,-19 0,-39 0,-59 -1,-33 -39,-3 -62,-27 -4,-6 -8,-12 -8,-22l0 0zm212 171l-10 0c-12,-1 -24,-7 -32,-17 -8,-10 -10,-22 -10,-39l0 -58 -22 0 0 75c0,10 -8,21 -13,26 -13,13 -21,13 -36,13l-1 0 0 0c-23,0 -43,-23 -43,-41l0 -73c-32,0 -50,-7 -63,-32 -4,-6 -6,-14 -6,-23l0 -236c0,-7 6,-11 14,-11l319 0c8,0 14,4 14,11l0 236c0,9 -2,17 -6,24 -14,25 -32,31 -64,31l0 73c0,11 -8,24 -13,29 -8,7 -18,11 -28,12l0 0z"/>
    <path class="fil0" d="M482 211l-298 0c2,-19 9,-40 16,-55 12,-23 30,-42 51,-57 50,-33 114,-34 164,0l15 12c30,24 49,60 52,100l0 0zm-249 -206l5 0c3,1 5,2 7,4l30 51c33,-8 52,-14 90,-7 10,2 17,4 26,7 6,-11 12,-20 18,-30l13 -22c2,-2 4,-3 7,-3l5 0c5,1 10,4 10,10 0,5 -4,11 -7,15 -2,4 -5,8 -7,13 -3,5 -15,22 -16,27 26,13 48,33 64,57 15,22 29,55 29,91 0,5 2,18 -12,18l-324 0c-5,0 -11,-5 -11,-9 0,-68 33,-126 92,-157 -2,-10 -29,-45 -29,-55 0,-5 4,-9 10,-10z"/>
    <path class="fil0" d="M107 466c-3,0 -9,-4 -11,-6 -3,-3 -4,-7 -4,-12l0 -160c0,-24 33,-23 33,2l0 156c0,11 -8,20 -18,20l0 0zm-40 -180l0 164c0,49 82,59 82,-6l0 -152c0,-15 -3,-25 -11,-33l-12 -9c-29,-13 -59,9 -59,36z"/>
    <path class="fil0" d="M542 446l0 -156c0,-25 33,-26 33,-2l0 160c0,23 -33,24 -33,-2l0 0zm-25 -154l0 152c0,50 56,62 78,24 3,-5 4,-10 4,-18l0 -164c0,-34 -41,-51 -65,-32l-4 4c-9,8 -13,18 -13,34l0 0z"/>
    <path class="fil0" d="M390 147c0,21 0,19 26,19 8,0 6,-14 6,-24 0,-9 -15,-7 -26,-7 -5,0 -6,7 -6,12z"/>
    <path class="fil0" d="M245 142c0,27 -3,24 23,24 13,0 10,-31 2,-31 -10,0 -25,-2 -25,7z"/>
   </g>
  </g>
 </g>
</svg>
