<?xml version="1.0" encoding="UTF-8"?>
<!DOCTYPE svg PUBLIC "-//W3C//DTD SVG 1.1//EN" "http://www.w3.org/Graphics/SVG/1.1/DTD/svg11.dtd">
<!-- Creator: CorelDRAW X7 -->
<svg xmlns="http://www.w3.org/2000/svg" xml:space="preserve" width="0.666661in" height="0.666661in" version="1.1" style="shape-rendering:geometricPrecision; text-rendering:geometricPrecision; image-rendering:optimizeQuality; fill-rule:evenodd; clip-rule:evenodd"
viewBox="0 0 667 667"
 xmlns:xlink="http://www.w3.org/1999/xlink">
 <defs>
  <style type="text/css">
   <![CDATA[
    .fil0 {fill:#2853A8}
   ]]>
  </style>
 </defs>
 <g id="Layer_x0020_1">
  <metadata id="CorelCorpID_0Corel-Layer"/>
  <g id="_59690028912">
   <g id="_538199203792">
    <path class="fil0" d="M191 611l0 -555c0,-36 34,-31 56,-31 4,0 4,0 7,1 1,5 1,10 3,15 2,4 7,7 12,7l130 0c14,0 14,-16 15,-22 10,-2 19,-1 31,-1 19,0 31,12 31,31l0 555c0,19 -12,31 -31,31l-224 0c-18,0 -30,-13 -30,-31zm-21 -563l0 23 0 23c0,6 -3,-4 -3,21 0,4 3,2 3,6l0 17c0,4 -3,2 -3,6l0 40c0,7 3,-4 3,16 0,4 -3,2 -3,6l0 37c0,5 3,2 3,7l0 343 0 24c0,23 23,45 45,45l237 0c22,0 45,-24 45,-43l0 -23 0 -359c0,-5 2,-2 2,-7l0 -70c0,-5 -2,-2 -2,-7l0 -79 0 -3c0,-20 2,-36 -14,-53 -7,-6 -19,-13 -31,-13l-238 0c-20,0 -44,23 -44,43l0 0z"/>
    <path class="fil0" d="M300 336c0,9 3,17 6,23 12,24 23,13 28,12 7,-1 14,11 25,-5 5,-6 5,-9 8,-15 -21,-11 -4,-29 -4,-33 -5,-2 -7,-5 -14,-6 -6,-1 -9,3 -14,3 -4,0 -11,-7 -24,0 -5,4 -11,12 -11,21z"/>
    <path class="fil0" d="M335 311c22,-5 19,-29 4,-13 -3,4 -4,7 -4,13z"/>
   </g>
  </g>
 </g>
</svg>
