<?xml version="1.0" encoding="UTF-8"?>
<!DOCTYPE svg PUBLIC "-//W3C//DTD SVG 1.1//EN" "http://www.w3.org/Graphics/SVG/1.1/DTD/svg11.dtd">
<!-- Creator: CorelDRAW X7 -->
<svg xmlns="http://www.w3.org/2000/svg" xml:space="preserve" width="5in" height="5in" version="1.1" style="shape-rendering:geometricPrecision; text-rendering:geometricPrecision; image-rendering:optimizeQuality; fill-rule:evenodd; clip-rule:evenodd"
viewBox="0 0 5000 5000"
 xmlns:xlink="http://www.w3.org/1999/xlink">
 <defs>
  <style type="text/css">
   <![CDATA[
    .fil0 {fill:#F2F2F2;fill-opacity:0.690196}
   ]]>
  </style>
 </defs>
 <g id="Layer_x0020_1">
  <metadata id="CorelCorpID_0Corel-Layer"/>
  <g id="_351664296896">
   <path class="fil0" d="M-437 2825c0,145 30,262 100,371 36,54 82,106 137,147 77,57 155,104 254,134 114,35 217,51 340,63 33,4 67,-2 100,2 52,6 240,-7 285,-12 89,-10 176,-20 264,-37l328 -74c155,-40 380,-66 552,-49 32,3 67,-2 99,2 118,15 209,5 367,40 25,5 53,13 79,19 120,29 253,88 376,125 278,81 490,60 768,-2 18,-4 26,-7 43,-12 101,-29 203,-57 299,-99 117,-50 223,-100 317,-182 31,-26 54,-55 80,-85l45 -62c44,-67 76,-142 107,-215 22,-50 38,-106 54,-161 20,-70 35,-135 58,-203l29 -81c34,-103 114,-216 186,-301 17,-19 34,-40 48,-60l30 -46c84,-145 69,-265 -5,-405 -41,-79 -99,-152 -160,-220 -70,-78 -254,-143 -361,-162 -24,-5 -53,-11 -75,-15 -81,-13 -160,-17 -242,-28 -154,-19 -301,-53 -443,-93 -24,-7 -42,-13 -65,-21 -22,-8 -44,-14 -66,-23 -22,-9 -45,-16 -66,-23 -215,-75 -362,-116 -504,-276 -225,-252 -565,-255 -914,-319 -23,-4 -48,-11 -70,-20 -9,-4 -18,-8 -30,-14l-275 -196c-18,-11 -38,-21 -58,-30 -165,-74 -373,-99 -556,-79 -193,21 -390,89 -529,211 -69,61 -133,151 -183,223 -58,83 -107,187 -108,293 0,78 5,130 19,206 9,49 26,99 26,155 -1,140 -144,206 -175,398 -19,122 -2,160 -77,279 -10,15 -20,27 -32,41 -24,27 -47,49 -71,76l-67 76c-12,15 -21,26 -32,41 -30,47 -53,90 -76,141 -15,34 -32,66 -45,99l-70 216c-5,18 -11,41 -14,57 -11,68 -20,121 -21,190zm2271 561c-112,0 -230,10 -338,29 -229,41 -321,87 -609,124 -357,46 -774,51 -1070,-154 -130,-91 -221,-217 -254,-361 -67,-288 27,-604 175,-861 9,-15 17,-31 27,-46l30 -43c12,-14 21,-25 34,-40 34,-38 72,-71 105,-111 50,-61 81,-115 95,-194 27,-144 2,-194 101,-327 137,-186 81,-208 51,-404 -28,-184 17,-332 125,-483 112,-156 231,-279 435,-350 202,-70 392,-83 606,-52 168,24 299,93 422,185 66,48 123,110 208,134 119,35 258,41 385,64l147 30c49,11 89,25 134,41 43,15 81,34 120,57 73,43 132,93 185,153l43 44c1,0 2,1 2,2 4,3 4,2 7,6 66,57 123,83 203,122 79,39 170,64 254,94l202 66c96,28 186,46 286,66 265,51 590,24 822,237 44,40 78,93 110,142 35,51 67,105 87,163 35,104 34,207 -16,306 -27,52 -54,86 -89,130 -174,215 -193,295 -276,581 -31,107 -72,210 -121,310 -27,57 -63,111 -106,160 -10,11 -17,19 -26,29 -180,199 -601,326 -869,373 -226,40 -457,26 -667,-45 -14,-5 -23,-6 -37,-12 -15,-5 -20,-8 -36,-13 -15,-4 -24,-7 -37,-12 -14,-6 -22,-9 -36,-13 -15,-5 -21,-8 -36,-13l-147 -46c-14,-4 -24,-8 -38,-11 -113,-29 -194,-30 -305,-41 -95,-9 -192,-16 -288,-16z"/>
   <path class="fil0" d="M4717 1935l0 -41c1,-156 -126,-327 -263,-413 -320,-202 -765,-1 -1140,-77l-121 -35c-51,-23 -87,-45 -123,-83 -11,-11 -14,-16 -23,-28l-81 -124c-26,-44 -51,-77 -84,-117 -91,-108 -226,-204 -360,-264 -122,-53 -272,-89 -416,-110 -34,-5 -62,-6 -99,-11 -110,-13 -155,-16 -248,-70l-62 -43c-111,-90 -101,-107 -258,-159 -28,-10 -56,-15 -87,-21 -78,-16 -166,-10 -242,3 -20,4 -44,8 -66,12l-123 35c-181,54 -420,214 -421,408 -1,98 34,187 94,241 95,83 238,105 368,143 64,19 158,53 210,88 49,34 74,58 118,96l84 80c45,51 135,108 204,133 145,51 165,29 325,105 37,18 73,41 107,64 90,59 152,124 226,191 50,45 237,272 282,332 69,92 135,183 152,296 26,167 6,240 14,381 1,18 3,15 4,33 4,82 8,150 50,232 77,152 258,231 448,231 230,0 341,-40 533,-109 140,-50 344,-178 431,-290 35,-46 68,-91 82,-152 12,-51 15,-103 7,-159 -40,-278 -2,-292 252,-458 20,-13 39,-25 56,-40 56,-50 88,-68 132,-154 19,-36 37,-94 38,-146zm-4241 -1114c1,-130 42,-189 128,-275l41 -37c142,-114 386,-200 612,-200 148,0 298,56 385,133l80 67c167,136 344,78 630,162 201,60 260,90 415,204 201,149 261,365 365,434 132,89 280,89 439,89 246,0 538,-82 790,14 46,17 113,49 146,79 16,14 28,20 44,34 9,8 9,9 17,18 8,9 11,11 20,19 88,83 157,235 157,353 -1,133 -53,205 -127,288 -39,44 -110,88 -163,122 -72,48 -204,127 -204,224 -2,248 83,318 -110,541 -8,10 -13,14 -24,23 -28,24 -10,17 -55,49 -12,8 -18,16 -29,24 -9,8 -20,15 -30,22l-98 61c-22,13 -44,25 -66,36 -163,82 -414,159 -598,159 -150,0 -219,-9 -342,-65 -77,-35 -135,-93 -174,-160 -161,-284 55,-599 -198,-919 -75,-94 -242,-308 -323,-382l-33 -32c-1,0 -2,-1 -3,-2l-224 -172c-53,-34 -112,-60 -175,-78 -22,-7 -47,-13 -70,-19 -263,-72 -244,-90 -428,-254 -16,-14 -23,-26 -41,-41 -47,-35 -100,-76 -157,-97 -136,-51 -305,-86 -394,-125 -128,-56 -203,-168 -203,-297z"/>
   <path class="fil0" d="M-699 5252c1,-214 141,-425 143,-817 1,-70 -5,-132 2,-199l12 -103c18,-89 50,-154 77,-238 19,-59 39,-108 78,-157 133,-168 413,-117 609,-88 297,45 395,44 700,-19 58,-12 117,-26 178,-34 101,-15 190,-21 298,-23 213,-6 458,-106 639,-106 128,0 195,4 309,54 27,12 63,31 82,49 86,82 43,157 -6,244 -9,15 -15,26 -24,40 -70,99 -138,259 33,313 174,54 203,8 380,129l76 51c138,82 200,-20 291,58 81,69 -2,188 -38,263 -64,133 -85,164 -45,311 25,92 71,194 55,290 -29,183 118,253 117,373l-23 0c-2,-91 -109,-175 -118,-273 -15,-149 28,-149 -39,-331 -9,-25 -17,-57 -23,-80 -30,-112 -3,-186 46,-284 32,-61 75,-135 75,-207 1,-35 -48,-73 -87,-73 -103,0 -108,40 -237,-36 -125,-74 -126,-112 -302,-141 -102,-16 -206,-34 -248,-123 -85,-176 264,-375 95,-513 -22,-17 -56,-34 -85,-47 -246,-108 -515,-1 -788,47 -49,8 -100,11 -149,12l-251 19c-62,9 -120,23 -180,34 -246,43 -345,76 -601,43 -155,-20 -295,-47 -459,-47 -158,0 -252,70 -306,183l-35 96c-17,51 -40,96 -55,147 -10,34 -14,74 -20,113 -20,123 3,324 -27,495 -19,113 -47,217 -78,323 -35,120 -66,276 -16,399 17,44 44,86 77,119 8,7 13,10 20,18 26,28 57,50 89,73 13,9 42,25 49,34l-27 0c-19,-1 -18,-3 -40,-19 -19,-13 -33,-22 -50,-37 -103,-92 -173,-181 -173,-335z"/>
   <path class="fil0" d="M-285 5033c-1,104 13,153 73,235 83,115 239,162 382,193l119 25c43,9 82,18 122,27 97,20 130,36 243,51 139,18 273,-7 430,16 241,35 269,42 521,42 41,0 79,-3 113,-7 118,-13 190,-16 309,-58 183,-63 194,-131 301,-224l160 -132c20,-18 39,-25 64,-54 42,-48 61,-85 74,-155 19,-98 46,-212 3,-305 -47,-104 -193,-156 -288,-198 -16,-7 -29,-11 -44,-18 -15,-7 -29,-13 -42,-19 -8,-4 -13,-6 -21,-10 -44,-25 -89,-58 -121,-93 -102,-116 -84,-515 -443,-515 -145,0 -223,24 -355,62l-215 68c-10,4 -21,7 -35,10 -45,12 -60,17 -113,27l-130 12 -140 -8c-205,-16 -459,-69 -652,28 -205,103 -117,387 -163,542 -45,151 -152,333 -152,458zm1755 610l149 0c155,-5 308,-26 430,-70 65,-23 147,-67 190,-115l149 -150 100 -79c36,-26 66,-51 96,-83 64,-69 72,-174 84,-260 15,-101 22,-151 -35,-239 -8,-12 -18,-22 -27,-33 -16,-18 -50,-44 -70,-56 -125,-74 -165,-73 -263,-123 -156,-79 -171,-133 -218,-279l-51 -133c-18,-33 -35,-64 -61,-92 -158,-175 -396,-126 -606,-64l-277 86c-189,55 -313,34 -502,18 -152,-12 -319,-36 -470,15 -124,42 -182,100 -214,220 -28,107 5,239 -34,374 -22,75 -84,215 -118,304 -17,43 -35,114 -35,169 -1,139 86,274 222,345 140,73 310,94 468,128 42,10 82,22 122,31 171,40 232,33 421,33 109,0 183,16 277,30 83,11 177,20 273,23z"/>
   <path class="fil0" d="M-453 5196c0,-77 15,-141 15,-220 1,-132 66,-243 91,-389 6,-31 13,-68 18,-103 5,-33 14,-67 18,-102 4,-34 2,-75 8,-108 7,-36 1,-77 3,-115 2,-29 9,-77 16,-105 14,-57 44,-111 89,-154l14 -12c214,-168 480,-34 824,-78l219 -36c26,-5 50,-8 73,-13 264,-55 528,-106 805,-106 178,0 354,51 423,193 15,33 24,75 30,115 27,178 67,261 252,346 17,8 34,16 53,23l166 69c224,110 242,279 241,498 -1,324 -163,355 -381,525 -47,37 -114,83 -158,122l-78 58c-40,26 -49,39 -108,39l-1 0 112 -69c13,-9 24,-16 36,-26 14,-12 22,-15 35,-26l171 -131c71,-50 148,-100 212,-156 73,-64 109,-137 127,-227 17,-85 12,-234 -7,-317 -13,-58 -31,-116 -70,-165 -144,-178 -482,-161 -584,-389 -27,-61 -30,-110 -44,-184 -11,-64 -32,-125 -72,-163 -68,-64 -163,-97 -267,-107 -222,-21 -439,17 -656,55 -257,44 -455,104 -725,104 -78,0 -144,-10 -217,-12 -93,-4 -172,-14 -263,9 -21,5 -27,8 -44,14 -63,23 -123,72 -152,127 -29,54 -42,106 -43,167 0,22 -4,26 -5,48 -4,208 -17,197 -42,379 -19,135 -84,245 -96,378 -2,24 7,24 4,48 -3,29 -6,65 -10,97 -12,75 -13,156 18,225 39,84 119,139 205,185 113,59 221,86 348,108 62,11 145,24 210,24l0 4 -167 0c-111,-4 -291,-59 -377,-104 -37,-19 -66,-34 -98,-55 -69,-46 -117,-95 -147,-164 -15,-33 -24,-79 -24,-124z"/>
   <path class="fil0" d="M-292 2687c-1,134 5,192 43,314 48,154 126,269 280,351 190,100 339,59 548,59l226 17c103,12 261,10 343,-51 97,-72 111,-153 169,-251 44,-72 82,-96 124,-144 14,-16 24,-24 40,-38l128 -108c10,-8 13,-8 23,-16l65 -53c16,-14 29,-20 44,-34 168,-148 204,-260 205,-477 1,-144 -88,-296 -196,-387 -99,-85 -482,-224 -593,-323 -54,-48 -102,-96 -161,-139l-69 -41c-73,-41 -335,-118 -393,-118l-32 0c-83,0 -116,89 -134,147 -36,113 -74,194 -114,300 -12,31 -26,68 -34,105 -16,71 -25,160 -57,219 -46,86 -160,196 -241,253 -49,34 -139,133 -164,190 -34,73 -50,141 -50,225zm890 748l-270 8 -149 -14c-92,-19 -218,-81 -281,-139 -5,-5 -6,-6 -11,-11 -1,0 -2,-1 -2,-2 -1,-1 -2,-2 -2,-2l-34 -36c-15,-20 -28,-38 -43,-59 -15,-22 -23,-43 -36,-66 -53,-97 -91,-278 -90,-402 0,-130 41,-286 139,-376l203 -180c200,-175 123,-288 227,-515 47,-104 84,-234 123,-320 32,-71 91,-112 206,-91 44,8 84,21 125,33 41,12 81,25 119,37 44,15 72,26 112,44 39,18 105,65 135,92 15,13 27,23 42,37 174,153 129,101 328,206l54 27c18,9 31,16 50,24 11,5 17,7 28,13 143,70 224,103 318,252 98,155 106,347 47,514 -40,113 -121,191 -213,269 -15,12 -25,17 -40,30l-196 162c-72,64 -125,121 -168,203 -5,8 -8,14 -12,22 -17,36 -50,101 -74,131 -158,200 -425,109 -635,109z"/>
   <path class="fil0" d="M-72 4996c-1,118 126,191 238,225 29,10 60,19 93,24 100,17 235,29 318,46 20,4 29,7 48,11 16,3 31,5 48,10 34,9 64,18 96,26l186 51c237,69 504,71 749,35 142,-21 294,-48 413,-118 44,-25 90,-50 126,-81 37,-33 57,-39 104,-100 53,-70 114,-201 114,-287 1,-171 -343,-230 -432,-278 -45,-24 -93,-79 -115,-122 -8,-16 -13,-24 -19,-36l-63 -111c-18,-27 -28,-43 -52,-64 -25,-22 -38,-35 -70,-52 -164,-87 -327,-105 -537,-85 -37,4 -90,12 -125,20 -281,61 -298,34 -574,0 -155,-19 -287,-10 -365,111 -36,57 -53,181 -54,247 0,24 -4,28 -5,48 0,17 2,37 0,53 -3,29 -8,68 -14,94 -7,32 -15,55 -26,83 -11,29 -19,51 -32,78 -21,45 -50,113 -50,172zm-24 21c1,-77 5,-92 38,-168 9,-20 16,-39 24,-60 30,-78 48,-104 56,-195 19,-219 -12,-512 341,-512 225,0 317,73 577,27 198,-35 189,-48 418,-48 158,0 382,66 473,186 36,49 39,62 66,108 43,75 68,146 155,192 25,14 61,22 90,32 31,11 60,19 89,31 88,38 254,102 253,216 0,83 -12,103 -43,182 -16,44 -45,91 -73,127 -62,81 -191,174 -291,218l-74 28c-131,46 -404,87 -550,87 -146,0 -189,3 -341,-22l-374 -94c-182,-45 -206,-49 -403,-72 -105,-12 -229,-45 -312,-100 -14,-8 -21,-14 -33,-23 -37,-27 -86,-84 -86,-140z"/>
   <path class="fil0" d="M3990 2777c0,-49 -13,-117 -26,-164 -29,-112 -46,-250 55,-338 93,-82 289,-109 403,-159 156,-69 151,-168 84,-292 -23,-42 -47,-74 -81,-108 -39,-38 -52,-52 -111,-81 -78,-38 -116,-41 -202,-41 -81,0 -200,57 -268,90 -207,100 -301,89 -536,123l-124 26c-31,9 -77,26 -102,40 -16,9 -31,16 -45,26 -72,52 -120,112 -151,198 -9,27 -22,75 -23,110 -1,27 -4,40 -5,61 -1,29 5,39 5,65 -1,56 11,131 13,183 0,27 3,44 4,65 1,25 -2,43 -4,62l-11 186c-4,174 26,244 152,325 66,42 214,82 288,76 54,-4 81,-8 125,-21l165 -50c73,-25 132,-55 196,-93l81 -59c15,-13 23,-22 37,-37 40,-42 81,-118 81,-193zm-1149 97c1,-102 11,-191 11,-297 1,-199 -69,-406 67,-594 21,-29 33,-40 57,-64 3,-2 5,-4 7,-6 43,-37 92,-66 149,-85 29,-11 64,-22 97,-29 191,-38 368,-33 530,-101 214,-89 314,-183 550,-91 23,10 45,24 64,37 26,17 37,27 59,46 41,36 80,93 103,140 56,116 69,225 -80,295 -152,71 -388,92 -458,209 -75,125 17,321 16,418 0,69 -1,82 -27,147 -73,175 -362,283 -554,332 -125,32 -194,28 -319,-12 -186,-59 -273,-165 -272,-345z"/>
   <path class="fil0" d="M3600 4878c1,-113 44,-202 92,-306 140,-300 -112,-603 356,-764 100,-34 207,-55 311,-86 105,-31 189,-67 269,-122 49,-33 111,-97 135,-150 19,-43 37,-95 43,-142 4,-26 6,-58 10,-81 1,-12 -4,-67 -6,-82 -49,-301 187,-278 403,-118 49,37 145,108 203,134 105,50 136,53 239,67 15,2 18,3 18,12l0 12c-158,0 -316,-89 -433,-176 -8,-6 -11,-10 -19,-15 -66,-48 -173,-126 -259,-126 -83,0 -124,15 -131,106 -9,127 31,176 -13,327 -16,53 -26,83 -53,124 -85,127 -234,203 -390,249l-74 20c-67,15 -225,59 -290,84 -336,127 -213,410 -257,618 -32,154 -183,344 -113,484 4,8 8,18 13,26 5,10 26,33 35,42 59,62 177,107 294,107 200,0 391,-75 577,-116 298,-65 631,5 905,19 33,1 68,4 98,7l101 5 0 20c-97,0 -202,-13 -296,-20 -220,-16 -576,-66 -781,-15 -148,38 -443,121 -572,121 -124,0 -200,-10 -300,-78 -54,-35 -115,-104 -115,-187z"/>
   <path class="fil0" d="M4988 2390c0,-84 0,-101 37,-187l37 -90c52,-123 85,-302 49,-433 -26,-93 -80,-116 -160,-168 -14,-9 -28,-19 -41,-29 -69,-55 -66,-46 -148,-118 -147,-130 -145,-196 -14,-350 8,-10 13,-15 22,-26 78,-99 114,-164 115,-298 0,-121 -51,-309 -118,-411 -11,-17 -19,-33 -32,-49 -22,-28 -46,-58 -73,-82 -40,-35 -43,-40 -90,-71 -224,-149 -360,-50 -494,-50 -124,0 -296,2 -403,-52 -154,-78 60,-189 111,-274 39,-63 82,-210 82,-283 0,-35 -9,-54 -9,-90l1 -114 23 0c0,25 4,33 4,53 0,28 -7,45 -5,69 4,40 9,32 9,94 0,36 -35,177 -49,214 -33,86 -60,96 -118,157 -19,19 -81,81 -81,104 0,92 309,102 421,102 131,0 288,-94 497,35 11,8 16,9 27,17 30,21 65,45 90,71 26,28 53,55 75,85 11,15 20,28 31,45 100,157 170,438 88,619 -43,95 -150,181 -182,264 -30,75 -8,103 34,153 10,11 18,17 28,28 10,11 17,17 29,28 11,9 19,16 30,26l162 121c44,29 100,58 128,99 64,96 45,184 42,279 -3,86 -16,137 -46,213 -74,188 -152,294 2,477 94,112 248,205 395,258l117 35c22,5 41,11 64,13l0 20c-85,0 -258,-71 -340,-115 -94,-51 -183,-117 -252,-193 -37,-41 -96,-125 -95,-196z"/>
   <path class="fil0" d="M3202 4838c1,-151 26,-197 111,-319l73 -115c30,-52 50,-100 50,-160 1,-62 -68,-152 -102,-206 -39,-63 -75,-133 -33,-199 47,-75 164,-102 258,-112 65,-7 190,-25 246,-40 73,-21 73,-26 136,-47 101,-35 200,-77 297,-118 10,-4 8,-2 16,-6l79 -41c78,-43 144,-101 200,-162 68,-75 106,-132 124,-230 26,-147 -33,-328 52,-465 21,-34 71,-69 116,-69 74,0 143,63 185,109l96 115c12,15 23,29 36,45 25,30 52,62 85,83 128,84 215,111 370,151 23,5 50,13 77,13l0 25c-90,-19 -131,-26 -217,-54 -75,-24 -204,-80 -265,-132 -73,-62 -105,-126 -149,-173 -12,-12 -19,-23 -30,-35 -31,-37 -94,-99 -145,-117 -81,-28 -130,24 -158,85 -47,104 -9,354 -36,463 -17,69 -73,147 -121,199 -84,90 -150,138 -263,197 -111,58 -279,109 -386,153 -218,91 -422,46 -543,134 -101,75 -35,178 25,264l48 79c51,93 29,153 -15,243 -12,23 -23,41 -37,61 -70,102 -156,216 -157,336 0,136 30,258 78,386 49,130 148,332 244,442 11,12 12,7 17,22l0 0c-38,0 -42,-12 -80,-68 -74,-110 -99,-144 -161,-281 -29,-65 -77,-192 -94,-265 -5,-21 -8,-44 -13,-62 -8,-39 -14,-84 -14,-129z"/>
   <path class="fil0" d="M174 4846c-1,111 8,189 128,252 62,33 121,50 190,69 112,30 408,73 536,82 51,3 112,10 163,15 55,5 113,4 164,10l171 5c28,-3 56,-1 83,-4 97,-13 122,-9 233,-36 94,-22 191,-36 263,-87 115,-82 147,-255 65,-367 -16,-21 -34,-34 -52,-48 -58,-44 -139,-75 -210,-104 -51,-21 -97,-40 -139,-68 -11,-7 -19,-11 -30,-19l-143 -110c-125,-106 -191,-140 -362,-161l-200 -10c-28,1 -67,4 -103,4 -42,0 -68,4 -106,4 -73,-1 -136,4 -213,4 -115,0 -261,-12 -341,79 -34,37 -53,77 -65,134l-32 356zm-28 24l29 -325c9,-91 34,-188 124,-242 93,-57 194,-47 345,-47l144 -4c21,-1 22,-4 46,-4 208,-2 460,-27 640,73 138,76 216,190 405,277 140,64 361,112 360,317 -1,89 -15,148 -76,215 -19,23 -47,44 -76,60 -35,19 -58,25 -102,37 -20,5 -31,9 -53,14 -261,58 -345,72 -649,52 -170,-12 -348,-28 -517,-54 -147,-22 -331,-52 -453,-110 -104,-49 -168,-120 -167,-259z"/>
   <path class="fil0" d="M-1289 3838c-1,131 70,269 184,333 131,74 270,42 362,-64 85,-99 114,-233 188,-362l54 -102c90,-198 70,-255 -32,-454 -48,-95 -49,-165 -52,-274 -2,-68 -27,-174 -27,-191 0,-67 18,-118 31,-177 12,-61 55,-196 11,-253 -73,-95 -353,55 -423,102 -28,18 -66,45 -88,69 -14,16 -23,22 -37,37 -13,16 -22,28 -34,44 -56,72 -136,226 -137,316 0,155 32,226 57,384 25,160 -56,403 -57,592zm-23 20c1,-240 57,-332 58,-561 1,-119 -63,-287 -63,-411 1,-127 105,-329 207,-426 56,-52 78,-66 139,-106 60,-38 227,-110 310,-110l33 0c128,0 103,153 89,225 -7,33 -10,52 -18,82 -9,34 -32,135 -32,169 0,16 27,120 27,187 1,145 11,188 69,307 58,118 72,139 72,262 -1,46 -36,133 -57,175 -9,17 -19,36 -28,53l-54 102c-35,64 -79,189 -112,241 -38,59 -66,102 -136,145 -116,70 -267,44 -361,-38 -78,-68 -144,-180 -143,-296z"/>
   <path class="fil0" d="M904 -464c1,-141 58,-236 174,-312 8,-5 15,-8 23,-9l41 0 -40 22c-104,56 -169,157 -170,271l0 49c-1,109 63,226 122,285 175,175 510,149 739,342 47,39 135,100 191,129 63,32 193,55 268,61 125,8 265,24 373,70 130,55 228,114 350,184 69,40 298,183 299,14 0,-55 -39,-111 -46,-166 -25,-221 -162,-316 64,-512l235 -172c10,-10 17,-16 28,-25 35,-26 74,-68 98,-101 29,-40 48,-80 65,-131 24,-74 32,-170 12,-247 -4,-13 -7,-25 -13,-37 -5,-13 -12,-24 -15,-36l28 0c1,11 16,38 25,72 36,139 -7,292 -96,409 -42,55 -119,118 -180,160l-150 108c-48,42 -33,18 -88,82 -97,113 -25,247 2,368 10,46 4,59 23,110 19,54 31,66 31,126 0,66 -48,108 -124,92 -78,-16 -234,-104 -312,-152 -86,-53 -210,-119 -315,-150l-96 -21c-38,-7 -66,-9 -108,-14 -147,-18 -292,-26 -391,-84 -74,-44 -71,-45 -135,-92 -148,-110 -186,-133 -387,-192 -33,-10 -60,-18 -94,-28 -17,-4 -27,-9 -43,-14l-125 -49c-26,-12 -50,-26 -73,-41 -110,-72 -191,-228 -190,-369z"/>
   <path class="fil0" d="M284 2187c0,38 3,66 33,97 3,2 4,4 7,6l4 4c1,1 2,2 2,2 53,45 140,69 206,104 26,14 47,24 73,37 14,8 21,12 34,19 58,32 117,74 157,122 130,153 90,315 173,460 34,60 77,84 159,84 41,0 42,-15 47,-48 18,-116 90,-73 126,-159 44,-106 -16,-97 121,-252l43 -51c61,-68 76,-81 126,-159 78,-122 134,-309 48,-446 -26,-43 -63,-77 -110,-102 -14,-7 -21,-11 -36,-17 -104,-47 -166,-57 -242,-88 -13,-6 -28,-11 -41,-17 -116,-57 -150,-90 -241,-190 -65,-71 -158,-162 -287,-162 -125,0 -169,101 -203,168 -26,52 -62,217 -77,279 -5,19 -10,35 -17,55 -21,66 -34,78 -70,146 -15,27 -35,71 -35,108zm388 -776c55,0 75,-1 127,19 50,19 94,55 131,87 145,127 133,191 378,278l165 57c79,29 144,76 188,139 124,175 -4,442 -124,582l-92 103c-29,37 -61,69 -82,111 -31,65 -5,141 -86,198 -24,16 -42,18 -58,43 -17,27 -12,39 -20,72 -11,48 -51,42 -95,42 -214,0 -200,-318 -268,-469 -18,-40 -49,-76 -78,-107 -66,-69 -208,-136 -304,-179l-68 -30c-102,-50 -155,-119 -116,-227 45,-125 60,-82 112,-261l27 -107c22,-91 54,-225 128,-292 31,-28 73,-59 135,-59z"/>
   <path class="fil0" d="M-1452 2183l-190 4 0 -24c93,0 335,-4 419,6 18,2 43,4 59,6 164,12 262,-19 404,-72l240 -99c16,-7 29,-16 46,-24 78,-41 129,-95 169,-166 22,-39 51,-83 69,-126 12,-30 27,-59 40,-92 67,-170 115,-307 150,-500 28,-150 -12,-320 8,-471 18,-133 75,-248 182,-342 25,-21 45,-42 71,-60 109,-73 141,-91 268,-143 61,-25 146,-44 197,-79 22,-15 50,-48 61,-73 31,-62 23,-125 19,-185 -1,-14 4,-20 4,-40 1,-42 10,-70 22,-107l55 -169c20,-63 50,-144 51,-212l28 0c-2,59 -24,120 -42,176 -20,62 -59,168 -72,222 -5,21 -10,36 -15,60 -22,110 33,229 -75,327l-9 7c-5,4 -8,6 -13,10 -50,38 -155,62 -225,91 -37,16 -72,33 -105,50 -70,37 -131,77 -187,125 -55,48 -100,106 -136,167 -111,193 -26,427 -64,658 -36,224 -127,461 -232,669 -5,8 -6,13 -12,22 -5,9 -9,13 -15,24 -99,173 -253,211 -436,288 -122,52 -253,88 -391,88 -58,0 -110,-12 -167,-12 -62,0 -111,-4 -176,-4z"/>
   <path class="fil0" d="M1392 -785c-72,94 -260,174 -261,395 -1,178 215,265 382,313 214,63 300,135 479,229 62,33 118,59 190,77 158,40 409,17 554,82 91,40 131,98 204,145 48,32 80,40 135,36 1,-54 -22,-65 -22,-122 0,-72 47,-24 -60,-174 -112,-156 -33,-283 129,-353 50,-22 97,-38 147,-59 12,-5 20,-10 32,-16 39,-18 123,-76 149,-106 9,-10 14,-13 25,-23 72,-65 156,-185 165,-279 2,-21 -8,-58 -15,-77 -10,-33 -26,-54 -29,-68l28 0c3,13 8,18 13,29 50,117 27,188 -42,289l-79 94c-87,95 -136,131 -255,183l-127 52c-74,32 -167,98 -167,179 -1,67 11,96 56,156 107,143 53,123 53,177 0,45 66,142 -19,142 -122,0 -197,-100 -281,-159 -97,-67 -261,-69 -376,-80 -81,-8 -111,-1 -206,-23 -59,-13 -117,-34 -165,-58 -101,-49 -187,-106 -287,-158 -86,-44 -224,-92 -322,-123 -16,-5 -22,-9 -38,-15 -33,-12 -90,-37 -115,-53 -102,-67 -172,-137 -161,-263 7,-71 21,-114 54,-161 17,-23 29,-38 47,-60l81 -80c3,-2 5,-4 7,-6l51 -49c11,-9 13,-12 20,-13l26 0z"/>
   <path class="fil0" d="M3375 805c0,36 22,75 50,98 5,4 17,12 23,16 55,38 133,61 197,83 171,57 184,88 400,87 159,0 408,106 566,-59 29,-30 24,-25 46,-58 103,-155 115,-339 62,-517 -14,-48 -48,-131 -73,-175 -23,-41 -64,-116 -117,-136 -12,-5 -198,-47 -220,-47 -93,0 -128,70 -246,70 -86,0 -161,-29 -226,-50 -133,-42 -243,-88 -373,-9 -99,60 -68,174 -43,260 40,144 42,151 -6,296 -14,41 -40,93 -40,141zm-23 8c0,-75 32,-132 58,-210 51,-149 -38,-212 -37,-384 1,-137 184,-207 357,-158 97,28 248,85 329,85 121,0 124,-69 264,-69 20,0 200,41 214,47 79,34 129,138 162,211 78,173 111,387 24,565 -38,77 -84,162 -175,204 -121,57 -208,45 -337,26 -24,-4 -53,-8 -75,-11 -24,-4 -54,-8 -77,-9 -181,-9 -172,9 -358,-64l-187 -67c-74,-28 -163,-86 -162,-166z"/>
   <path class="fil0" d="M3926 4553c0,-108 50,-244 128,-328 59,-64 104,-95 176,-142 48,-32 196,-104 261,-138 61,-31 155,-80 201,-120 102,-89 102,-89 172,-220l53 -101c21,-47 60,-100 93,-142 12,-14 26,-25 41,-38 87,-77 215,-49 313,-8 78,33 195,109 308,111l0 20c-182,0 -300,-150 -490,-150 -169,0 -259,257 -321,366 -4,6 -3,3 -7,10 -3,5 -5,10 -7,14 -20,38 -49,71 -79,102 -3,3 -3,3 -6,7 -29,28 -53,44 -86,67 -208,148 -519,220 -652,442 -54,91 -105,257 -43,362 30,51 93,94 156,114 190,61 474,-33 691,-33 135,0 228,14 352,24 177,15 218,29 416,29 31,0 40,-4 69,-4 0,40 -8,18 -76,27 -35,5 -62,0 -91,-2 -145,-11 -188,-13 -344,-31 -173,-21 -354,-28 -524,-4 -161,22 -325,59 -481,21 -47,-12 -81,-30 -113,-51 -61,-41 -111,-109 -110,-204z"/>
   <path class="fil0" d="M2462 2752c1,-110 11,-191 -23,-295 -13,-41 -36,-78 -61,-113 -41,-60 -114,-142 -175,-183 -98,-64 -136,-1 -136,42 -1,92 10,94 42,182 50,132 56,178 5,305 -68,168 -268,227 -425,315 -54,30 -106,60 -151,100 -131,114 -39,200 74,200 146,0 210,-69 380,-69 167,0 445,134 509,134 302,0 28,-200 -22,-418 -6,-28 -16,-61 -17,-94l-3 -81c0,-6 3,-11 3,-25zm-479 504c-153,0 -196,69 -385,69 -83,0 -239,-81 -86,-227l9 -8c1,-1 2,-1 3,-2l75 -56c34,-23 69,-41 107,-61 101,-54 213,-96 298,-170 5,-4 16,-15 22,-22 44,-45 99,-144 99,-226 1,-122 -87,-222 -86,-333 0,-49 35,-110 88,-110 98,0 228,160 272,220 32,45 63,102 77,164 4,19 5,29 8,49 7,46 1,211 1,270 0,107 32,187 71,262 28,51 112,188 112,230 0,63 -94,90 -149,90 -40,0 -100,-23 -133,-34 -20,-6 -41,-13 -64,-21 -98,-35 -233,-84 -339,-84z"/>
   <path class="fil0" d="M-1641 2065c51,0 109,-5 152,-12 23,-4 49,-8 71,-12l258 -66c110,-32 194,-49 315,-89 114,-38 251,-98 337,-173l25 -23c104,-91 136,-252 155,-378 8,-59 17,-209 21,-276 11,-178 77,-444 127,-622l39 -113c14,-35 29,-73 46,-106 5,-9 10,-14 16,-23l33 -44c7,-9 12,-11 20,-20 103,-107 281,-158 399,-235 110,-72 164,-119 205,-261 25,-87 51,-305 27,-397l27 0 4 159c0,150 -38,348 -156,450 -118,103 -277,150 -406,234 -152,99 -188,221 -236,380 -73,242 -123,514 -132,769 -1,19 -3,18 -5,33 -1,12 1,25 0,36 -3,48 -22,152 -34,192 -76,264 -255,351 -506,439l-187 56c-150,36 -311,90 -461,111l-154 16 0 -25z"/>
   <path class="fil0" d="M-943 4065c40,0 81,-5 114,-22 81,-39 25,-110 83,-192 47,-69 66,-89 86,-190l21 -193c1,-122 -28,-290 -47,-413 -14,-91 -20,-190 -14,-283l5 -109c7,-65 3,-21 0,-69 0,-15 1,-25 -1,-39 -8,-46 -17,-78 -54,-107 -122,-92 -398,106 -400,373 0,52 -3,101 8,151 28,123 81,250 60,379l-6 125c-1,20 -4,20 -5,40l-10 167c0,27 5,49 4,81 -1,90 25,301 156,301zm-183 -349c0,-138 20,-250 20,-366 1,-126 7,-142 -34,-270 -32,-103 -49,-238 -23,-344 15,-58 31,-99 59,-148 106,-182 439,-316 437,34 -1,152 -24,237 1,392 25,152 51,319 50,474 0,94 -20,215 -61,301 -27,59 -58,66 -69,119 -13,57 -4,105 -46,139 -52,42 -196,77 -272,-30 -48,-67 -63,-192 -62,-301z"/>
   <path class="fil0" d="M2467 939c-42,0 -66,-1 -92,42 -17,28 -20,45 -28,77 -8,29 -11,56 -22,83 -61,158 -338,317 -85,531 9,8 11,8 20,14l65 53c8,7 10,9 19,15l22 18c8,7 10,11 19,20 9,8 11,10 19,20 26,31 38,53 52,96 6,20 10,33 17,54 20,61 61,217 159,217 65,0 65,-8 87,-99 32,-127 75,-222 205,-297 129,-75 258,-109 419,-108 159,1 172,-56 94,-99 -16,-9 -56,-24 -77,-30 -138,-34 -222,-31 -337,-101 -123,-75 -182,-166 -262,-265 -56,-68 -128,-171 -209,-214 -17,-10 -61,-27 -85,-27zm-355 553c1,-142 125,-226 178,-329 21,-42 24,-82 36,-127 40,-141 145,-146 258,-78 74,44 237,259 291,328 33,43 106,107 157,138 35,22 71,40 115,53 44,13 99,23 145,31 63,12 221,48 216,126 -5,80 -191,55 -278,68 -116,17 -250,59 -338,130 -10,8 -17,10 -25,19 -74,77 -88,103 -119,210 -10,37 -17,99 -43,121 -31,27 -94,24 -131,3 -107,-61 -122,-258 -165,-326 -21,-34 -47,-59 -77,-86 -31,-27 -64,-48 -95,-75 -60,-53 -125,-114 -125,-206z"/>
   <path class="fil0" d="M1339 484c-56,0 -70,5 -118,14 -40,6 -68,15 -104,22 -68,15 -129,35 -193,55 -88,26 -184,60 -234,132 -48,70 -40,123 5,190 10,13 14,16 24,28 25,28 78,66 114,86 141,80 179,66 313,103 109,31 122,64 168,133 55,82 202,192 317,192 76,0 100,-13 157,-41 15,-7 25,-13 39,-22l104 -76c71,-63 125,-104 177,-179 84,-123 57,-246 -76,-337 -40,-27 -50,-40 -114,-50 -51,-7 -111,3 -162,-12 -57,-17 -124,-74 -168,-112l-5 -4c-30,-27 -77,-65 -112,-84 -34,-19 -78,-38 -132,-38zm-705 317c0,-68 37,-119 90,-162 95,-78 479,-176 615,-176 133,0 218,91 304,164 197,167 250,8 416,150 10,9 14,10 23,17l60 68c12,18 21,33 28,53 18,49 18,86 0,134 -13,37 -34,74 -57,105 -14,18 -25,29 -40,46l-84 82c-18,15 -26,22 -46,36 -9,7 -15,13 -23,21l-75 52c-72,43 -98,58 -189,70 -24,3 -54,-2 -75,-6 -30,-7 -38,-11 -65,-21 -81,-31 -185,-115 -231,-186 -11,-16 -21,-37 -34,-52 -27,-30 -62,-45 -108,-59 -54,-17 -95,-21 -143,-33 -144,-36 -367,-160 -366,-303z"/>
   <path class="fil0" d="M3581 394c-52,0 -32,5 -51,46 -7,16 -28,31 -29,44 0,45 31,51 5,122 -32,90 -62,121 -6,219 20,37 34,49 65,76 130,116 304,91 466,120 207,36 323,90 488,-53 31,-27 69,-86 87,-123 46,-100 75,-155 76,-272 0,-86 -85,-98 -128,-72 -64,39 -9,144 -110,226 -108,87 -360,116 -473,26l-28 -24c-41,-35 -54,-77 -79,-117 -9,-14 -12,-24 -22,-38 -8,-11 -16,-24 -25,-34 -20,-22 -76,-65 -104,-83 -15,-9 -27,-17 -41,-25 -16,-10 -69,-38 -91,-38zm-136 338c0,-78 47,-124 47,-171 0,-38 -27,-60 -11,-95 11,-22 19,-17 27,-38 13,-32 16,-84 124,-42 70,28 187,112 223,165 35,52 57,112 98,157 87,95 278,97 412,39 67,-30 104,-59 119,-136 13,-69 21,-144 115,-144 76,0 111,55 110,122 0,62 -22,123 -39,174 -5,14 -11,25 -17,38 -22,48 -44,97 -77,140 -15,21 -48,54 -70,69 -82,56 -119,71 -234,71 -89,0 -179,-28 -258,-41 -84,-15 -187,-13 -272,-30 -38,-8 -79,-25 -109,-38 -16,-8 -30,-16 -45,-26 -75,-49 -144,-125 -143,-214z"/>
   <path class="fil0" d="M2981 2720c0,72 0,114 26,183 103,273 416,237 649,114 145,-75 172,-131 172,-277 0,-43 -4,-92 -11,-132 -4,-21 -8,-44 -10,-64l4 -76c1,-93 -76,-188 -135,-255 -23,-27 -46,-38 -79,-56 -72,-38 -111,-49 -140,-125 -13,-34 -20,-62 -42,-88 -31,-37 -66,-46 -115,-46 -127,0 -307,195 -307,318 -1,148 31,188 31,304 -1,74 -43,141 -43,200zm-16 -468c1,-131 86,-253 204,-330 87,-56 199,-74 270,13 66,81 -4,116 161,199 94,48 121,89 183,180 87,131 34,140 57,290 41,266 11,379 -302,489 -117,41 -270,58 -387,5 -45,-21 -86,-56 -113,-92 -19,-25 -34,-46 -47,-77 -34,-78 -48,-185 -25,-268 6,-22 12,-38 18,-61 16,-55 17,-77 12,-140 -5,-61 -31,-146 -31,-208z"/>
   <path class="fil0" d="M4883 1077c1,-125 154,-191 155,-439 0,-46 -10,-104 -20,-145 -34,-139 -116,-277 -217,-388l-49 -46c-17,-18 -76,-60 -101,-75 -306,-179 -495,5 -672,-100 -148,-86 -9,-203 13,-377 6,-53 5,-107 14,-155 4,-26 7,-45 14,-69 6,-24 14,-44 20,-68l28 0c-61,110 -25,281 -89,436 -5,12 -10,18 -15,28 -13,30 -28,72 -28,105 -1,65 77,102 143,110 83,10 159,-12 245,-12 88,0 146,-1 229,30 297,111 509,458 508,734 -1,246 -154,320 -155,431 0,30 21,63 38,80 92,95 278,-14 416,-26 31,-3 52,-3 83,-5 24,-2 59,-7 84,-8 31,-2 89,-8 119,-17 13,-4 20,-7 38,-8l0 12c-1,11 -9,14 -58,23 -188,32 -207,-3 -419,59 -89,27 -192,62 -272,-9 -29,-25 -52,-53 -52,-101z"/>
   <path class="fil0" d="M713 4480c-50,0 -93,-1 -137,14 -169,59 -176,270 -106,377 81,124 230,139 400,172 67,12 162,40 232,52 25,4 59,11 85,14 95,12 550,53 654,-2 55,-29 91,-87 92,-159 1,-143 -236,-222 -367,-251 -85,-19 -116,-24 -190,-72l-67 -39c-133,-75 -435,-106 -596,-106zm-312 236c1,-136 100,-256 252,-256 227,0 272,9 488,46 201,34 242,125 368,156l89 20c59,15 111,30 161,53 62,27 83,41 127,79 105,92 88,234 -22,306 -106,69 -603,22 -706,7l-206 -43c-212,-54 -416,-48 -513,-219 -20,-36 -38,-97 -38,-149z"/>
   <path class="fil0" d="M1358 -415c0,-100 14,-139 67,-226 9,-14 17,-26 27,-37 23,-27 36,-46 63,-71l16 -15c14,-11 14,-6 18,-21l37 0c-28,37 -132,105 -181,232 -7,18 -11,31 -16,52 -12,54 -10,97 6,151 22,72 94,121 168,156 47,22 94,56 135,85 41,29 90,61 136,83 157,74 382,98 579,149l144 33c21,4 81,11 101,9 118,-13 114,-73 132,-191 9,-62 11,-125 49,-160l25 -23c16,-14 52,-34 73,-42 17,-5 29,-9 44,-14 104,-33 242,-36 329,-118 37,-35 50,-80 96,-120 50,-45 82,-60 83,-144 0,-61 -19,-93 -46,-138l28 0c34,45 41,91 41,151 -1,103 -70,116 -124,185 -16,21 -23,40 -41,61 -69,80 -172,102 -298,129 -305,67 -193,177 -259,360 -48,131 -234,81 -338,54 -33,-9 -66,-16 -98,-25 -17,-4 -27,-6 -48,-10 -21,-4 -30,-8 -51,-12 -168,-32 -230,-39 -390,-96 -103,-37 -207,-131 -331,-196 -33,-17 -64,-35 -92,-58 -22,-18 -51,-54 -62,-83 -10,-23 -23,-58 -22,-90z"/>
   <path class="fil0" d="M-1334 4561c0,-120 -45,-226 -88,-340 -30,-78 -58,-185 -57,-270 0,-30 -8,-45 -4,-77 5,-48 5,-103 10,-154 38,-396 42,-322 -50,-682 -46,-178 -14,-216 81,-364 66,-103 195,-271 1,-331 -66,-20 -131,-11 -202,-5l1 -25 115 -4c110,0 213,47 213,150 -1,45 -22,86 -40,117 -5,10 -8,15 -13,25 -24,44 -88,133 -110,173 -57,108 -50,130 -24,245 41,184 76,210 75,428 -1,130 -29,271 -30,383 0,147 -3,200 42,343 5,14 8,22 13,34l60 166c55,163 34,319 -63,466 -7,10 -13,20 -21,30 -32,44 -53,72 -98,110 -23,20 -106,77 -133,82l0 -2c0,-23 0,-21 18,-30 111,-61 147,-109 214,-204 19,-29 39,-69 53,-101 17,-42 37,-105 37,-163z"/>
   <path class="fil0" d="M-1640 1898c29,0 44,7 78,4l162 -12c23,-3 50,-8 75,-12 162,-23 390,-81 517,-164 185,-122 244,-341 275,-529 25,-155 22,-114 64,-254 26,-84 79,-249 33,-324 -63,-103 -213,62 -337,105 -204,71 -450,81 -666,43 -32,-6 -68,-11 -99,-19 -33,-8 -68,-13 -97,-25l1 -20c66,14 137,36 208,45 181,20 246,33 445,4 150,-21 214,-45 328,-119 72,-46 175,-111 235,-30 11,15 11,15 17,34 34,122 -45,302 -79,422 -29,97 -26,155 -46,241 -10,39 -22,79 -32,115 -42,143 -152,294 -302,367 -126,60 -282,99 -421,123 -158,27 -198,30 -360,30l1 -25z"/>
   <path class="fil0" d="M577 2037c-1,218 55,252 239,366 213,131 131,256 189,352 56,92 223,-20 272,-76l113 -162c32,-46 84,-118 103,-171 36,-104 35,-212 -31,-306 -102,-145 -261,-115 -420,-192 -38,-18 -70,-49 -97,-68 -49,-35 -85,-67 -153,-66 -39,1 -62,9 -86,24 -64,38 -129,211 -129,299zm-28 32c0,-77 15,-124 37,-188 28,-83 90,-190 205,-190 128,0 186,118 320,162 57,19 132,33 195,52 152,47 238,176 238,311 -1,32 -11,84 -18,110 -26,89 -94,171 -149,249 -40,58 -61,105 -115,152 -35,30 -132,86 -198,86 -97,0 -105,-114 -116,-194 -10,-69 -34,-104 -82,-151l-95 -67c-73,-40 -132,-79 -174,-147 -11,-18 -19,-35 -26,-54 -12,-31 -22,-89 -22,-131z"/>
   <path class="fil0" d="M1678 3171c-1,46 81,45 139,16 153,-75 198,-110 392,-19 79,38 193,110 231,38 59,-111 -84,-227 -89,-352 -1,-18 -5,-21 -4,-36l19 -188c0,-33 -12,-66 -23,-89 -23,-52 -56,-154 -89,-198 -10,-14 -13,-24 -35,-26 -12,43 -19,28 -3,96 40,178 178,374 -97,518 -30,16 -61,29 -95,43 -89,40 -133,45 -238,100 -37,19 -108,53 -108,97zm-23 4c0,-71 115,-121 184,-152l151 -58c49,-19 146,-63 179,-92 32,-28 39,-28 65,-69 88,-142 -53,-311 -52,-454 0,-24 45,-139 131,51 16,37 76,180 76,213 -1,179 -54,219 40,386l32 69c24,58 29,152 -31,181 -61,30 -165,-31 -224,-59 -34,-15 -69,-31 -108,-43 -39,-11 -93,-18 -133,-5 -71,22 -130,77 -216,87 -45,5 -95,-18 -94,-55z"/>
   <path class="fil0" d="M-1659 5643c0,-44 3,-66 16,-100l28 -61c17,-33 39,-60 62,-89 54,-71 117,-125 184,-184l69 -54c126,-86 263,-170 288,-326 16,-92 -6,-121 -31,-190 -24,-63 -96,-223 32,-246 119,-21 174,77 185,177 35,298 -202,467 -148,769 15,81 64,172 119,236 11,13 17,20 28,32 7,8 8,9 14,16 11,11 11,5 15,20l-32 0c-5,-15 -15,-19 -25,-31 -44,-51 -64,-82 -96,-139 -20,-34 -38,-90 -47,-129 -33,-147 18,-268 59,-377 44,-112 95,-215 91,-369 -3,-95 -47,-210 -165,-182 -123,29 28,254 30,336 6,240 -157,314 -330,441 -54,39 -111,95 -158,142 -80,80 -164,191 -165,308l-23 0z"/>
   <path class="fil0" d="M-847 5236c1,-62 9,-115 20,-171 16,-83 38,-147 57,-223 6,-25 15,-48 21,-75 22,-95 26,-118 26,-214 0,-58 -29,-104 -62,-136l-7 -6c0,0 -6,-4 -7,-6 -6,-4 -9,-7 -15,-11 -51,-34 -139,-54 -202,-66 -36,-7 -56,-4 -88,7 -138,48 -82,179 -58,262 32,111 38,182 -24,291 -24,41 -49,74 -84,105 -11,10 -12,14 -21,22 -10,10 -17,11 -28,21l-212 173c-23,20 -89,101 -106,130 -9,14 -8,19 -21,27 1,-56 12,-59 56,-114 6,-6 9,-12 16,-19 92,-95 91,-91 192,-165 110,-80 230,-196 230,-332 1,-132 -54,-167 -54,-297 0,-42 26,-76 53,-96 93,-68 160,-35 264,-10 39,9 90,33 120,57 206,161 -37,554 -38,801 -1,161 7,208 106,337 9,11 9,11 19,20l95 95 -2 0c-40,0 -33,-5 -57,-26 -118,-105 -190,-225 -189,-381z"/>
   <path class="fil0" d="M2370 -183c68,0 81,-55 206,-92 36,-11 68,-33 94,-56l76 -72c21,-25 40,-56 67,-76 102,-74 300,-26 301,-163 0,-74 -127,-78 -213,-78l-263 1c-71,9 -76,-3 -145,-17 -61,-12 -167,-12 -240,-12 -114,0 -292,51 -351,115 -66,70 -49,179 11,255 30,38 181,91 249,122 23,10 39,20 62,31 38,18 91,42 146,42zm-535 -325c0,-100 41,-155 138,-197 112,-48 172,-63 312,-63 243,0 214,28 352,28 58,0 120,-6 185,-4 25,0 32,4 60,4 79,0 260,-5 259,102 0,32 -21,71 -53,92 -87,57 -196,20 -282,106 -13,13 -22,28 -34,43 -32,40 -119,119 -170,136 -54,19 -58,13 -110,47 -73,47 -70,51 -140,51 -67,0 -148,-50 -199,-73 -80,-36 -208,-79 -255,-125 -31,-31 -63,-91 -63,-147z"/>
   <path class="fil0" d="M153 2427c-61,0 -97,8 -97,81 -1,83 57,199 81,302l29 161c9,43 30,105 52,140 38,61 94,104 160,140 133,71 260,127 424,127 36,0 72,-13 93,-27 23,-16 43,-42 51,-70 30,-105 -74,-189 -154,-295 -9,-13 -14,-20 -23,-33l-154 -258c-7,-11 -14,-21 -24,-31 -61,-66 -28,-33 -94,-88 -64,-52 -228,-149 -344,-149zm-18 -24c59,0 136,23 176,40l171 94c79,54 132,106 178,188 88,157 133,230 249,369 26,31 69,93 69,142 0,46 -26,98 -52,121 -128,111 -411,-10 -517,-64 -114,-58 -199,-118 -240,-228 -5,-14 -10,-26 -15,-40l-29 -140c-11,-66 -23,-123 -44,-180 -27,-74 -101,-244 3,-291 10,-4 36,-11 51,-11z"/>
   <path class="fil0" d="M4357 4415c1,-98 236,-210 333,-257 29,-14 54,-25 81,-39 54,-29 97,-55 142,-95l242 -228c36,-31 93,-77 136,-100 94,-51 199,-57 309,-44 21,2 51,10 71,11l0 24c-143,-29 -271,-37 -398,45 -29,20 -52,40 -78,62l-228 212c-162,154 -279,158 -476,286 -92,61 -152,115 -66,193 111,102 297,81 449,63 157,-19 172,-18 330,-11 137,6 282,25 421,0 14,-3 27,-7 42,-8l0 20c-28,12 -177,27 -207,24l-154 -8c-18,-1 -56,-3 -77,-5l-155 -7c-126,0 -229,29 -357,29 -118,0 -244,-1 -323,-94 -15,-19 -37,-49 -37,-73z"/>
   <path class="fil0" d="M-997 3720c0,56 1,124 70,157 75,36 78,-19 94,-74 8,-29 11,-45 23,-70 41,-89 55,-133 55,-241 1,-77 -8,-148 -19,-218 -10,-67 -14,-151 -20,-221 -5,-55 -2,-180 -10,-226 -10,-57 -32,-148 -113,-148 -49,0 -75,135 -75,171 -2,265 111,189 35,644 -3,22 -2,40 -6,59 -10,49 -33,109 -34,167zm-23 53c1,-162 13,-108 33,-229 3,-20 4,-36 7,-58 7,-39 12,-78 17,-113 37,-258 -53,-340 -53,-474 1,-67 4,-171 56,-221 58,-57 136,5 161,72 21,56 22,102 24,173 0,21 4,23 5,44 0,91 10,230 24,319 16,109 26,248 0,352 -15,56 -40,93 -57,146 -16,50 -20,127 -83,127 -35,0 -78,-26 -94,-44 -19,-22 -40,-57 -40,-94z"/>
   <path class="fil0" d="M-1634 541l206 55c287,55 602,27 810,-156 168,-148 200,-242 321,-370 69,-73 98,-104 185,-164 97,-68 196,-117 292,-192 47,-37 70,-52 111,-106 76,-100 90,-181 91,-299 0,-37 -9,-61 -9,-94l23 0 13 115c2,18 -4,19 -4,40 -6,161 -107,298 -250,392 -21,14 -38,25 -59,38 -83,55 -138,87 -229,149l-144 134c-92,107 -153,196 -251,305 -143,159 -380,254 -611,254 -196,0 -289,-16 -462,-69 -23,-8 -31,-10 -33,-15l0 -17z"/>
   <path class="fil0" d="M3101 2756c0,51 3,94 38,133 27,31 75,63 117,76 72,21 166,-17 234,-30 53,-9 125,-25 159,-67 57,-71 48,-172 32,-254 -15,-77 -9,-203 -40,-273 -27,-59 -54,-76 -113,-107 -69,-38 -77,-39 -128,-95 -45,-48 -70,-90 -147,-90 -29,0 -60,16 -76,31l-18 17c-37,37 -69,103 -69,159 0,68 55,156 54,240 0,80 -42,178 -43,260zm-28 12c1,-38 12,-93 21,-129 19,-80 22,-77 23,-163 0,-97 -117,-212 6,-374 66,-88 177,-109 261,-14l35 38c112,130 271,83 272,354 0,17 3,45 5,64 26,187 72,355 -174,407 -158,34 -259,83 -383,-29 -38,-34 -66,-88 -66,-154z"/>
   <path class="fil0" d="M1804 -785c-17,22 -30,19 -61,53 -16,19 -36,37 -51,61 -108,173 -80,349 131,441 94,40 113,44 203,93 160,88 340,155 528,66 42,-20 113,-51 144,-80 76,-71 81,-122 188,-198 87,-62 88,-60 182,-97 116,-46 308,-88 271,-268 -8,-41 -35,-54 -40,-71l33 0c4,14 17,28 25,47 27,70 4,153 -48,198 -10,9 -16,14 -26,23 -43,38 -188,85 -258,111 -12,4 -21,10 -33,16 -15,7 -19,11 -34,19 -66,40 -118,80 -163,142 -41,58 -91,111 -160,145 -92,45 -155,76 -275,76 -182,0 -309,-100 -410,-144 -131,-57 -260,-90 -320,-222 -24,-52 -31,-108 -18,-172 14,-69 60,-154 116,-203 32,-28 35,-34 47,-36l29 0z"/>
   <path class="fil0" d="M3607 5342c1,-198 303,-116 461,-96 197,25 222,10 392,-58 164,-66 205,-98 426,-98 120,0 210,18 318,41l99 24c76,17 332,108 360,114l0 24c-15,-3 -25,-9 -43,-15l-134 -45c-178,-62 -424,-123 -618,-123 -180,0 -216,29 -343,74 -14,5 -22,10 -34,15 -14,6 -23,9 -38,15 -26,12 -46,20 -73,30 -162,56 -209,38 -381,14 -98,-13 -368,-72 -369,76 0,101 106,176 169,228l65 49c11,8 35,23 42,32l-23 0c-21,-1 -28,-7 -79,-48 -40,-31 -88,-68 -122,-104 -36,-37 -75,-95 -75,-149z"/>
   <path class="fil0" d="M642 4683c0,45 32,76 59,99 61,54 134,94 217,117 46,13 96,16 151,22 92,12 203,12 309,34 25,5 52,8 74,12 26,4 44,9 71,15 51,11 219,77 220,-26l0 -21c0,-63 -134,-82 -188,-90 -24,-4 -57,-11 -81,-14 -115,-16 -223,-17 -339,-49 -155,-42 -322,-242 -454,-154 -16,11 -39,32 -39,55zm-23 17c0,-39 2,-55 41,-83 146,-105 309,78 445,131 129,51 308,45 448,74 52,11 95,13 140,31 123,49 83,180 -1,180 -98,0 -89,-10 -182,-32 -46,-11 -95,-19 -145,-26 -121,-18 -198,-21 -313,-34 -142,-17 -187,-18 -320,-106l-47 -35c-5,-5 -4,-4 -9,-9 -24,-23 -57,-57 -57,-91z"/>
   <path class="fil0" d="M3744 179c-45,0 -75,17 -99,43 -62,70 88,142 126,163 82,47 80,43 142,115 73,84 161,224 296,224 125,0 192,-62 199,-163 4,-49 8,-114 24,-151 26,-56 61,-69 61,-130 1,-66 -102,-101 -189,-101 -136,0 -133,151 -307,74 -26,-11 -50,-20 -76,-31 -43,-18 -117,-43 -177,-43zm-140 81c1,-31 23,-57 44,-72 81,-59 194,-18 276,12 27,10 126,56 153,56 87,0 92,-98 250,-98 64,0 138,28 171,69 55,67 -5,126 -37,180 -50,82 17,266 -146,320 -187,62 -293,-53 -390,-177 -62,-80 -90,-107 -183,-156 -46,-24 -138,-73 -138,-134z"/>
   <path class="fil0" d="M1125 679c-115,0 -218,119 -124,226 61,69 217,98 312,132 124,42 122,72 204,145 92,81 178,60 275,7 178,-95 34,-260 -121,-327 -63,-27 -92,-37 -146,-71 -157,-96 -146,-58 -272,-90 -29,-7 -97,-22 -128,-22zm-186 146c1,-96 81,-167 191,-167 35,0 60,6 87,13 100,25 170,20 250,61 89,45 77,49 198,103 89,39 179,94 217,178 36,81 14,142 -67,189 -88,51 -196,85 -288,16l-32 -24c-1,-1 -2,-2 -3,-2l-38 -39c-21,-24 -47,-49 -76,-64 -58,-30 -141,-54 -211,-74 -42,-12 -93,-31 -126,-52 -8,-5 -13,-8 -22,-13 -12,-8 -27,-22 -37,-32 -21,-19 -43,-57 -43,-93z"/>
   <path class="fil0" d="M2625 3582c-78,0 -79,20 -79,93 -1,47 34,86 -7,145 -37,52 -92,86 -92,164 -1,110 232,84 291,97 162,37 148,159 226,159 44,0 64,-4 104,-27 14,-8 20,-11 32,-20 43,-31 106,-96 106,-152 0,-84 -17,-134 -76,-205 -84,-98 -107,-81 -187,-124 -15,-7 -27,-12 -42,-20 -29,-16 -56,-27 -87,-41 -45,-21 -137,-69 -189,-69zm-206 398c1,-98 112,-146 112,-216 1,-45 -43,-168 38,-199 41,-15 80,-4 117,8 63,20 153,62 210,92l65 32c12,5 22,10 34,15 61,24 108,56 149,104 50,60 121,175 72,275 -12,25 -18,38 -36,58 -54,63 -118,111 -216,111 -86,0 -85,-89 -166,-134 -25,-14 -45,-20 -82,-25 -65,-10 -134,-1 -196,-19 -46,-14 -101,-50 -101,-102z"/>
   <path class="fil0" d="M5229 2281c0,-92 3,-121 31,-214 24,-84 31,-134 31,-221 1,-163 -188,-272 -188,-407 1,-122 118,-141 229,-166l351 -62 0 25 -161 25c-72,11 -322,49 -368,100 -21,23 -23,57 -23,86 0,66 60,133 90,177 36,52 79,104 90,176 40,258 -168,423 25,702l52 64c62,61 164,133 257,157 29,7 31,0 31,29 -45,-3 -138,-47 -170,-66 -76,-43 -132,-95 -182,-161 -17,-22 -33,-45 -45,-70 -21,-42 -50,-114 -50,-174z"/>
   <path class="fil0" d="M2544 1150c-78,0 -60,47 -108,125l-39 68c-83,183 46,218 124,317 51,64 3,131 57,198 80,99 81,-3 172,-106 97,-110 170,-84 246,-122 60,-30 59,-75 -20,-104 -80,-29 -170,-70 -230,-122 -39,-34 -63,-94 -84,-142 -18,-40 -60,-112 -118,-112zm-200 297c0,-95 57,-148 91,-222 18,-40 18,-95 109,-95 64,0 112,65 132,107 30,63 51,128 107,170 1,0 2,1 3,2 43,32 120,65 173,87 32,12 107,39 106,77 0,55 -54,78 -104,92 -27,8 -53,13 -77,22 -51,20 -84,38 -117,81l-42 56c-18,28 -55,99 -97,99 -36,0 -83,-66 -94,-95 -31,-81 29,-108 -79,-203l-51 -49c-30,-28 -60,-75 -60,-129z"/>
   <path class="fil0" d="M218 2520c-115,0 -46,131 -26,193 18,59 61,209 94,262 32,50 58,82 110,118 10,7 17,14 26,22 85,75 157,178 297,167 51,-5 106,-9 107,-83 0,-63 -105,-134 -144,-173 -62,-61 -70,-132 -108,-210 -27,-56 -74,-96 -120,-137l-122 -105c-26,-19 -71,-54 -114,-54zm-5 -20c89,0 136,67 193,111 303,235 163,276 303,407l5 4c4,4 2,2 7,6 5,5 6,6 10,11 8,7 6,4 12,10 49,45 106,88 106,154 -1,145 -246,125 -352,13 -30,-32 -110,-99 -142,-127 -44,-40 -55,-45 -88,-98 -21,-34 -40,-82 -52,-124 -16,-58 -80,-237 -86,-273 -8,-50 19,-94 84,-94z"/>
   <path class="fil0" d="M-1632 175l90 42c54,24 106,46 164,64 114,36 263,72 395,45 26,-5 48,-10 72,-18l63 -26c84,-35 146,-93 211,-149 30,-26 104,-111 127,-137l247 -284c18,-17 7,-12 34,-31l64 -50c137,-107 253,-181 226,-358 -2,-17 -12,-39 -12,-58l20 0c5,2 7,11 13,36 35,170 -48,259 -196,368 -78,58 -150,120 -212,193l-185 220c-41,47 -135,149 -188,185 -40,27 -50,40 -106,70 -203,107 -386,77 -592,10l-190 -76c-38,-19 -44,-20 -45,-31l0 -15z"/>
   <path class="fil0" d="M3582 1968c0,57 79,91 130,124 59,39 98,111 151,111 89,0 112,-11 184,-46l135 -69c45,-22 95,-41 146,-55 66,-19 115,-21 115,-98 1,-102 -159,-260 -299,-260 -82,0 -130,6 -197,51 -60,40 -65,63 -127,76 -51,10 -112,-4 -167,40 -27,22 -71,82 -71,126zm-23 8c0,-60 32,-107 76,-146 88,-78 154,-14 237,-76 32,-23 68,-55 108,-72 13,-5 31,-12 43,-16 255,-75 444,163 444,261 -1,45 -3,75 -54,103 -27,15 -108,28 -172,57 -87,38 -173,89 -243,116 -64,25 -151,41 -210,-11 -72,-64 -34,-50 -150,-120 -32,-18 -79,-52 -79,-96z"/>
   <path class="fil0" d="M-1640 1772l0 -20c19,0 24,2 41,5 240,36 403,-20 555,-190l183 -255c50,-97 104,-265 -5,-350 -170,-131 -538,-112 -769,-112l0 -21c236,0 861,-41 860,277 -1,84 -47,190 -81,247l-181 241c-34,38 -95,90 -139,118 -109,70 -248,87 -389,71 -21,-2 -52,-9 -75,-11z"/>
   <path class="fil0" d="M883 1907l-28 0c-114,0 -115,197 -29,296 22,26 90,73 124,94 134,87 124,82 139,183 9,65 57,72 87,52 12,-8 8,-7 18,-17 15,-14 23,-20 37,-36 13,-14 27,-21 38,-36l95 -120c60,-104 62,-177 -34,-261 -18,-16 -35,-25 -62,-35 -69,-27 -149,-7 -247,-59 -32,-16 -97,-61 -138,-61zm-144 122c0,-42 12,-81 33,-106 10,-11 24,-23 40,-30 101,-44 204,60 270,78 44,12 82,14 129,21 83,12 143,44 186,105 54,75 40,148 -4,223 -22,38 -45,59 -71,92 -34,45 -27,43 -77,87 -25,22 -55,66 -101,66 -31,0 -61,-26 -71,-47 -16,-32 -9,-64 -17,-99 -13,-56 -202,-138 -262,-216 -35,-46 -55,-113 -55,-174z"/>
   <path class="fil0" d="M5119 85c-102,0 -139,-27 -215,-79 -46,-31 -95,-79 -155,-115 -38,-23 -80,-43 -130,-53 -27,-5 -47,-10 -75,-15 -75,-11 -116,-12 -189,-37 -15,-5 -23,-6 -37,-12 -80,-39 -155,-118 -155,-197 1,-115 19,-156 60,-262l35 -75c9,-19 6,-25 37,-25l0 0 -67 153c-53,145 -81,305 103,387 175,77 303,-3 529,189 35,30 115,85 159,103 87,36 155,6 267,6 143,0 237,91 403,57l0 24c-43,1 -68,15 -146,-2 -73,-17 -197,-59 -266,-59 -15,0 -62,5 -76,7 -30,3 -50,5 -82,5z"/>
   <path class="fil0" d="M-97 2545c-54,0 -70,36 -70,93 -1,163 60,258 106,381 37,97 49,176 147,224 46,22 67,34 119,34 40,0 -20,-71 -33,-89 -19,-27 -36,-51 -55,-77 -34,-46 -46,-83 -68,-127 -29,-57 -64,-184 -72,-253 -6,-47 0,-71 -15,-113 -5,-14 -10,-29 -19,-43 -5,-7 -10,-14 -16,-19 -5,-3 -17,-11 -24,-11zm-93 118c0,-47 -1,-143 84,-143 74,0 104,110 105,167 3,108 66,316 135,408 15,20 113,154 113,165 -1,85 -157,10 -194,-9 -18,-10 -22,-16 -37,-28 -50,-44 -65,-102 -90,-168 -11,-33 -23,-61 -35,-91 -40,-99 -82,-176 -81,-301z"/>
   <path class="fil0" d="M4074 5488c0,-28 0,-34 14,-61 9,-18 13,-22 29,-35 99,-85 317,-44 476,-67 120,-18 206,-60 362,-60 112,0 181,30 259,56 20,6 29,10 46,17l182 68c61,21 120,41 170,77 48,35 50,30 50,74 -23,-13 -32,-50 -142,-99l-183 -66c-108,-41 -243,-107 -392,-107 -113,0 -237,43 -351,62 -164,28 -436,-25 -486,93 -41,94 57,165 86,203l-1 0c-40,0 -45,-8 -82,-58 -15,-21 -37,-63 -37,-97z"/>
   <path class="fil0" d="M-1630 -98l0 -28 49 33c99,78 300,154 441,154 144,0 218,-25 324,-98 68,-47 132,-118 185,-180l142 -173c49,-52 157,-176 158,-252 0,-50 -8,-102 -32,-143l28 0c14,56 17,28 29,113 7,60 -26,114 -54,160 -26,42 -69,85 -99,124l-151 182c-46,50 -58,75 -128,136 -123,107 -267,174 -456,150 -93,-12 -173,-35 -244,-67 -109,-48 -165,-98 -192,-111z"/>
   <path class="fil0" d="M5134 919c0,-103 61,-208 61,-301 1,-127 -90,-283 90,-374 133,-67 265,-55 403,-45l0 20 -112 -7c-79,-8 -229,19 -296,60 -57,36 -79,74 -83,143l11 95c22,139 12,133 -18,254 -24,96 -28,70 -29,175 0,35 31,77 70,77 107,0 170,-26 265,-68 91,-39 102,-61 161,-91 11,-5 16,-7 28,-12l0 25c-79,37 -80,56 -186,102 -108,47 -366,145 -365,-53z"/>
   <path class="fil0" d="M4326 -525c0,-77 28,-177 66,-244 8,-15 8,-16 31,-16l2 0c-5,18 -34,74 -49,117 -28,81 -46,180 12,255 77,98 291,160 434,236 131,69 267,108 423,108 64,0 109,-8 172,-8 60,0 114,9 164,-6 51,-16 70,-41 109,-63l0 18c-1,14 -10,19 -57,46 -90,51 -175,19 -250,28 -150,18 -335,0 -463,-54 -82,-35 -180,-89 -232,-109 -42,-17 -79,-34 -118,-51 -121,-54 -245,-120 -244,-257z"/>
   <path class="fil0" d="M3240 2768c0,83 179,106 275,55 95,-50 78,-80 34,-150 -64,-102 -7,-99 -6,-242 0,-26 -20,-52 -39,-63 -25,-15 -51,-17 -79,-28 -40,-15 -96,-68 -145,-68 -31,0 -42,54 -42,86 -1,64 45,95 45,199 0,38 -17,70 -23,102l-20 109zm-23 9c1,-165 79,-158 21,-326 -19,-53 -24,-53 -24,-113 1,-44 21,-86 75,-86 55,0 99,55 166,74 207,59 68,207 91,284 26,85 139,149 -13,229 -139,72 -316,18 -316,-62z"/>
   <path class="fil0" d="M2975 4952l13 0c36,0 67,113 75,149 13,57 -13,211 -10,243 8,70 5,148 48,226 7,12 11,23 19,35 7,11 19,27 22,38l-16 0c-3,-1 -5,-1 -8,-3 -10,-4 -26,-38 -31,-46 -67,-118 -58,-231 -54,-354 3,-76 26,-98 -10,-193 -11,-30 -18,-60 -44,-75 -47,61 -28,174 -39,247 -21,134 -95,168 -201,244 -50,35 -133,81 -183,124 -10,8 -11,8 -21,14 -44,32 -24,42 -77,42l-1 0c30,-39 83,-73 125,-103 75,-54 261,-160 305,-233 45,-78 25,-176 38,-252 5,-30 20,-103 50,-103z"/>
   <path class="fil0" d="M3059 1012c5,50 118,163 172,202 171,123 265,107 465,107 82,0 128,-70 -5,-108 -37,-11 -76,-19 -113,-27 -97,-21 -240,-58 -318,-103 -40,-24 -91,-61 -138,-69 -34,-6 -30,-2 -63,-2zm-23 8c0,-22 7,-32 56,-32 36,0 70,13 94,26 152,82 151,93 354,140 78,19 259,45 259,114 -1,48 -43,73 -93,73 -239,0 -319,17 -515,-128 -13,-10 -18,-12 -30,-23 -33,-32 -125,-139 -125,-170z"/>
   <path class="fil0" d="M4512 -586c0,-74 24,-145 56,-199l28 0c-47,77 -56,122 -57,212 0,106 113,175 192,217 83,44 200,110 289,131 53,13 146,13 204,6 110,-13 157,22 249,-25 14,-7 21,-10 35,-18 28,-16 102,-64 126,-85 19,-16 36,-35 57,-47l0 23c-2,10 -9,18 -34,36 -22,14 -38,28 -58,43 -40,28 -82,51 -128,75 -48,25 -115,18 -188,18 -38,-1 -61,4 -102,4 -211,0 -199,-9 -373,-95 -30,-15 -53,-27 -82,-42 -63,-33 -91,-53 -140,-96 -37,-32 -75,-95 -74,-158z"/>
   <path class="fil0" d="M3626 488c-53,0 -35,37 -37,102 -1,37 -27,61 -27,97 0,22 15,80 24,99 15,29 39,50 63,71 152,134 368,146 369,70 0,-38 -4,-45 -48,-68 -24,-13 -46,-22 -70,-36 -96,-55 -18,-96 -116,-182 -22,-19 -33,-28 -50,-53 -17,-26 -52,-100 -108,-100zm-88 199c0,-46 28,-69 28,-98 0,-50 -16,-91 25,-117 82,-50 167,110 178,122 28,31 66,60 78,81 19,35 14,84 41,111 47,47 184,62 152,156 -29,86 -189,48 -259,22 -45,-18 -78,-36 -114,-63 -36,-25 -63,-50 -89,-84 -18,-25 -41,-89 -40,-130z"/>
   <path class="fil0" d="M4115 919c0,90 133,139 290,47 90,-53 92,-74 132,-145l64 -119c55,-95 11,-169 -29,-124 -46,51 63,101 -122,211 -70,42 -82,49 -166,66 -81,17 -168,-21 -169,64zm-23 12c1,-161 133,-32 319,-143 44,-26 95,-54 117,-97 25,-47 -20,-146 71,-146 58,0 50,62 50,93 0,40 -41,101 -59,132 -65,109 -67,182 -246,248 -50,18 -51,19 -109,19 -68,0 -143,-48 -143,-106z"/>
   <path class="fil0" d="M2461 -634c-63,0 -90,6 -139,8 -83,3 -35,2 -116,-4 -50,-4 -65,-7 -104,15 -84,45 -47,162 65,229l80 55c53,35 129,46 195,19 11,-4 22,-12 30,-18l54 -42c15,-10 60,-22 82,-63 24,-45 22,-99 -10,-137 -30,-37 -86,-62 -137,-62zm-431 97c0,-51 36,-86 75,-105 51,-24 111,-5 175,-5 113,0 282,-46 353,84 27,49 19,110 -15,153 -23,31 -35,35 -71,52 -75,38 -50,81 -213,81 -41,0 -79,-21 -105,-38 -48,-32 -131,-84 -159,-123 -11,-15 -18,-25 -25,-43 -5,-14 -16,-41 -15,-56z"/>
   <path class="fil0" d="M4987 4309c0,-40 19,-57 63,-88l210 -137c56,-37 163,-162 287,-200 69,-21 83,-14 123,-22l0 24c-208,0 -300,161 -433,240 -34,20 -174,111 -202,135 -85,72 58,138 143,156 127,28 197,15 322,-19 37,-10 134,-40 168,-40 -1,34 -6,17 -78,38 -31,9 -59,16 -91,26 -134,38 -266,50 -398,-6 -14,-5 -25,-9 -37,-16 -35,-18 -77,-48 -77,-91z"/>
   <path class="fil0" d="M3868 284c-21,0 -51,-2 -51,33 0,57 207,126 247,177 58,76 48,120 168,120 20,0 26,-5 42,-8 9,-32 3,-37 19,-62 16,-25 14,-31 14,-69 0,-55 42,-80 42,-121 1,-31 -34,-61 -69,-61 -120,0 -115,112 -309,27 -24,-11 -71,-36 -103,-36zm-79 29c0,-14 11,-28 20,-36 7,-6 9,-8 20,-11 83,-27 158,63 266,63 60,0 99,-57 181,-57 60,0 97,32 97,86 -1,23 -18,50 -27,70 -28,60 -4,80 -27,119 -32,56 -7,52 -30,72 -26,23 -157,35 -206,-53 -25,-43 -42,-70 -86,-94 -49,-27 -140,-70 -174,-103 -13,-13 -34,-34 -34,-56z"/>
   <path class="fil0" d="M3721 1931c0,59 126,183 189,183 43,0 76,-35 102,-53 16,-11 30,-21 49,-31 47,-23 129,-38 174,-66 145,-91 10,-224 -92,-224 -99,0 -133,84 -190,114 -60,30 -232,20 -232,77zm-23 8c0,-25 4,-39 34,-55 19,-10 37,-15 61,-20 107,-24 113,4 185,-58 30,-26 36,-44 87,-70 138,-69 356,97 209,225 -39,34 -73,45 -129,62 -161,49 -141,111 -240,111 -76,0 -207,-134 -207,-195z"/>
   <path class="fil0" d="M5503 2146c0,-24 -2,-51 2,-75 4,-24 4,-53 0,-77 -4,-24 -3,-48 -6,-71 -13,-83 -32,-113 -57,-189 -36,-106 -56,-210 44,-296 45,-38 135,-42 196,-44l0 25c-152,0 -220,22 -243,157 -4,26 1,68 9,96 43,166 84,166 83,369 0,93 -10,190 16,281 16,55 82,163 130,174l0 29c-143,-85 -175,-224 -174,-379z"/>
   <path class="fil0" d="M2643 1772c18,-4 17,-13 23,-28 14,-39 26,-85 64,-103 22,-11 60,-18 88,-25 43,-10 49,-17 67,-47 -109,-64 -198,-49 -241,-121 -13,-21 -31,-115 -101,-115 -36,0 -51,63 -51,98 -1,140 135,156 142,236 4,36 -20,87 9,105zm-37 -16c1,-85 27,-93 -60,-170 -65,-56 -77,-82 -77,-167 1,-130 120,-136 172,-41 17,32 14,64 56,92 38,25 72,23 116,40 73,28 130,47 71,99 -38,33 -86,30 -135,48 -69,25 -34,136 -111,136 -14,0 -32,-21 -32,-37z"/>
   <path class="fil0" d="M2925 3834c-52,0 -106,52 -167,52 -33,0 -69,-12 -107,-12 -131,0 -85,159 18,159 80,0 194,-19 251,23 63,46 127,116 173,-5 12,-32 -2,-75 -16,-99 -22,-37 -64,-73 -100,-99 -16,-12 -25,-19 -52,-19zm-108 215c-70,0 -126,16 -187,-2 -105,-32 -135,-193 35,-193 66,0 90,28 176,-17 57,-29 112,-39 163,8 46,41 119,94 119,176 0,37 -35,117 -84,117 -89,0 -96,-56 -158,-76 -15,-5 -44,-13 -64,-13z"/>
   <path class="fil0" d="M4711 -590c0,-47 0,-75 17,-123 9,-26 29,-51 35,-72l27 0c-9,36 -56,75 -56,175 -1,193 138,171 296,255 119,64 171,54 283,7 44,-19 85,-30 138,-38 167,-24 185,-77 241,-110l0 20c-2,9 -8,17 -32,33 -143,100 -205,56 -338,115 -211,93 -249,-4 -432,-62 -60,-19 -88,-29 -128,-66 -26,-25 -52,-86 -51,-134z"/>
   <path class="fil0" d="M-1639 1533c35,14 150,-2 200,-25 134,-60 320,-233 321,-345 0,-38 2,-62 -33,-93 -81,-71 -256,-79 -372,-64 -33,4 -82,10 -113,10l0 -20c113,-8 98,-16 241,-16 64,0 103,8 153,20 252,61 130,285 20,381l-68 59c-10,9 -13,12 -24,19 -134,91 -156,98 -325,98l0 -24z"/>
   <path class="fil0" d="M1203 837c-17,0 -14,10 -14,33 0,46 125,71 170,82 21,5 51,10 73,17 96,27 150,151 264,111 17,-6 23,-9 34,-19 -4,-15 -6,-17 -18,-25 -8,-6 -19,-14 -30,-18 -23,-12 -40,-19 -66,-28 -56,-21 -245,-80 -277,-97 -38,-20 -81,-56 -136,-56zm-42 25c1,-116 185,13 210,22 85,34 382,103 382,173 0,33 -106,105 -232,-7 -35,-31 -67,-52 -116,-65 -80,-20 -244,-43 -244,-123z"/>
   <path class="fil0" d="M-1629 -439l317 92c102,19 252,51 356,11 30,-12 61,-27 80,-47 83,-86 86,-213 54,-320 -9,-31 -24,-53 -32,-82l28 0c2,26 87,156 30,313 -36,99 -122,175 -250,175 -151,0 -145,-5 -283,-32 -26,-5 -47,-10 -69,-16 -68,-19 -147,-36 -216,-67 -13,-5 -15,-7 -15,-18l0 -9z"/>
   <path class="fil0" d="M5338 785c0,-51 -1,-49 20,-98 59,-139 0,-227 69,-294 41,-40 102,-35 163,-35 39,0 65,-4 98,-4l-1 20c-20,0 -18,4 -41,4 -127,3 -209,-20 -230,95 -10,51 -1,108 -12,157 -14,56 -73,143 -24,191 37,37 142,7 174,-30 55,-63 28,-159 56,-228 10,-26 52,-65 77,-71l0 24c-91,53 -59,133 -77,215 -33,154 -272,170 -272,54z"/>
   <path class="fil0" d="M-1129 5139c88,0 74,143 73,199 0,97 -17,149 68,244 11,13 47,48 51,61l-32 0c-4,-15 -25,-29 -40,-50 -55,-79 -79,-99 -75,-211 2,-41 28,-219 -45,-219 -108,0 -92,166 -166,258 -45,56 -191,154 -197,222l-28 0c17,-31 3,-27 38,-73 27,-34 83,-79 117,-109 81,-74 87,-120 118,-214 15,-47 55,-108 118,-108z"/>
   <path class="fil0" d="M-927 3732c0,25 8,49 18,65 28,-18 55,-139 61,-175l24 -236c1,-44 -9,-64 -18,-97l-9 0c-1,138 10,98 -25,231 -16,59 -51,140 -51,212zm-23 20c0,-39 -2,-56 8,-94 5,-18 8,-35 14,-54 20,-63 54,-159 53,-222 0,-54 -14,-118 29,-118 73,0 38,233 32,270 -5,30 -3,58 -13,111 -7,38 -15,67 -27,99 -12,33 -21,73 -55,73 -22,0 -42,-43 -41,-65z"/>
   <path class="fil0" d="M4425 5622c0,-71 21,-107 67,-141 41,-29 185,-31 254,-30l173 10c117,15 206,20 320,45 17,4 35,7 48,10 103,26 149,42 171,127l-28 0c0,-46 -34,-68 -77,-83l-61 -19c-163,-46 -534,-78 -690,-64 -56,5 -94,11 -121,44 -25,30 -33,69 -33,122l-23 0 0 -21z"/>
   <path class="fil0" d="M364 2955c-21,77 78,76 153,142 24,21 41,50 61,76 78,106 160,45 160,6 0,-77 -133,-72 -187,-213 -29,-76 -87,-18 -187,-11zm-28 21c0,-47 25,-39 70,-49 66,-14 138,-53 170,37 42,114 185,132 185,203 0,31 -1,52 -41,74 -112,62 -180,-91 -224,-134 -15,-14 -40,-25 -61,-36 -38,-20 -99,-46 -99,-95z"/>
   <path class="fil0" d="M-904 2773c-52,30 -19,98 -10,154 13,85 13,142 23,214 4,31 17,67 50,75 0,-84 -18,-146 -18,-232 1,-59 -10,-166 -45,-211zm-51 56c0,-34 7,-77 56,-77 51,0 68,206 68,256 1,69 3,59 8,122 3,26 19,106 -18,106 -38,0 -62,-40 -68,-66 -14,-59 -17,-158 -27,-227 -6,-39 -19,-73 -19,-114z"/>
   <path class="fil0" d="M3668 1545c-1,54 5,93 77,81 61,-10 102,-64 157,-87 47,-20 162,-27 187,-59 -17,-66 -91,-13 -143,-12 -88,0 -136,-8 -222,16 -38,11 -56,16 -56,61zm-24 24c1,-62 -7,-78 61,-102 125,-43 195,-1 289,-30 12,-4 38,-14 49,-14 32,0 70,21 69,57 0,47 -128,53 -197,79 -49,17 -81,57 -129,78 -70,30 -142,12 -142,-68z"/>
   <path class="fil0" d="M5003 -785c-7,29 -32,37 -33,110 0,77 58,138 148,138 35,0 62,-4 93,-8 158,-20 302,16 441,-150 18,-21 30,-46 41,-53 0,55 -19,71 -73,119 -52,45 -133,81 -207,91l-300 22c-134,0 -196,-120 -156,-228 6,-14 15,-27 19,-41l27 0z"/>
   <path class="fil0" d="M2353 -399c48,0 86,-10 117,-27 58,-32 69,-45 69,-90 0,-87 -155,-29 -199,-29 -49,0 -160,-58 -155,27 3,50 42,67 92,97 21,12 43,22 76,22zm-194 -126c0,-43 47,-65 70,-65 20,0 93,25 106,25 51,0 211,-75 229,51 9,61 -69,106 -116,122 -70,24 -136,19 -197,-19 -40,-25 -92,-48 -92,-114z"/>
   <path class="fil0" d="M984 2073c-12,0 -24,5 -32,8 -27,97 68,127 124,155 21,11 69,49 111,49 47,0 88,-20 91,-58 4,-39 -26,-66 -61,-82 -57,-26 -93,-12 -177,-52 -11,-5 -36,-20 -56,-20zm-9 -20c53,0 64,18 102,32 65,26 226,20 226,143 -1,57 -98,119 -217,40 -8,-5 -14,-9 -22,-14 -46,-24 -117,-38 -138,-118 -6,-22 -9,-36 1,-56 7,-14 28,-27 48,-27z"/>
   <path class="fil0" d="M2845 -675c-42,0 -137,-15 -153,8 -11,20 12,55 20,76 31,78 95,40 210,21 24,-4 49,-6 74,-13 56,-16 65,-53 22,-77 -55,-29 -112,-15 -173,-15zm-181 16c1,-34 53,-49 97,-43 49,6 56,9 99,4 70,-9 212,-2 212,76 -1,63 -132,71 -194,82 -59,11 -153,44 -186,-34 -10,-24 -28,-55 -28,-85z"/>
   <path class="fil0" d="M3333 2707c0,36 62,78 108,34 58,-56 -20,-68 -24,-127 -1,-16 3,-42 5,-60 3,-25 32,-115 -32,-115 -47,0 -10,81 -10,126 0,36 -47,101 -47,142zm-23 13c0,-91 51,-116 46,-170 -2,-21 -15,-55 -17,-79 -4,-72 116,-73 116,13 -1,46 -10,75 -10,130 -1,47 41,35 41,93 0,27 -56,107 -143,57 -14,-8 -33,-25 -33,-44z"/>
   <path class="fil0" d="M245 2622c-15,55 36,112 59,159 37,71 20,109 125,109 24,0 55,-47 49,-83 -7,-42 -34,-56 -65,-76 -16,-10 -29,-16 -45,-26 -50,-30 -63,-70 -92,-82 -24,-10 -14,-1 -31,-1zm-28 29c0,-18 -5,-53 47,-53 49,0 60,55 133,98 48,28 107,53 106,121 0,70 -58,116 -137,88 -49,-17 -56,-49 -74,-90 -4,-10 -7,-17 -11,-26 -5,-13 -8,-16 -15,-27 -12,-20 -49,-87 -49,-111z"/>
   <path class="fil0" d="M-1579 4447c0,-98 -15,-185 -30,-268 -8,-42 -18,-87 -28,-126 -9,-30 -12,-46 -14,-59l1 -79 10 23c33,124 85,352 84,469 0,84 2,145 -29,227 -12,31 -43,94 -70,110 1,-66 24,-41 52,-134 15,-48 24,-101 24,-163z"/>
   <path class="fil0" d="M2216 2976c-47,0 -157,52 -177,77 35,58 113,-7 188,34 64,34 74,63 132,51 7,-29 7,-29 -19,-65 -10,-13 -16,-29 -26,-46 -17,-32 -46,-51 -98,-51zm-200 77c0,-19 15,-30 28,-37 8,-4 16,-6 25,-10 77,-38 79,-51 165,-51 91,0 107,80 137,120 28,37 28,88 -36,88 -65,0 -94,-60 -155,-67 -17,-2 -164,27 -164,-43z"/>
   <path class="fil0" d="M3663 642c-1,64 26,133 58,185 30,48 79,67 163,67 -4,-39 -45,-31 -71,-55 -13,-13 -31,-64 -43,-84 -14,-25 -54,-105 -69,-118 -11,-10 -38,-18 -38,5zm-28 12c0,-63 63,-58 90,-26 15,18 83,145 94,173 23,54 30,16 78,62 68,65 -114,84 -191,-16 -24,-31 -71,-143 -71,-193z"/>
   <path class="fil0" d="M3915 2004c44,0 43,-12 81,-27 32,-14 83,-12 128,-58 30,-31 42,-32 42,-61 0,-12 -23,-29 -37,-29 -69,0 -50,126 -181,126 -37,0 -87,-10 -86,20 1,19 31,29 53,29zm-78 -28c0,-61 90,-42 108,-43 118,-10 80,-72 146,-113 47,-30 110,6 99,51 -6,28 -42,58 -63,75 -30,26 -53,31 -98,44 -56,16 -96,61 -162,24 -13,-7 -30,-24 -30,-38z"/>
   <path class="fil0" d="M2906 3923c-29,0 -48,28 -107,28 -55,0 -96,-26 -107,13 40,18 112,11 172,12 105,1 83,49 129,53 6,-24 29,-33 -24,-77 -11,-9 -45,-29 -63,-29zm-237 41c1,-67 102,-33 130,-33 51,0 57,-28 116,-28 23,0 122,48 113,103 -5,26 -18,43 -44,43 -35,0 -34,-26 -57,-39 -57,-31 -258,11 -258,-46z"/>
   <path class="fil0" d="M3299 1163l116 64c24,13 38,14 66,24 29,10 83,31 105,5 -22,-26 -76,0 -149,-40 -54,-28 -82,-53 -138,-53zm-32 0c0,-17 13,-25 32,-25 74,0 125,58 189,74 17,4 161,10 117,61 -54,63 -240,-51 -277,-67 -16,-7 -61,-28 -61,-43z"/>
   <path class="fil0" d="M-1627 -708l0 -28c47,22 183,116 251,141 32,11 66,26 109,26 130,0 142,-161 112,-216l28 0c3,38 9,23 9,90 0,59 -53,146 -135,146 -120,0 -188,-53 -273,-101 -25,-14 -83,-53 -101,-58z"/>
   <path class="fil0" d="M5468 707l5 29c59,-5 62,-107 67,-133 11,-56 3,-24 3,-54 0,-35 28,-93 -11,-72 -12,7 -16,13 -21,23 -13,21 -14,39 -18,66 -8,48 -25,89 -25,141zm-23 4c0,-37 27,-198 44,-223 15,-22 33,-37 64,-37 11,0 13,7 23,12 0,36 -5,57 -5,90 0,34 -16,138 -34,162 -36,49 -92,71 -92,-4z"/>
   <path class="fil0" d="M2997 5643c-13,-1 -7,-6 -19,-43 -8,-24 -9,-37 -14,-65 -5,-33 2,-86 -3,-106 -3,-14 -8,-17 -12,-30 -29,7 -28,51 -75,92l-32 29c-24,20 -37,31 -59,55 -13,13 -43,50 -48,68l-32 0c15,-20 27,-40 42,-61 62,-79 95,-63 156,-168 12,-22 31,-53 61,-31 41,30 22,140 31,176 5,24 19,62 20,84l-16 0z"/>
   <path class="fil0" d="M2689 3671c-56,0 -46,46 -47,102 0,60 89,16 144,16 36,0 79,-5 79,-45 0,-19 -58,-38 -78,-45 -19,-7 -75,-28 -98,-28zm-9 -20c33,0 43,3 70,12 30,10 73,22 103,39 26,15 35,20 35,42 0,40 -33,62 -75,65 -31,2 -38,0 -67,6 -31,6 -96,26 -120,-12 -11,-19 -6,-41 -7,-66 -3,-40 3,-86 61,-86z"/>
   <path class="fil0" d="M4215 390c-31,0 -51,12 -74,12 -23,0 -38,-8 -60,-8 -9,0 -15,6 -28,8 8,27 70,31 91,50 27,25 7,70 56,80 20,-11 23,-22 28,-45 3,-12 38,-97 -13,-97zm-9 -20c39,0 65,24 64,45 0,17 -4,28 -8,41 -12,39 -15,97 -66,97 -44,0 -55,-48 -61,-68 -14,-47 -127,-42 -105,-86 19,-39 89,-20 111,-21 29,0 35,-8 65,-8z"/>
   <path class="fil0" d="M5607 1715c0,-64 28,-119 75,-146 -1,53 -47,58 -47,114 -1,94 6,108 20,197 4,24 4,101 13,154 10,56 11,39 11,72l0 32c-16,-16 -31,-68 -35,-91 -11,-65 -10,-140 -23,-222 -6,-36 -14,-72 -14,-110z"/>
   <path class="fil0" d="M-1181 5374c31,0 49,13 57,43 7,25 7,55 7,84 1,46 24,109 41,142l-27 0c-9,-34 -32,-66 -37,-122 -4,-49 6,-126 -41,-126 -36,0 -87,135 -113,181 -12,21 -25,44 -32,67l-27 0 109 -219c11,-19 34,-50 63,-50z"/>
   <path class="fil0" d="M5395 4187c1,-50 64,-74 104,-88 37,-13 121,-30 170,-30l0 21c-24,0 -51,7 -76,10 -27,4 -50,8 -72,15 -50,15 -98,29 -98,76 0,83 200,37 245,37l0 20c-52,4 -182,31 -240,-4 -20,-13 -33,-45 -33,-57z"/>
   <path class="fil0" d="M2589 1472c0,53 37,84 78,110 15,10 23,20 37,28 15,-3 21,-5 34,-11 13,-7 20,-9 22,-26 -31,-13 -93,5 -137,-66 -10,-16 -15,-31 -34,-35zm-23 12c0,-13 -2,-44 37,-33 42,13 32,72 101,90 30,9 92,2 81,42 -2,8 -55,81 -116,29l-54 -38c-20,-17 -49,-58 -49,-90z"/>
   <path class="fil0" d="M4544 406c19,9 18,7 43,11 31,5 18,4 45,2 11,-41 -6,-49 -28,-98 -5,-13 -11,-26 -17,-37l-16 -27c-6,-8 -2,-3 -8,-9 0,51 27,37 -5,118 -4,12 -10,31 -14,40zm-23 -4c0,-31 28,-53 28,-97 0,-22 -10,-27 -11,-46 -1,-21 26,-88 83,39 19,44 39,71 38,108 0,64 -120,26 -128,19 -6,-5 -10,-15 -10,-23z"/>
   <path class="fil0" d="M5133 -748l5 -37 27 0c-28,52 18,110 92,110 47,0 210,-58 262,-80 15,-6 26,-10 38,-19 10,-7 13,-10 17,-11l31 0c-29,39 -98,59 -152,78 -76,27 -132,52 -214,52 -52,0 -106,-48 -106,-93z"/>
   <path class="fil0" d="M4647 5626c1,-52 70,-56 112,-56 72,0 154,34 213,36 55,2 178,-9 212,37l0 0c-52,0 -51,-7 -109,-14 -36,-4 -87,1 -126,-4 -83,-9 -278,-85 -279,18l-23 0 0 -17z"/>
   <path class="fil0" d="M2919 -638c-43,0 -43,7 -87,-1 -21,-4 -70,-16 -70,17 -1,52 92,17 124,16 15,0 37,2 51,0 19,-2 23,-5 24,-24 -12,-3 -30,-8 -42,-8zm-125 -29c29,0 25,9 111,8 105,0 93,50 59,68 -16,8 -32,6 -55,5 -49,0 -54,13 -120,13 -66,0 -77,-94 5,-94z"/>
   <path class="fil0" d="M4351 894c0,74 65,6 92,-17l31 -26c1,0 2,-1 2,-2 17,-14 24,-15 24,-40 -21,5 -26,22 -74,41 -21,8 -74,21 -75,44zm144 -105c13,0 13,2 24,4 2,4 9,19 9,24 0,22 -49,62 -65,73 -21,14 -20,18 -36,34 -75,72 -156,-33 -59,-76 23,-10 49,-16 68,-26 17,-9 39,-33 59,-33z"/>
   <path class="fil0" d="M-1471 1248c1,-42 -32,-70 -67,-91 -93,-56 -99,-21 -98,-64 41,4 189,63 189,151 -1,49 -25,62 -70,81 -20,9 -92,29 -121,29 0,-39 11,-14 95,-43 35,-13 72,-25 72,-63z"/>
   <path class="fil0" d="M489 2972c-31,0 -5,12 -79,12 9,36 19,11 70,40 13,7 22,14 35,22 13,9 21,18 38,19 -15,-19 -28,-16 -32,-45 -2,-10 -2,-21 -7,-30 -4,-8 -15,-18 -25,-18zm-102 16c0,-34 47,-25 57,-27 18,-4 87,-42 100,51 3,18 3,14 17,26 44,36 -3,52 -3,52 -31,0 -66,-35 -90,-48 -22,-11 -28,-10 -50,-17 -17,-5 -31,-17 -31,-37z"/>
   <path class="fil0" d="M4175 915c0,73 116,60 134,52 -2,-25 -30,-50 -52,-63 -32,-18 -82,-16 -82,11zm38 -45c40,0 84,31 101,53 82,100 -119,87 -155,30 -24,-40 -1,-83 54,-83z"/>
   <path class="fil0" d="M2432 -492c-31,-6 -39,4 -69,4 -21,0 -35,-12 -56,-12 -13,0 -29,40 74,40 24,0 45,-7 56,-20 -4,-5 -4,-11 -5,-12zm-129 -28c26,0 36,8 55,8 20,0 98,-20 105,29 5,42 -127,70 -176,21 -21,-21 -21,-58 16,-58z"/>
   <path class="fil0" d="M337 2736c7,25 21,21 35,58 11,28 12,48 53,48 15,-52 -33,-58 -64,-83 -14,-11 -7,-13 -24,-23zm-28 0c0,-16 18,-20 33,-20 12,0 32,24 65,44 113,70 -11,170 -55,52 -18,-50 -43,-55 -43,-76z"/>
   <path class="fil0" d="M599 3110c2,18 16,27 31,42 17,15 17,35 43,35 15,0 18,-9 19,-20 0,-17 -85,-55 -93,-57zm-28 0c1,-47 68,-8 85,3 25,16 77,31 58,70 -15,31 -62,38 -86,7 -6,-9 -6,-11 -14,-20 -13,-17 -43,-42 -43,-60z"/>
   <path class="fil0" d="M2923 5643c-2,-1 -3,-4 -6,-10 -4,-9 1,-32 -18,-57 -10,-14 -5,-11 -29,-11 -5,16 -10,17 -14,33 -4,16 -5,26 -5,45l-28 0c10,-18 3,-103 60,-101 40,2 60,60 60,101l-20 0z"/>
  </g>
 </g>
</svg>
