<?xml version="1.0" encoding="UTF-8"?>
<!DOCTYPE svg PUBLIC "-//W3C//DTD SVG 1.1//EN" "http://www.w3.org/Graphics/SVG/1.1/DTD/svg11.dtd">
<!-- Creator: CorelDRAW X7 -->
<svg xmlns="http://www.w3.org/2000/svg" xml:space="preserve" width="0.666661in" height="0.666661in" version="1.1" style="shape-rendering:geometricPrecision; text-rendering:geometricPrecision; image-rendering:optimizeQuality; fill-rule:evenodd; clip-rule:evenodd"
viewBox="0 0 667 667"
 xmlns:xlink="http://www.w3.org/1999/xlink">
 <defs>
  <style type="text/css">
   <![CDATA[
    .fil0 {fill:black}
   ]]>
  </style>
 </defs>
 <g id="Layer_x0020_1">
  <metadata id="CorelCorpID_0Corel-Layer"/>
  <g id="_574047411856">
   <path class="fil0" d="M334 608c-79,0 -156,-36 -206,-93 -3,-3 -5,-6 -8,-9l-21 -29c-2,-5 -3,-6 -6,-11 -2,-5 -4,-7 -6,-11 -14,-28 -27,-75 -27,-106 0,-51 3,-87 25,-132 30,-60 70,-101 130,-131 72,-36 167,-34 239,2 28,14 37,21 60,40 6,5 12,11 18,17 9,9 22,26 29,37 24,34 42,84 45,125 0,6 0,10 1,16 0,5 1,11 0,17 -1,8 -2,21 -3,30 -5,50 -30,102 -62,141 -3,3 -5,5 -8,8 -12,14 -20,21 -35,32l-31 21c-24,13 -46,22 -74,28 -14,4 -45,8 -60,8zm-327 -287c0,50 2,80 19,125 21,57 35,69 62,104 3,4 4,5 8,9 17,17 36,35 57,48 4,2 6,3 10,6 4,2 6,3 9,5 4,2 5,3 10,6 144,72 317,34 411,-92 29,-39 45,-72 58,-123 19,-73 8,-159 -27,-226 -4,-6 -8,-13 -12,-20 -7,-13 -16,-24 -25,-35 -57,-71 -150,-121 -243,-121 -57,0 -103,7 -149,30l-37 21c-3,1 -4,2 -7,3 -13,10 -26,20 -37,31 -9,8 -22,19 -30,29 -6,9 -11,14 -17,23 -34,49 -60,112 -60,177z"/>
   <path class="fil0" d="M196 222c0,16 9,21 21,33l78 77c-13,21 -99,91 -99,109 0,10 1,20 13,26 8,5 17,5 25,1 5,-2 94,-90 98,-97 13,8 88,91 100,97 14,7 38,3 38,-27 0,-13 -38,-46 -48,-56l-51 -53 52 -51c9,-9 17,-17 26,-26 14,-14 21,-15 21,-36 0,-12 -13,-23 -27,-23 -14,0 -24,13 -31,21 -10,9 -18,17 -27,26l-53 52 -77 -78c-10,-9 -18,-21 -34,-21 -13,0 -25,12 -25,26z"/>
  </g>
 </g>
</svg>
