<?xml version="1.0" encoding="UTF-8"?>
<!DOCTYPE svg PUBLIC "-//W3C//DTD SVG 1.1//EN" "http://www.w3.org/Graphics/SVG/1.1/DTD/svg11.dtd">
<!-- Creator: CorelDRAW X7 -->
<svg xmlns="http://www.w3.org/2000/svg" xml:space="preserve" width="0.666661in" height="0.666661in" version="1.1" style="shape-rendering:geometricPrecision; text-rendering:geometricPrecision; image-rendering:optimizeQuality; fill-rule:evenodd; clip-rule:evenodd"
viewBox="0 0 667 667"
 xmlns:xlink="http://www.w3.org/1999/xlink">
 <defs>
  <style type="text/css">
   <![CDATA[
    .fil0 {fill:#FEFEFE}
   ]]>
  </style>
 </defs>
 <g id="Layer_x0020_1">
  <metadata id="CorelCorpID_0Corel-Layer"/>
  <path class="fil0" d="M10 70c0,38 21,50 49,78l184 182c-30,49 -233,215 -233,257 0,24 2,47 30,61 19,12 40,12 59,3 12,-5 222,-213 231,-229 31,19 208,215 236,229 33,16 90,7 90,-64 0,-31 -90,-109 -113,-132l-121 -125 123 -121c21,-21 40,-40 62,-61 33,-33 49,-35 49,-85 0,-28 -31,-54 -64,-54 -33,0 -56,31 -73,49 -23,22 -42,41 -63,62l-126 123 -181 -185c-24,-21 -43,-49 -80,-49 -31,0 -59,28 -59,61l0 0z"/>
 </g>
</svg>
