<?xml version="1.0" encoding="UTF-8"?>
<!DOCTYPE svg PUBLIC "-//W3C//DTD SVG 1.1//EN" "http://www.w3.org/Graphics/SVG/1.1/DTD/svg11.dtd">
<!-- Creator: CorelDRAW X7 -->
<svg xmlns="http://www.w3.org/2000/svg" xml:space="preserve" width="0.666661in" height="0.666661in" version="1.1" style="shape-rendering:geometricPrecision; text-rendering:geometricPrecision; image-rendering:optimizeQuality; fill-rule:evenodd; clip-rule:evenodd"
viewBox="0 0 667 667"
 xmlns:xlink="http://www.w3.org/1999/xlink">
 <defs>
  <style type="text/css">
   <![CDATA[
    .fil0 {fill:black}
   ]]>
  </style>
 </defs>
 <g id="Layer_x0020_1">
  <metadata id="CorelCorpID_0Corel-Layer"/>
  <g id="_574037881296">
   <path class="fil0" d="M315 667c80,0 170,-4 241,-35 19,-8 41,-20 52,-37 4,-8 5,-13 5,-25 0,-40 0,-80 0,-119 -39,20 -39,23 -89,36 -6,1 -9,3 -16,4l-37 6c-5,1 -13,2 -18,3 -33,4 -88,7 -120,7l-118 -7c-43,-6 -96,-15 -134,-34l-28 -15c0,39 1,79 0,118 0,21 6,28 20,41 48,44 185,57 242,57z"/>
   <path class="fil0" d="M333 480c93,0 178,-7 250,-43l25 -17c5,-4 5,-4 5,-11 1,-39 0,-79 0,-119 -25,14 -39,24 -72,32 -54,14 -55,12 -107,20 -6,1 -14,1 -19,1 -12,2 -90,4 -103,3 -7,0 -10,-1 -19,-1 -33,0 -85,-4 -116,-11 -35,-7 -78,-16 -110,-35 -5,-3 -9,-6 -14,-9 0,39 0,79 0,118 0,8 1,9 12,17 17,13 38,22 59,29 57,19 134,26 209,26z"/>
   <path class="fil0" d="M329 320c87,0 187,-6 255,-44l17 -11c11,-7 12,-9 12,-18 0,-39 0,-78 0,-117 -9,5 -16,11 -27,15 -5,2 -8,5 -14,7 -104,42 -288,40 -396,22 -5,-1 -12,-2 -17,-3 -14,-3 -51,-14 -65,-19 -14,-6 -29,-16 -41,-22 0,39 1,78 0,116 0,8 -1,7 3,12 6,6 18,14 26,18 7,4 11,6 19,10 8,3 14,5 22,8 58,19 130,26 206,26z"/>
   <path class="fil0" d="M53 96c4,1 14,11 24,17 27,16 58,26 90,33 11,2 21,4 34,6 7,1 11,1 18,2 47,6 85,6 133,6 14,0 25,-1 39,-1 14,0 58,-5 73,-7 30,-4 73,-13 98,-25 16,-7 26,-12 39,-22 4,-3 7,-7 12,-9 0,-26 -16,-40 -36,-52 -54,-31 -158,-44 -225,-44 -86,0 -191,5 -261,44 -8,4 -20,13 -25,19 -9,10 -13,16 -13,33z"/>
  </g>
 </g>
</svg>
