<?xml version="1.0" encoding="UTF-8"?>
<!DOCTYPE svg PUBLIC "-//W3C//DTD SVG 1.1//EN" "http://www.w3.org/Graphics/SVG/1.1/DTD/svg11.dtd">
<!-- Creator: CorelDRAW X7 -->
<svg xmlns="http://www.w3.org/2000/svg" xml:space="preserve" width="0.666661in" height="0.666661in" version="1.1" style="shape-rendering:geometricPrecision; text-rendering:geometricPrecision; image-rendering:optimizeQuality; fill-rule:evenodd; clip-rule:evenodd"
viewBox="0 0 667 667"
 xmlns:xlink="http://www.w3.org/1999/xlink">
 <defs>
  <style type="text/css">
   <![CDATA[
    .fil0 {fill:#2853A8}
   ]]>
  </style>
 </defs>
 <g id="Layer_x0020_1">
  <metadata id="CorelCorpID_0Corel-Layer"/>
  <path class="fil0" d="M59 440l0 -299c0,-19 16,-37 34,-37l481 0c18,0 33,18 33,37l0 299c0,19 -17,35 -40,35l-467 0c-23,0 -41,-17 -41,-35zm-46 -294l0 284c0,52 35,89 82,89 57,0 115,0 172,0l-22 44c-17,1 -35,1 -52,1 -11,0 -15,-1 -22,4 -19,15 -4,40 11,40l303 0c15,0 29,-25 11,-40 -7,-5 -11,-4 -22,-4 -18,0 -35,0 -53,0l-21 -45c57,0 114,0 171,0 15,0 24,-3 35,-7 8,-4 18,-11 25,-18 6,-7 12,-17 16,-27 4,-10 6,-23 6,-37l0 -284c0,-37 -18,-65 -47,-79 -9,-5 -21,-8 -35,-8l-476 0c-44,0 -81,36 -81,87l-1 0z"/>
 </g>
</svg>
