<?xml version="1.0" encoding="UTF-8"?>
<!DOCTYPE svg PUBLIC "-//W3C//DTD SVG 1.1//EN" "http://www.w3.org/Graphics/SVG/1.1/DTD/svg11.dtd">
<!-- Creator: CorelDRAW X7 -->
<svg xmlns="http://www.w3.org/2000/svg" xml:space="preserve" width="0.666661in" height="0.666661in" version="1.1" style="shape-rendering:geometricPrecision; text-rendering:geometricPrecision; image-rendering:optimizeQuality; fill-rule:evenodd; clip-rule:evenodd"
viewBox="0 0 667 667"
 xmlns:xlink="http://www.w3.org/1999/xlink">
 <defs>
  <style type="text/css">
   <![CDATA[
    .fil0 {fill:#66C6B9}
    .fil1 {fill:#FDFEFE}
   ]]>
  </style>
 </defs>
 <g id="Layer_x0020_1">
  <metadata id="CorelCorpID_0Corel-Layer"/>
  <g id="_448652315600">
   <path class="fil0" d="M485 223c37,-10 67,14 73,42 9,35 -14,64 -40,72 -76,21 -109,-92 -33,-114zm-166 1c37,-11 66,13 73,41 9,35 -14,64 -40,72 -76,21 -109,-92 -33,-113zm-169 0c38,-12 66,13 74,41 10,36 -15,64 -41,72 -74,22 -109,-91 -33,-113zm499 -127c-7,-8 -12,-39 -54,-40 -43,-2 -265,3 -274,-2 -41,0 -222,-2 -246,0 -37,4 -57,26 -58,64 -3,92 0,211 0,308 0,87 55,74 111,74 41,0 82,0 124,0 2,10 76,101 79,111l4 0c2,-7 34,-47 39,-54 8,-10 13,-18 20,-27 7,-9 15,-18 20,-28 26,0 181,3 198,-2 9,-4 19,-10 24,-17 15,-18 15,-34 15,-66l0 -282c0,-16 -2,-25 -2,-39z"/>
   <path class="fil1" d="M150 224c-76,22 -41,135 33,113 26,-8 51,-36 41,-72 -8,-28 -36,-53 -74,-41z"/>
   <path class="fil1" d="M319 224c-76,21 -43,134 33,113 26,-8 49,-37 40,-72 -7,-28 -36,-52 -73,-41z"/>
   <path class="fil1" d="M485 223c-76,22 -43,135 33,114 26,-8 49,-37 40,-72 -6,-28 -36,-52 -73,-42z"/>
  </g>
 </g>
</svg>
