<?xml version="1.0" encoding="UTF-8"?>
<!DOCTYPE svg PUBLIC "-//W3C//DTD SVG 1.1//EN" "http://www.w3.org/Graphics/SVG/1.1/DTD/svg11.dtd">
<!-- Creator: CorelDRAW X7 -->
<svg xmlns="http://www.w3.org/2000/svg" xml:space="preserve" width="0.666661in" height="0.666661in" version="1.1" style="shape-rendering:geometricPrecision; text-rendering:geometricPrecision; image-rendering:optimizeQuality; fill-rule:evenodd; clip-rule:evenodd"
viewBox="0 0 667 667"
 xmlns:xlink="http://www.w3.org/1999/xlink">
 <defs>
  <style type="text/css">
   <![CDATA[
    .fil0 {fill:#FEFEFE}
   ]]>
  </style>
 </defs>
 <g id="Layer_x0020_1">
  <metadata id="CorelCorpID_0Corel-Layer"/>
  <path class="fil0" d="M17 197c0,27 45,64 69,88l197 197c13,14 24,30 47,34 25,3 39,-14 51,-27l237 -237c23,-24 32,-24 32,-59 0,-16 -22,-38 -38,-38 -30,0 -30,3 -51,24 -23,23 -216,218 -226,225 -9,-7 -205,-205 -230,-229 -10,-11 -22,-24 -42,-24 -24,0 -46,22 -46,46l0 0z"/>
 </g>
</svg>
