<?xml version="1.0" encoding="UTF-8"?>
<!DOCTYPE svg PUBLIC "-//W3C//DTD SVG 1.1//EN" "http://www.w3.org/Graphics/SVG/1.1/DTD/svg11.dtd">
<!-- Creator: CorelDRAW X7 -->
<svg xmlns="http://www.w3.org/2000/svg" xml:space="preserve" width="1.66666in" height="1.66666in" version="1.1" style="shape-rendering:geometricPrecision; text-rendering:geometricPrecision; image-rendering:optimizeQuality; fill-rule:evenodd; clip-rule:evenodd"
viewBox="0 0 1667 1667"
 xmlns:xlink="http://www.w3.org/1999/xlink">
 <defs>
  <style type="text/css">
   <![CDATA[
    .str1 {stroke:#0095FF;stroke-width:6.94488}
    .str0 {stroke:#25D9F8;stroke-width:3}
    .fil0 {fill:black}
    .fil2 {fill:#0095FF}
    .fil3 {fill:#00ABE9}
    .fil1 {fill:#25D9F8}
   ]]>
  </style>
 </defs>
 <g id="Layer_x0020_1">
  <metadata id="CorelCorpID_0Corel-Layer"/>
  <g id="_588903816592">
   <path class="fil0 str0" d="M928 1043l0 -100 109 0 -109 100zm668 -858l0 5c-1,14 -6,29 -9,39l-27 125c-12,54 -26,112 -38,166l-74 332c-25,107 -3,91 -111,91 -68,0 -136,1 -203,0 -26,0 -27,-1 -41,13l-146 132c-40,34 -31,46 -74,11 -10,-8 -19,-15 -28,-23l-111 -92c-14,-12 -40,-40 -59,-41 -70,-4 -218,0 -303,0 -33,0 -76,9 -76,-23 0,-12 4,-15 12,-20l141 -83c183,-110 378,-218 562,-329 170,-101 350,-202 520,-303 7,-5 31,-21 41,-21 17,0 23,9 24,21zm-277 241c6,5 2,2 2,4l-88 95c-6,7 -7,10 -15,18l-104 113c-7,7 -27,29 -27,37 0,22 25,41 54,2 10,-12 16,-17 26,-27l207 -228c6,-7 7,-9 12,-15l40 -43c22,-21 87,-100 105,-112l-122 546c-4,18 -16,65 -16,80l-433 0c8,-15 47,-51 58,-65 12,-15 54,-53 54,-70 0,-17 -19,-44 -54,2l-114 124c-14,15 -22,22 -23,39 -3,36 0,83 0,120l-37 -30c-14,-11 -26,-21 -39,-32 -12,-11 -70,-53 -74,-67 10,-3 27,-21 37,-28l110 -92c13,-11 24,-21 37,-31l184 -154c30,-26 211,-172 220,-186zm-911 470c13,-11 643,-378 696,-409 19,-10 38,-22 58,-34 21,-12 169,-96 175,-104 7,6 0,4 -22,23l-378 316c-68,55 -132,112 -201,167 -9,7 -42,38 -50,41l-278 0z"/>
   <path class="fil0 str0" d="M255 393c-21,5 -37,5 -56,25 -29,30 -31,73 -2,107 9,11 30,24 49,24l106 0c8,0 17,-12 17,-20 0,-44 -90,-14 -124,-26 -29,-9 -29,-48 -5,-59 12,-6 31,-2 47,-4 40,-5 12,-47 12,-67 0,-67 85,-99 130,-54 40,40 14,85 12,96 -4,31 38,25 58,25 40,0 8,-73 76,-73 19,0 36,14 43,28 11,22 -3,37 25,46 10,3 16,3 22,13 12,18 11,51 -40,51 -47,0 -94,0 -141,0 -20,0 -54,-4 -65,6 -13,12 -8,38 15,38l209 0c24,0 37,-9 50,-21l8 -9c27,-36 19,-87 -23,-113 -19,-12 -4,0 -19,-31 -7,-13 -12,-22 -23,-30 -35,-28 -72,-31 -111,-10 -15,8 -17,15 -29,23 -10,-117 -188,-154 -236,-24 -7,20 -5,33 -5,59z"/>
   <path class="fil0 str0" d="M1246 1334c32,0 53,23 53,53 0,6 -25,53 14,53 38,0 45,4 51,-26 4,-24 16,-27 35,-27 32,0 23,37 34,48 10,9 18,1 27,15 5,9 0,26 -12,26l-294 0c-11,0 -14,-12 -14,-21 0,-29 64,2 64,-35 0,-23 -16,-26 -3,-56 7,-16 22,-30 45,-30zm-94 42l0 20c-76,0 -83,127 8,127l286 0c55,0 81,-70 45,-107 -19,-19 -14,-3 -26,-31 -13,-29 -38,-45 -75,-45 -23,0 -35,13 -50,21 -5,-54 -97,-106 -157,-48 -14,13 -31,37 -31,63z"/>
   <path class="fil0 str0" d="M193 1184c0,-75 100,-73 100,-3 0,32 -29,53 41,53 38,0 16,-69 67,-52 25,8 16,24 24,41 9,17 33,6 33,32 0,7 -8,15 -15,15 -50,0 -272,4 -303,-3 -6,-13 -6,-17 0,-30 34,-7 59,7 59,-29 0,-13 -6,-11 -6,-24zm-103 77l0 -14c3,-29 24,-56 56,-57 0,-35 10,-60 27,-78 52,-55 147,-29 164,43 13,-9 25,-21 47,-21 78,0 66,48 89,64 62,43 22,119 -33,119l-282 0c-19,0 -38,-8 -48,-17 -12,-11 -18,-25 -20,-39z"/>
  </g>
  <path class="fil1" d="M731 917c4,14 62,56 74,67 13,11 25,21 39,32l37 30c0,-37 -3,-84 0,-120 1,-17 9,-24 23,-39l114 -124c35,-46 54,-19 54,-2 0,17 -42,55 -54,70 -11,14 -50,50 -58,65l433 0c0,-15 12,-62 16,-80l122 -546c-18,12 -83,91 -105,112l-40 43c-5,6 -6,8 -12,15l-207 228c-10,10 -16,15 -26,27 -29,39 -54,20 -54,-2 0,-8 20,-30 27,-37l104 -113c8,-8 9,-11 15,-18l88 -95c0,-2 4,1 -2,-4 -9,14 -190,160 -220,186l-184 154c-13,10 -24,20 -37,31l-110 92c-10,7 -27,25 -37,28z"/>
  <path class="fil1 str1" d="M736 855c69,-55 133,-112 201,-167l378 -316c22,-19 29,-17 22,-23 -6,8 -154,92 -175,104 -20,12 -39,24 -58,34 -53,31 -683,398 -696,409l278 0c8,-3 41,-34 50,-41z"/>
  <path class="fil2" d="M1531 270l-122 546c-4,18 -16,65 -16,80l-433 0c8,-15 47,-51 58,-65 12,-15 54,-53 54,-70 0,-17 -19,-44 -54,2l-114 124c-14,15 -22,22 -23,39 -3,36 0,83 0,120l-37 -30c-14,-11 -26,-21 -39,-32 -12,-11 -70,-53 -74,-67 10,-3 27,-21 37,-28l110 -92c13,-11 24,-21 37,-31l184 -154c30,-26 211,-172 220,-186 6,5 2,2 2,4l-88 95c-6,7 -7,10 -15,18l-104 113c-7,7 -27,29 -27,37 0,22 25,41 54,2 10,-12 16,-17 26,-27l207 -228c6,-7 7,-9 12,-15l40 -43c22,-21 87,-100 105,-112zm-194 79c7,6 0,4 -22,23l-378 316c-68,55 -132,112 -201,167 -9,7 -42,38 -50,41l-278 0c13,-11 643,-378 696,-409 19,-10 38,-22 58,-34 21,-12 169,-96 175,-104zm-409 594l109 0 -109 100 0 -100zm668 -753l0 -5c-1,-12 -7,-21 -24,-21 -10,0 -34,16 -41,21 -170,101 -350,202 -520,303 -184,111 -379,219 -562,329l-87 52 -54 31c-8,5 -12,8 -12,20 0,29 35,25 66,24 3,-1 7,-1 10,-1 85,0 233,-4 303,0 19,1 45,29 59,41l111 92c9,8 18,15 28,23 43,35 34,23 74,-11l146 -132c14,-14 15,-13 41,-13 67,1 135,0 203,0 108,0 86,16 111,-91l74 -332c12,-54 26,-112 38,-166l27 -125c3,-10 8,-25 9,-39z"/>
  <path class="fil1" d="M496 358c-10,-117 -188,-154 -236,-24 -7,20 -5,33 -5,59 -21,5 -37,5 -56,25 -29,30 -31,73 -2,107 9,11 30,24 49,24l106 0c8,0 17,-12 17,-20 0,-44 -90,-14 -124,-26 -29,-9 -29,-48 -5,-59 12,-6 31,-2 47,-4 40,-5 12,-47 12,-67 0,-67 85,-99 130,-54 40,40 14,85 12,96 -4,31 38,25 58,25 40,0 8,-73 76,-73 19,0 36,14 43,28 11,22 -3,37 25,46 10,3 16,3 22,13 12,18 11,51 -40,51 -47,0 -94,0 -141,0 -20,0 -54,-4 -65,6 -13,12 -8,38 15,38l209 0c24,0 37,-9 50,-21l8 -9c27,-36 19,-87 -23,-113 -19,-12 -4,0 -19,-31 -7,-13 -12,-22 -23,-30 -35,-28 -72,-31 -111,-10 -15,8 -17,15 -29,23z"/>
  <path class="fil3" d="M337 1155c-17,-72 -112,-98 -164,-43 -17,18 -27,43 -27,78 -32,1 -53,28 -56,57l0 14c2,14 8,28 20,39 10,9 29,17 48,17l282 0c55,0 95,-76 33,-119 -23,-16 -11,-64 -89,-64 -22,0 -34,12 -47,21zm-44 26c0,32 -29,53 41,53 38,0 16,-69 67,-52 25,8 16,24 24,41 9,17 33,6 33,32 0,7 -8,15 -15,15 -50,0 -272,4 -303,-3 -6,-13 -6,-17 0,-30 34,-7 59,7 59,-29 0,-13 -6,-11 -6,-24 0,-75 100,-73 100,-3z"/>
  <path class="fil1" d="M1340 1361c-5,-54 -97,-106 -157,-48 -14,13 -31,37 -31,63l0 20c-76,0 -83,127 8,127l286 0c55,0 81,-70 45,-107 -19,-19 -14,-3 -26,-31 -13,-29 -38,-45 -75,-45 -23,0 -35,13 -50,21zm-94 -27c32,0 53,23 53,53 0,6 -25,53 14,53 38,0 45,4 51,-26 4,-24 16,-27 35,-27 32,0 23,37 34,48 10,9 18,1 27,15 5,9 0,26 -12,26l-294 0c-11,0 -14,-12 -14,-21 0,-29 64,2 64,-35 0,-23 -16,-26 -3,-56 7,-16 22,-30 45,-30z"/>
 </g>
</svg>
