<?xml version="1.0" encoding="UTF-8"?>
<!DOCTYPE svg PUBLIC "-//W3C//DTD SVG 1.1//EN" "http://www.w3.org/Graphics/SVG/1.1/DTD/svg11.dtd">
<!-- Creator: CorelDRAW X7 -->
<svg xmlns="http://www.w3.org/2000/svg" xml:space="preserve" width="0.590039in" height="0.590039in" version="1.1" style="shape-rendering:geometricPrecision; text-rendering:geometricPrecision; image-rendering:optimizeQuality; fill-rule:evenodd; clip-rule:evenodd"
viewBox="0 0 590 590"
 xmlns:xlink="http://www.w3.org/1999/xlink">
 <defs>
  <style type="text/css">
   <![CDATA[
    .fil0 {fill:black}
   ]]>
  </style>
 </defs>
 <g id="Layer_x0020_1">
  <metadata id="CorelCorpID_0Corel-Layer"/>
  <path class="fil0" d="M373 224l0 71 98 0 0 78 -98 0 0 196 -78 0 0 -196 -78 0 0 -78 78 0c0,-50 -6,-100 27,-139 14,-17 44,-37 74,-37l86 0 0 77 -77 0c-17,0 -32,12 -32,28zm-330 -224l504 0c20,0 43,23 43,43l0 504c0,20 -23,43 -43,43l-504 0c-5,0 -14,-3 -17,-5 -4,-2 -10,-6 -12,-9 -7,-6 -14,-19 -14,-29l0 -504c0,-20 23,-43 43,-43zm231 242l0 32 -78 0 0 120 78 0 0 175 -228 0c-12,0 -25,-13 -25,-25l0 -498c0,-12 13,-25 25,-25l498 0c12,0 25,13 25,25l0 498c0,12 -13,25 -25,25l-150 0 0 -175 98 0 0 -120 -98 0 0 -49c0,-6 7,-8 13,-8l95 0 0 -119 -108 0c-19,0 -38,8 -51,15 -12,6 -29,19 -36,29 -11,14 -18,23 -25,41 -6,17 -8,36 -8,59z"/>
 </g>
</svg>
