<?xml version="1.0" encoding="UTF-8"?>
<!DOCTYPE svg PUBLIC "-//W3C//DTD SVG 1.1//EN" "http://www.w3.org/Graphics/SVG/1.1/DTD/svg11.dtd">
<!-- Creator: CorelDRAW X7 -->
<svg xmlns="http://www.w3.org/2000/svg" xml:space="preserve" width="0.0666614in" height="0.0666614in" version="1.1" style="shape-rendering:geometricPrecision; text-rendering:geometricPrecision; image-rendering:optimizeQuality; fill-rule:evenodd; clip-rule:evenodd"
viewBox="0 0 67 67"
 xmlns:xlink="http://www.w3.org/1999/xlink">
 <defs>
  <style type="text/css">
   <![CDATA[
    .fil0 {fill:#FEFEFE}
    .fil3 {fill:#1D3B77}
    .fil1 {fill:#1D3B77}
    .fil2 {fill:#333333}
    .fil4 {fill:#F97450}
   ]]>
  </style>
 </defs>
 <g id="Layer_x0020_1">
  <metadata id="CorelCorpID_0Corel-Layer"/>
  <rect class="fil0" width="66.6408" height="66.6417"/>
  <rect class="fil1" x="29" y="33" width="8.83638" height="2.14234" rx="1" ry="1"/>
 </g>
 <g id="Layer_x0020_1_0">
  <metadata id="CorelCorpID_1Corel-Layer"/>
  <path class="fil2" d="M40 34c0,0 0,0 0,1 -3,7 -3,9 0,9l0 -10z"/>
  <path class="fil3" d="M16 37c-1,0 -1,1 0,1 1,-1 1,0 0,-1 0,-1 1,0 0,0zm-2 7c0,1 3,3 6,-4 0,-2 1,-4 2,-6 1,0 1,0 2,0 4,-1 3,-2 3,-3 -2,0 -4,-1 -4,1l1 0c-4,0 -1,-1 -1,-2 -1,-1 -1,-1 -2,0 0,1 0,1 1,2 -1,0 0,-1 -1,1 -1,-1 0,-1 0,-1 -1,-1 -2,-1 -2,0 0,1 0,0 0,1 0,0 0,0 0,0 0,0 0,0 0,0 -1,0 0,0 -1,0 -1,0 0,0 0,1 -1,-1 0,0 -1,-1 -1,0 -1,0 -1,0 0,1 -1,2 1,2 0,0 0,0 0,-1 1,1 1,1 1,2 0,0 -1,-1 -2,0 1,1 0,1 2,1 -1,0 -1,0 -1,0 -1,2 -3,6 -3,7l0 0zm4 -8l0 0c0,0 0,0 0,0zm2 -3c0,0 1,1 0,0 0,0 -1,1 0,0z"/>
  <path class="fil3" d="M24 23c0,0 -1,0 -1,2 5,3 10,-3 8,-3 -3,0 -5,0 -6,1 0,0 0,0 0,0 0,0 0,-1 0,-2 -1,0 -2,0 -2,1 0,2 1,1 1,1l0 0zm-2 -1c0,0 -1,0 -1,0 -1,3 1,3 2,1 0,0 0,-1 -1,-1z"/>
  <path class="fil3" d="M17 24c0,2 0,2 2,2 0,0 0,0 1,-1 -1,-1 -2,-2 -3,-1l0 0z"/>
  <path class="fil3" d="M6 27c0,0 0,0 0,1l2 0c0,-2 0,-2 0,-2l0 0c-2,-1 -2,0 -2,1l0 0z"/>
  <path class="fil3" d="M13 31c0,1 1,1 2,1 1,-1 1,-1 0,-2 -1,0 -2,0 -2,1z"/>
  <path class="fil3" d="M19 27c0,2 3,2 3,1 0,-2 -3,-1 -3,-1z"/>
  <path class="fil3" d="M10 35c0,0 1,0 1,1l1 -1c1,-2 -2,-2 -2,0l0 0z"/>
  <path class="fil3" d="M6 38c0,2 0,1 1,2l1 0c0,-1 0,0 0,-2l-1 0 -1 0 0 0z"/>
  <path class="fil3" d="M11 28l0 1c0,0 0,0 1,0l0 0c1,-1 0,-2 0,-2l-1 0c0,0 0,0 0,1z"/>
  <path class="fil3" d="M12 47l0 1c1,0 2,1 2,-1 0,-1 -2,-1 -2,0z"/>
  <path class="fil3" d="M17 30c0,1 1,1 2,1l0 -1 0 -1c-1,0 -2,0 -2,1z"/>
  <path class="fil3" d="M10 42c0,2 0,1 2,1 1,-1 0,-1 -1,-2l-1 1z"/>
  <path class="fil3" d="M3 33c0,1 1,1 2,1 0,-1 0,-1 0,-1 0,-1 0,-1 -1,-1 0,1 -1,1 -1,1l0 0z"/>
  <path class="fil3" d="M11 23c0,2 4,0 1,-1l-1 1z"/>
  <path class="fil3" d="M15 22c0,1 2,1 2,0 0,-2 -2,-1 -2,0z"/>
  <path class="fil3" d="M12 39c0,0 0,0 0,0 0,0 0,0 0,0 0,1 0,0 1,0 1,0 0,-3 -1,0l0 0z"/>
  <path class="fil3" d="M13 19c0,1 1,1 1,0l0 -1c0,0 -1,0 -1,1z"/>
  <path class="fil3" d="M23 27c0,2 3,0 0,0 0,0 0,0 0,0z"/>
  <path class="fil3" d="M15 28c0,1 1,1 1,1 1,0 1,-1 1,-2 -1,0 -2,0 -2,1l0 0z"/>
  <path class="fil3" d="M13 26c3,2 2,-3 0,0z"/>
  <path class="fil3" d="M0 38c0,1 0,1 1,1 0,0 1,-1 0,-1 -1,0 -1,0 -1,0l0 0z"/>
  <path class="fil3" d="M19 21c0,1 0,1 0,1 1,0 2,-1 1,-2 -1,0 -1,1 -1,1l0 0z"/>
  <path class="fil3" d="M6 21l0 0c2,1 2,0 2,0 -1,-1 -2,-1 -2,0l0 0z"/>
  <path class="fil3" d="M8 49c0,1 0,1 0,1 2,-1 0,-2 0,-1z"/>
  <path class="fil3" d="M2 41c0,1 0,1 1,1 0,0 0,0 1,0l0 -1c-1,0 -2,0 -2,0l0 0z"/>
  <path class="fil3" d="M6 43l0 1c1,0 2,0 2,-1 -1,0 -2,0 -2,0z"/>
  <path class="fil3" d="M8 46c0,1 0,0 0,1 2,0 2,-1 0,-1 0,0 0,0 0,0l0 0z"/>
  <path class="fil3" d="M21 19c0,2 1,2 1,0 0,0 -1,0 -1,0z"/>
  <path class="fil3" d="M17 18l0 0c1,1 1,0 2,1l0 -2c-1,0 -2,0 -2,1z"/>
  <path class="fil3" d="M7 32c0,0 0,0 0,0l1 0c0,-2 -1,-1 -1,0l0 0z"/>
  <path class="fil3" d="M4 24c1,-1 1,0 1,-1 -1,0 0,0 -1,0 -1,0 0,0 0,1z"/>
  <path class="fil3" d="M2 28c0,-1 0,-1 0,-1 0,0 -1,-1 -1,0 0,1 0,1 1,1l0 0z"/>
  <path class="fil3" d="M4 49c0,0 0,0 1,0 1,0 0,0 0,-1 -1,0 -1,0 -1,1z"/>
  <path class="fil3" d="M10 50c0,1 0,1 1,1 0,-1 0,-1 -1,-1l0 0 0 0z"/>
  <path class="fil3" d="M22 21c0,0 0,1 1,1 0,-1 0,-1 0,-1 0,-1 0,0 -1,0l0 0z"/>
  <path class="fil4" d="M40 35c-3,10 -3,9 4,9 2,0 3,-1 4,-1 5,-2 9,-12 5,-16 -3,-3 -6,-2 -10,-2 -1,0 -2,2 -2,3 1,1 3,1 4,1 1,0 3,-1 4,0 0,0 1,2 1,3 0,3 -1,7 -4,8 -1,0 -2,0 -4,0 0,-1 1,-3 1,-4 1,-2 1,-4 1,-5 -4,0 -3,-1 -4,4l0 0z"/>
  <path class="fil4" d="M58 26c-1,2 -4,11 -4,14 0,1 0,2 1,3 3,2 8,1 10,-2 0,0 0,0 1,0 0,-1 0,-1 0,-1 0,0 0,0 0,0 0,0 0,-1 1,-2 0,0 0,0 0,0 0,-1 0,-1 -1,-2 0,-4 -4,-4 -6,-3 0,-2 2,-6 2,-7 0,-2 -3,-1 -4,0l0 0zm2 15c-2,0 -3,0 -2,-3 1,-3 1,-3 2,-3 4,0 3,6 0,6l0 0z"/>
 </g>
</svg>
