<?xml version="1.0" encoding="UTF-8"?>
<!DOCTYPE svg PUBLIC "-//W3C//DTD SVG 1.1//EN" "http://www.w3.org/Graphics/SVG/1.1/DTD/svg11.dtd">
<!-- Creator: CorelDRAW X7 -->
<svg xmlns="http://www.w3.org/2000/svg" xml:space="preserve" width="0.589496in" height="0.589496in" version="1.1" style="shape-rendering:geometricPrecision; text-rendering:geometricPrecision; image-rendering:optimizeQuality; fill-rule:evenodd; clip-rule:evenodd"
viewBox="0 0 589 589"
 xmlns:xlink="http://www.w3.org/1999/xlink">
 <defs>
  <style type="text/css">
   <![CDATA[
    .fil0 {fill:black}
   ]]>
  </style>
 </defs>
 <g id="Layer_x0020_1">
  <metadata id="CorelCorpID_0Corel-Layer"/>
  <path class="fil0" d="M166 142c33,7 51,28 63,28 13,0 54,-18 115,-3 16,4 17,6 32,-3l29 -17c7,-3 11,-4 19,-5 3,7 3,30 1,39 -3,19 -7,20 4,34 12,15 17,30 21,49 5,21 2,40 -5,60 -1,4 -3,7 -5,11 -19,38 -59,55 -99,62 -9,2 -19,3 -28,5 12,23 31,38 32,57 2,29 2,60 2,90 -31,7 -73,7 -104,0 0,-29 0,-61 1,-88 1,-22 19,-34 32,-59 -8,-2 -18,-3 -26,-5 -10,-1 -18,-3 -27,-5 -69,-21 -101,-81 -79,-146 3,-9 6,-16 11,-23 1,-3 3,-5 5,-7 11,-16 8,-15 4,-34 -1,-9 -2,-33 2,-40zm117 -142l28 0c37,2 74,11 108,28 42,20 72,43 102,79 15,18 32,43 41,65 8,19 14,32 19,53 5,22 8,44 8,66l0 13c0,41 -9,81 -27,116 -15,30 -25,46 -46,70 -3,2 -2,3 -5,5 -22,26 -60,53 -92,68 -43,19 -79,26 -132,26 -95,0 -180,-51 -234,-124 -10,-15 -17,-29 -26,-46 -19,-38 -27,-81 -27,-131 0,-31 7,-64 17,-91 2,-5 3,-9 5,-14 14,-34 38,-70 65,-96 52,-53 124,-84 196,-87zm-155 161l2 30c1,7 -5,12 -8,17 -2,4 -4,8 -6,13 -14,27 -16,68 -10,99 6,29 25,58 49,76 3,2 5,4 8,6 4,3 6,4 10,6 11,7 31,17 45,18 -2,7 -7,15 -8,22 -1,4 -1,6 -2,9 -13,1 -22,7 -36,-3 -4,-2 -6,-4 -9,-8 -5,-8 -9,-13 -14,-20 -8,-10 -28,-25 -45,-25l-10 0c0,10 3,23 4,34 20,1 29,21 39,35 15,19 35,25 59,25 6,0 7,-1 12,-1l0 45c-16,-2 -63,-32 -75,-41 -11,-9 -20,-19 -30,-29 -3,-3 -4,-4 -7,-7 -2,-3 -4,-5 -6,-8 -22,-30 -41,-63 -48,-100 -18,-83 2,-161 54,-225l13 -15c35,-37 83,-63 133,-74 11,-2 40,-6 53,-6 12,0 41,4 52,6 16,3 31,9 45,14 24,10 44,22 64,38 3,2 6,4 8,7 10,10 20,18 29,29l13 17c21,30 37,63 44,103 7,39 5,68 -2,105 -6,29 -21,61 -35,83 -2,3 -4,5 -6,8 -6,9 -12,17 -20,25 -10,10 -18,19 -30,28 -12,10 -59,40 -76,42 0,-22 3,-81 -4,-102 -2,-4 -4,-6 -5,-11 8,-1 17,-5 23,-8 9,-3 14,-5 21,-10 4,-2 7,-3 10,-5 42,-31 61,-69 61,-122 0,-34 -9,-59 -27,-83 -3,-4 0,-10 0,-14 3,-25 3,-78 -29,-78 -14,0 -32,5 -42,10 -41,21 -18,19 -60,12 -11,-1 -23,-2 -33,-2 -10,-1 -36,2 -47,4 -27,5 -11,5 -48,-13 -14,-8 -43,-18 -58,-4 -12,10 -15,31 -15,48z"/>
 </g>
</svg>
