<?xml version="1.0" encoding="UTF-8"?>
<!DOCTYPE svg PUBLIC "-//W3C//DTD SVG 1.1//EN" "http://www.w3.org/Graphics/SVG/1.1/DTD/svg11.dtd">
<!-- Creator: CorelDRAW X7 -->
<svg xmlns="http://www.w3.org/2000/svg" xml:space="preserve" width="0.666661in" height="0.666661in" version="1.1" style="shape-rendering:geometricPrecision; text-rendering:geometricPrecision; image-rendering:optimizeQuality; fill-rule:evenodd; clip-rule:evenodd"
viewBox="0 0 667 667"
 xmlns:xlink="http://www.w3.org/1999/xlink">
 <defs>
  <style type="text/css">
   <![CDATA[
    .fil0 {fill:black}
   ]]>
  </style>
 </defs>
 <g id="Layer_x0020_1">
  <metadata id="CorelCorpID_0Corel-Layer"/>
  <g id="_414426317440">
   <path class="fil0" d="M328 491c0,-16 10,-26 26,-26 12,0 25,17 37,29l48 48c9,10 23,24 37,28 74,27 125,-51 87,-108 -6,-10 -154,-158 -167,-168 -24,-18 -57,-19 -82,-3 -10,6 -17,17 -31,17 -13,0 -24,-10 -24,-26 0,-11 7,-16 13,-21 16,-16 50,-30 75,-30 45,0 70,13 100,43 23,23 44,45 67,68 23,22 84,79 97,104 4,8 6,14 9,23 3,8 4,16 5,24l0 20c-2,28 -15,56 -36,76 -2,3 -4,5 -6,7 -3,3 -6,4 -9,7 -19,14 -41,21 -64,22l-11 0c-21,-1 -41,-7 -59,-18 -17,-10 -27,-22 -41,-35l-57 -57c-6,-6 -14,-14 -14,-24z"/>
   <path class="fil0" d="M42 168c0,-22 2,-38 11,-57 10,-21 22,-34 40,-47 19,-14 41,-21 64,-22l10 0c19,0 38,6 55,15 15,8 27,20 39,31l52 52c6,6 12,12 12,24 0,13 -10,24 -26,24 -12,0 -22,-14 -33,-25 -10,-10 -19,-19 -29,-29 -20,-20 -37,-43 -75,-43 -63,0 -97,77 -48,126 19,20 133,135 145,143 25,17 53,17 80,3 10,-6 16,-18 31,-18 13,0 24,10 24,26 0,15 -22,29 -34,36 -34,20 -78,20 -114,2 -14,-7 -26,-16 -37,-27l-127 -127c-10,-10 -21,-23 -27,-36 -8,-16 -13,-32 -13,-51z"/>
  </g>
 </g>
</svg>
