<?xml version="1.0" encoding="UTF-8"?>
<!DOCTYPE svg PUBLIC "-//W3C//DTD SVG 1.1//EN" "http://www.w3.org/Graphics/SVG/1.1/DTD/svg11.dtd">
<!-- Creator: CorelDRAW X7 -->
<svg xmlns="http://www.w3.org/2000/svg" xml:space="preserve" width="0.585287in" height="0.585287in" version="1.1" style="shape-rendering:geometricPrecision; text-rendering:geometricPrecision; image-rendering:optimizeQuality; fill-rule:evenodd; clip-rule:evenodd"
viewBox="0 0 585 585"
 xmlns:xlink="http://www.w3.org/1999/xlink">
 <defs>
  <style type="text/css">
   <![CDATA[
    .fil0 {fill:black}
   ]]>
  </style>
 </defs>
 <g id="Layer_x0020_1">
  <metadata id="CorelCorpID_0Corel-Layer"/>
  <g id="_414428796960">
   <path class="fil0" d="M19 535l0 -484c0,-20 12,-32 32,-32l484 0c20,0 31,12 31,32l0 484c0,20 -11,31 -31,31l-484 0c-20,0 -32,-11 -32,-31zm-19 -491l0 498c0,22 22,43 44,43l498 0c22,0 43,-21 43,-43l0 -498c0,-22 -21,-44 -43,-44l-498 0c-22,0 -44,22 -44,44z"/>
   <path class="fil0" d="M309 362l0 110 -61 0 0 -241 47 0c0,14 -4,38 9,38 8,0 13,-9 17,-14 30,-30 73,-38 111,-22 38,17 40,53 40,90l0 149 -48 0c0,-32 3,-156 -7,-180 -17,-42 -77,-35 -97,1 -9,18 -11,43 -11,69zm7 -128c0,-12 1,-23 -10,-23l-68 0c-7,0 -9,5 -9,12l0 258c0,6 4,10 9,10l83 0c10,0 9,-12 9,-23 0,-31 -2,-134 4,-155 4,-16 19,-30 34,-30 11,0 23,-1 30,11 9,15 7,65 7,84l0 89c0,4 -1,12 0,16 0,3 3,8 7,8l72 0c3,0 7,-4 7,-7l0 -182c0,-32 -9,-54 -25,-70 -32,-32 -97,-34 -135,-9l-15 11z"/>
   <path class="fil0" d="M113 231l47 0 0 241 -47 0 0 -241zm-19 -13l0 266c0,3 5,7 7,7l72 0c4,0 8,-5 8,-10l0 -260c0,-6 -4,-10 -10,-10l-67 0c-4,0 -10,3 -10,7z"/>
   <path class="fil0" d="M113 137c0,-18 22,-32 41,-18 14,10 10,39 -17,39 -12,0 -24,-11 -24,-21zm-19 -2c0,9 0,11 4,19 21,42 84,26 84,-17 0,-21 -20,-41 -40,-41 -20,0 -34,4 -43,23 -3,5 -5,9 -5,16z"/>
  </g>
 </g>
</svg>
