<?xml version="1.0" encoding="UTF-8"?>
<!DOCTYPE svg PUBLIC "-//W3C//DTD SVG 1.1//EN" "http://www.w3.org/Graphics/SVG/1.1/DTD/svg11.dtd">
<!-- Creator: CorelDRAW X7 -->
<svg xmlns="http://www.w3.org/2000/svg" xml:space="preserve" width="0.666661in" height="0.666661in" version="1.1" style="shape-rendering:geometricPrecision; text-rendering:geometricPrecision; image-rendering:optimizeQuality; fill-rule:evenodd; clip-rule:evenodd"
viewBox="0 0 667 667"
 xmlns:xlink="http://www.w3.org/1999/xlink">
 <defs>
  <style type="text/css">
   <![CDATA[
    .fil0 {fill:#1D3B77}
    .fil1 {fill:#333333}
    .fil2 {fill:#F97450}
   ]]>
  </style>
 </defs>
 <g id="Layer_x0020_1">
  <metadata id="CorelCorpID_0Corel-Layer"/>
  <path class="fil0" d="M285 337c2,-9 7,-18 18,-19 0,8 0,9 -5,13 -5,4 -7,4 -13,6zm-47 -19l0 0c0,0 0,0 0,0zm1 -2c3,-11 14,-44 28,-46 0,14 -19,41 -28,46zm-32 38c0,38 49,25 50,6 -4,1 -26,10 -26,-10 0,-11 5,-15 11,-21 12,-12 43,-44 43,-59 0,-22 -40,-21 -60,22 -9,18 -18,36 -18,62zm78 26c49,0 55,-19 65,-21 9,38 41,15 41,0 -8,0 -6,1 -13,3 -5,-8 -6,-11 -10,-20 8,-4 12,-9 19,-15 2,-2 7,-8 8,-10 3,-5 2,-7 -1,-12 -12,1 -21,18 -31,24 -2,-10 -4,-35 -25,-20 -5,3 -6,5 -6,12 0,8 3,0 8,11 1,4 3,10 4,14 -8,5 -18,14 -28,16 -10,1 -30,2 -31,-12 13,-1 39,-16 39,-29 0,-24 -44,-23 -61,15 -12,27 -1,44 22,44z"/>
  <path class="fil1" d="M451 315c0,1 0,3 -1,5 -14,49 -18,57 1,58l0 -63z"/>
  <path class="fil0" d="M136 347c-1,3 -2,11 5,8 3,-2 3,-1 1,-5 -2,-4 2,-3 -6,-3zm-11 46c0,6 22,24 37,-22 4,-12 9,-30 14,-40 10,0 11,0 18,-3 20,-7 14,-9 13,-18 -12,0 -20,-5 -23,8l8 2c-24,0 -7,-6 -5,-14 -6,-9 -10,-9 -16,0 1,6 2,6 6,10 -5,2 -1,-2 -5,5 -4,-3 2,-2 -1,-6 -4,-7 -15,-4 -15,5 0,7 0,0 2,4 2,3 3,-1 1,2 -3,1 2,1 -2,-1 -3,-2 2,-4 -5,-2 -8,4 2,0 -1,8 -6,-4 0,-3 -6,-5 -6,-3 -3,0 -9,0 0,3 -5,13 7,13 5,0 5,-2 5,-6 5,4 1,3 7,11 -6,-2 -11,-10 -14,2 4,4 0,3 9,3 -2,3 -2,2 -4,4 -9,8 -21,38 -21,40zm26 -47l1 0c0,0 -1,0 -1,0zm12 -20c1,-2 6,3 1,1 0,0 -4,2 -1,-1z"/>
  <path class="fil0" d="M396 372c0,15 31,5 33,-12 -9,1 -2,2 -10,3 0,-4 6,-18 8,-23 7,-18 12,-32 -3,-32 -15,0 -16,15 -20,26 -3,11 -8,24 -8,38z"/>
  <path class="fil0" d="M194 259c-6,3 -8,3 -9,11 32,22 66,-16 48,-16 -16,0 -30,-2 -36,3 0,0 0,0 0,0 0,0 1,-3 0,-9 -7,0 -12,0 -12,6 0,10 7,2 9,5zm-15 -6c-4,0 -5,0 -8,1 -4,17 5,15 16,8 -1,-2 -5,-9 -8,-9z"/>
  <path class="fil2" d="M419 282c0,15 23,17 27,-3 3,-16 -27,-17 -27,3z"/>
  <path class="fil0" d="M146 267c0,12 0,13 12,13 2,-3 3,-4 5,-8 -5,-9 -8,-10 -17,-5z"/>
  <path class="fil0" d="M71 282c0,4 1,4 2,8l11 2c6,-11 3,-11 3,-11l-2 -2c-8,-5 -14,1 -14,3z"/>
  <path class="fil0" d="M122 311c0,9 5,9 11,9 4,-8 5,-7 0,-15 -4,0 -11,-1 -11,6z"/>
  <path class="fil0" d="M161 288c0,11 15,10 15,2 0,-12 -15,-7 -15,-2z"/>
  <path class="fil0" d="M97 334c0,4 7,6 10,7l3 -3c9,-13 -13,-17 -13,-4z"/>
  <path class="fil0" d="M76 359c0,9 0,6 3,11l7 0c4,-5 3,-2 3,-11l-6 -4 -7 4z"/>
  <path class="fil0" d="M104 290l0 5c3,2 4,2 8,3l3 -2c4,-7 1,-8 -1,-12l-7 0c-2,2 -3,2 -3,6z"/>
  <path class="fil0" d="M114 417l0 5c3,2 13,8 13,-5 0,-7 -13,-7 -13,0z"/>
  <path class="fil0" d="M146 303c0,8 4,8 10,8l4 -6 -4 -7c-6,0 -10,-1 -10,5z"/>
  <path class="fil0" d="M102 382c0,10 0,9 10,9 6,-10 4,-9 -3,-13l-7 4z"/>
  <path class="fil0" d="M57 324c0,6 3,5 9,5 2,-3 3,-4 4,-8 -5,-3 -2,-3 -10,-3 -2,3 -3,3 -3,6z"/>
  <path class="fil0" d="M109 261c0,12 26,-3 5,-8l-5 8z"/>
  <path class="fil0" d="M135 251c0,6 11,11 11,0 0,-9 -11,-4 -11,0z"/>
  <path class="fil0" d="M110 360c1,0 1,1 1,1 0,1 1,2 2,2 3,3 -2,2 4,2 11,0 3,-23 -7,-5z"/>
  <path class="fil0" d="M117 231c0,8 7,6 11,5l0 -8c-3,-1 -11,-2 -11,3z"/>
  <path class="fil0" d="M182 287c0,14 23,-5 5,-5 -4,0 -5,1 -5,5z"/>
  <path class="fil0" d="M135 293c0,4 1,5 5,5 6,0 5,-4 5,-10 -5,-1 -10,-2 -10,5z"/>
  <path class="fil0" d="M122 279c20,13 10,-21 0,0z"/>
  <path class="fil0" d="M35 359c0,5 3,4 8,4 1,-2 5,-9 -3,-9 -3,0 -5,1 -5,5z"/>
  <path class="fil0" d="M158 246c0,4 1,4 3,7 4,-3 12,-5 2,-12 -2,1 -5,3 -5,5z"/>
  <path class="fil0" d="M76 246l0 3c9,5 10,0 10,-6 -3,-1 -10,-2 -10,3z"/>
  <path class="fil0" d="M84 429c0,4 3,5 5,6 14,-9 -5,-13 -5,-6z"/>
  <path class="fil0" d="M48 378c3,6 0,3 5,7 3,-1 2,-1 5,-2l0 -8c-5,0 -7,1 -10,3z"/>
  <path class="fil0" d="M75 391l0 4c6,3 9,2 9,-5 -5,-3 -9,-2 -9,1z"/>
  <path class="fil0" d="M88 411c0,6 -1,0 1,5 9,-3 10,-10 0,-10 -1,2 -1,2 -1,5z"/>
  <path class="fil0" d="M169 235c2,8 10,9 10,0 -4,-3 -8,-2 -10,0z"/>
  <path class="fil0" d="M148 225l0 3c4,2 2,1 8,2l0 -9c-4,1 -8,0 -8,4z"/>
  <path class="fil0" d="M78 315c0,2 1,5 3,5l3 0c6,-13 -6,-10 -6,-5z"/>
  <path class="fil0" d="M61 264c5,-3 4,-1 5,-7 -2,-1 -1,-1 -5,-1 -8,0 -3,6 0,8z"/>
  <path class="fil0" d="M48 290c3,-4 2,-2 2,-8 -4,0 -7,-1 -7,4 -1,3 1,4 5,4z"/>
  <path class="fil0" d="M61 427c0,0 3,2 4,2 6,0 4,-4 3,-8 -5,1 -5,1 -7,6z"/>
  <path class="fil0" d="M99 437c4,5 -1,3 7,3 -1,-7 1,-3 -4,-6l-3 3z"/>
  <path class="fil0" d="M181 244c-1,3 -3,8 2,6 3,-1 2,-1 2,-3 -3,-5 0,-1 -4,-3z"/>
  <path class="fil2" d="M450 320c-18,64 -19,58 26,58 12,0 20,-3 29,-7 30,-12 55,-73 29,-100 -16,-18 -35,-14 -64,-14 -7,0 -11,12 -9,17 2,6 14,6 21,6 9,0 20,-1 26,3 5,3 10,11 10,19 0,19 -8,44 -27,52 -8,3 -14,3 -25,3 1,-6 6,-22 8,-28 3,-11 7,-25 7,-36 -29,0 -22,-6 -31,27z"/>
  <path class="fil2" d="M569 264c-8,11 -26,74 -26,91 0,9 -1,15 9,21 17,9 49,3 62,-15 1,-1 3,-2 4,-3 1,-1 3,-3 3,-3 -1,0 0,0 0,0 0,-1 2,-4 4,-13 0,-2 0,-3 0,-3 0,-1 0,-2 -1,-8 -4,-30 -31,-30 -45,-23 3,-12 14,-40 14,-46 0,-11 -20,-4 -24,2zm11 96c-9,0 -15,2 -10,-20 4,-19 3,-20 14,-20 24,0 18,40 -4,40z"/>
 </g>
</svg>
