<?xml version="1.0" encoding="UTF-8"?>
<!DOCTYPE svg PUBLIC "-//W3C//DTD SVG 1.1//EN" "http://www.w3.org/Graphics/SVG/1.1/DTD/svg11.dtd">
<!-- Creator: CorelDRAW X7 -->
<svg xmlns="http://www.w3.org/2000/svg" xml:space="preserve" width="5in" height="5in" version="1.1" style="shape-rendering:geometricPrecision; text-rendering:geometricPrecision; image-rendering:optimizeQuality; fill-rule:evenodd; clip-rule:evenodd"
viewBox="0 0 5000 5000"
 xmlns:xlink="http://www.w3.org/1999/xlink">
 <defs>
  <style type="text/css">
   <![CDATA[
    .fil0 {fill:#333333}
    .fil1 {fill:#466543}
   ]]>
  </style>
 </defs>
 <g id="Layer_x0020_1">
  <metadata id="CorelCorpID_0Corel-Layer"/>
  <g id="_713528733664">
   <path class="fil0" d="M2058 2349c14,-62 44,-119 115,-125 0,53 -3,56 -34,81 -32,26 -46,27 -81,44zm-302 -125l3 3c0,0 -4,-2 -3,-3zm11 -10c17,-74 84,-284 177,-292 -2,84 -125,257 -177,292zm-208 239c0,246 312,162 322,42 -26,2 -166,63 -166,-63 0,-74 31,-100 70,-138 76,-74 273,-278 273,-372 0,-144 -253,-139 -383,138 -55,116 -116,226 -116,393zm499 166c313,0 352,-118 416,-135 58,247 258,97 260,0 -54,1 -39,11 -83,21 -32,-49 -37,-72 -62,-125 49,-26 74,-60 120,-98 12,-10 46,-49 53,-62 19,-32 8,-48 -7,-79 -79,7 -138,116 -198,156 -15,-68 -30,-225 -161,-130 -32,23 -36,34 -36,78 0,51 17,-2 46,68 11,26 24,62 27,88 -52,34 -114,89 -180,102 -61,12 -188,18 -195,-71 85,-7 250,-102 250,-187 0,-155 -284,-145 -392,97 -76,167 -7,277 142,277z"/>
   <path class="fil0" d="M3546 2120c0,124 -57,281 -177,333 -46,21 -88,21 -156,21 3,-39 35,-139 48,-181 22,-68 46,-158 46,-225 -182,0 -139,-38 -197,168 -115,409 -122,373 165,373 78,0 130,-19 186,-43 192,-81 347,-468 186,-641 -105,-114 -227,-86 -413,-86 -40,0 -70,76 -57,108 16,39 94,38 139,38 58,1 122,-8 163,15 35,19 67,71 67,120z"/>
   <path class="fil0" d="M3941 2495c-62,0 -97,9 -68,-131 25,-121 22,-129 89,-129 157,0 115,260 -21,260zm-239 -32c0,58 -5,96 58,129 107,58 312,22 395,-92 92,-125 251,15 254,-130 -211,0 -180,13 -189,-60 -24,-194 -197,-192 -289,-148 17,-76 93,-256 93,-292 0,-69 -129,-28 -156,11 -48,68 -166,469 -166,582z"/>
   <path class="fil0" d="M1111 2411c-9,19 -17,69 26,47 23,-10 22,-5 10,-28 -15,-27 13,-17 -36,-19zm-72 292c0,39 136,151 235,-139 27,-79 56,-191 87,-257 63,0 69,2 119,-16 127,-45 84,-61 79,-119 -75,0 -124,-30 -146,52l52 11c-153,0 -45,-33 -31,-84 -39,-57 -66,-57 -104,0 9,39 14,39 41,63 -34,12 -7,-14 -31,31 -29,-21 8,-13 -10,-42 -25,-42 -94,-24 -94,32 0,45 1,1 14,26 13,24 15,-7 7,15 -24,8 10,4 -16,-8 -16,-8 13,-24 -30,-8 -50,20 14,-1 -6,47 -38,-27 -3,-17 -40,-32 -39,-17 -19,1 -54,1 -4,17 -36,83 42,83 31,0 29,-12 31,-41 35,26 7,20 42,73 -37,-10 -65,-61 -83,10 22,30 -2,20 52,21 -13,18 -8,12 -24,28 -55,52 -132,240 -132,253zm166 -302l3 3c0,0 -4,-2 -3,-3zm73 -125c11,-11 39,17 11,6 0,-1 -29,12 -11,-6z"/>
   <path class="fil0" d="M2766 2567c0,101 199,37 208,-72 -54,4 -14,8 -63,20 3,-29 37,-117 49,-148 47,-118 82,-205 -18,-205 -93,0 -102,97 -123,167 -22,71 -53,151 -53,238z"/>
   <path class="fil0" d="M1475 1850c-37,19 -47,19 -52,72 204,137 418,-104 302,-104 -100,0 -187,-15 -229,21 0,-1 0,-5 0,-4 1,0 10,-18 0,-58 -42,0 -73,1 -73,41 0,60 43,12 52,32zm-93 -42c-28,0 -29,5 -52,10 -26,108 36,98 104,52 -9,-13 -36,-62 -52,-62z"/>
   <path class="fil0" d="M2911 1995c0,94 149,109 172,-16 20,-106 -172,-108 -172,16z"/>
   <path class="fil0" d="M2994 2869c0,-41 31,-41 73,-41 30,125 -73,87 -73,41zm-41 0c0,101 166,112 166,0 0,-119 -166,-100 -166,0z"/>
   <path class="fil0" d="M3234 2828l52 0 0 31 -52 0 0 -31zm-32 114l32 0 0 -52c77,21 0,50 93,52 -48,-92 0,-35 0,-104 0,-25 -17,-31 -31,-52l-94 0 0 156z"/>
   <path class="fil0" d="M3639 2848c23,16 13,2 21,32l-21 0 0 -32zm-72 94c73,-2 29,-34 98,-24 39,5 8,20 58,24 -6,-63 -39,-100 -52,-156l-42 0c-12,51 -49,98 -62,156z"/>
   <path class="fil0" d="M2808 2870l-1 -42c41,3 32,-7 42,31l-41 11zm-42 -53l0 125 41 0 0 -42c41,0 42,-3 73,-10l5 -68c-2,5 -15,-36 -88,-36 -24,0 -31,7 -31,31z"/>
   <path class="fil0" d="M3390 2796c11,42 3,30 52,32 0,119 -9,102 21,124 30,-20 20,-3 20,-124l42 0 0 -42c-28,0 -122,-6 -135,10z"/>
   <path class="fil0" d="M1174 1902c0,74 -2,83 73,83 13,-21 19,-29 31,-52 -30,-56 -48,-65 -104,-31z"/>
   <path class="fil0" d="M695 1995c0,28 5,29 11,52l72 11c35,-66 17,-69 16,-68l-10 -11c-53,-37 -89,2 -89,16z"/>
   <path class="fil0" d="M3795 2869c-14,31 -10,29 -10,73l115 0 0 -31 -63 -3c-16,-20 -10,-78 -12,-113l-30 -3 0 77z"/>
   <path class="fil0" d="M1018 2183c0,56 31,52 73,52 26,-51 27,-41 0,-94 -28,0 -73,-6 -73,42z"/>
   <path class="fil0" d="M1267 2037c0,65 94,63 94,10 0,-80 -94,-48 -94,-10z"/>
   <path class="fil0" d="M862 2328c0,22 41,37 62,42l16 -16c61,-86 -78,-110 -78,-26z"/>
   <path class="fil0" d="M727 2485c-1,60 -3,38 20,72l42 0c23,-34 21,-12 21,-73l-42 -21 -41 22z"/>
   <path class="fil0" d="M903 2047l0 31c22,12 25,15 52,21l16 -15c31,-44 12,-52 -5,-78l-42 0c-12,18 -21,18 -21,41z"/>
   <path class="fil0" d="M966 2859l0 31c22,12 83,51 83,-31 0,-45 -83,-45 -83,0z"/>
   <path class="fil0" d="M1174 2130c0,51 23,53 62,53l22 -42 -22 -41c-41,-1 -62,-6 -62,30z"/>
   <path class="fil0" d="M893 2630c0,66 -4,62 62,62 37,-68 23,-60 -21,-83l-41 21z"/>
   <path class="fil0" d="M602 2266c0,37 20,31 62,31 11,-22 14,-25 21,-52 -30,-20 -12,-21 -63,-21 -12,19 -20,18 -20,42z"/>
   <path class="fil0" d="M934 1860c0,76 169,-20 32,-52l-32 52z"/>
   <path class="fil0" d="M1101 1798c0,40 73,73 73,0 0,-58 -73,-26 -73,0z"/>
   <path class="fil0" d="M945 2495c2,1 4,2 4,6 1,4 8,9 10,11 23,18 -13,14 28,14 69,0 16,-148 -42,-31z"/>
   <path class="fil0" d="M987 1673c0,47 44,38 72,31l0 -52c-21,-5 -72,-13 -72,21z"/>
   <path class="fil0" d="M1403 2026c0,89 146,-31 31,-31 -24,0 -31,7 -31,31z"/>
   <path class="fil0" d="M1101 2068c0,24 7,31 31,31 38,0 31,-26 31,-62 -30,-7 -62,-15 -62,31z"/>
   <path class="fil0" d="M1018 1974c126,85 66,-134 0,0z"/>
   <path class="fil0" d="M466 2484c0,35 19,31 52,31 5,-18 31,-62 -20,-62 -24,0 -32,7 -32,31z"/>
   <path class="fil0" d="M1247 1766c0,24 8,23 20,42 28,-15 77,-29 11,-73 -10,7 -31,17 -31,31z"/>
   <path class="fil0" d="M726 1766l0 21c59,33 62,-4 63,-41 -19,-4 -63,-11 -63,20z"/>
   <path class="fil0" d="M778 2932c0,27 15,30 32,41 89,-59 -32,-83 -32,-41z"/>
   <path class="fil0" d="M550 2609c18,35 0,19 31,42 14,-8 11,-6 31,-11l0 -52c-35,1 -45,4 -62,21z"/>
   <path class="fil0" d="M716 2692l0 21c40,22 62,15 62,-31 -36,-20 -62,-8 -62,10z"/>
   <path class="fil0" d="M799 2817c0,40 -3,4 11,31 56,-15 60,-62 0,-62 -7,13 -11,11 -11,31z"/>
   <path class="fil0" d="M1319 1694c15,56 63,60 63,0 -26,-15 -52,-13 -63,0z"/>
   <path class="fil0" d="M1184 1631l0 21c28,13 11,9 52,10l0 -52c-23,1 -52,-3 -52,21z"/>
   <path class="fil0" d="M737 2203c0,17 6,32 21,32l20 0c39,-80 -41,-64 -41,-32z"/>
   <path class="fil0" d="M633 1881c27,-18 21,-5 31,-42 -13,-7 -11,-10 -31,-10 -53,0 -21,37 0,52z"/>
   <path class="fil0" d="M550 2047c13,-27 9,-11 10,-52 -28,1 -44,-3 -48,23 -3,22 11,26 38,29z"/>
   <path class="fil0" d="M3795 2869l0 -77 30 3c2,35 -4,93 12,113 0,-19 1,-41 1,-60 0,-5 -1,-26 -2,-30 -5,-25 2,-7 -11,-23 -3,-1 13,-16 -19,-8 -13,3 -26,5 -22,51 4,51 0,17 11,31z"/>
   <path class="fil0" d="M633 2921c0,0 19,11 21,11 42,0 27,-26 20,-52 -34,9 -33,5 -41,41z"/>
   <path class="fil0" d="M870 2981c25,35 -5,19 44,23 -4,-48 11,-18 -21,-41l-23 18z"/>
   <path class="fil0" d="M1392 1756c-6,14 -17,50 17,38 16,-6 14,-9 9,-21 -14,-32 2,-7 -26,-17z"/>
  </g>
  <path class="fil1" d="M3110 2236c-115,409 -122,373 165,373 78,0 130,-19 186,-43 192,-81 347,-468 186,-641 -105,-114 -227,-86 -413,-86 -40,0 -70,76 -57,108 16,39 94,38 139,38 58,1 122,-8 163,15 35,19 67,71 67,120 0,124 -57,281 -177,333 -46,21 -88,21 -156,21 3,-39 35,-139 48,-181 22,-68 46,-158 46,-225 -182,0 -139,-38 -197,168z"/>
  <path class="fil1" d="M3868 1881c-48,68 -166,469 -166,582 0,58 -5,96 58,129 107,58 312,22 395,-92 92,-125 251,15 254,-130 -211,0 -180,13 -189,-60 -24,-194 -197,-192 -289,-148 17,-76 93,-256 93,-292 0,-69 -129,-28 -156,11zm73 614c-62,0 -97,9 -68,-131 25,-121 22,-129 89,-129 157,0 115,260 -21,260z"/>
  <path class="fil1" d="M2885 2822c-2,5 -15,-36 -88,-36 -24,0 -31,7 -31,31l0 125 41 0 0 -42c41,0 42,-3 73,-10l5 -68zm-78 6c41,3 32,-7 42,31l-41 11 -1 -42z"/>
  <path class="fil1" d="M3067 2828c30,125 -73,87 -73,41 0,-41 31,-41 73,-41zm52 41c0,-119 -166,-100 -166,0 0,101 166,112 166,0z"/>
  <path class="fil1" d="M3202 2786l0 156 32 0 0 -52c77,21 0,50 93,52 -48,-92 0,-35 0,-104 0,-25 -17,-31 -31,-52l-94 0zm84 73l-52 0 0 -31 52 0 0 31z"/>
  <path class="fil1" d="M3442 2828c0,119 -9,102 21,124 30,-20 20,-3 20,-124l42 0 0 -42c-28,0 -122,-6 -135,10 11,42 3,30 52,32z"/>
  <path class="fil1" d="M3629 2786c-12,51 -49,98 -62,156 73,-2 29,-34 98,-24 39,5 8,20 58,24 -6,-63 -39,-100 -52,-156l-42 0zm10 94l0 -32c23,16 13,2 21,32l-21 0z"/>
  <path class="fil1" d="M3795 2869c-14,31 -10,29 -10,73l115 0 0 -31 -63 -3c-16,-20 -10,-78 -12,-113l-30 -3 0 77z"/>
 </g>
</svg>
