<?xml version="1.0" encoding="UTF-8"?>
<!DOCTYPE svg PUBLIC "-//W3C//DTD SVG 1.1//EN" "http://www.w3.org/Graphics/SVG/1.1/DTD/svg11.dtd">
<!-- Creator: CorelDRAW X7 -->
<svg xmlns="http://www.w3.org/2000/svg" xml:space="preserve" width="0.59976in" height="0.400618in" version="1.1" style="shape-rendering:geometricPrecision; text-rendering:geometricPrecision; image-rendering:optimizeQuality; fill-rule:evenodd; clip-rule:evenodd"
viewBox="0 0 600 401"
 xmlns:xlink="http://www.w3.org/1999/xlink">
 <defs>
  <style type="text/css">
   <![CDATA[
    .fil0 {fill:black}
   ]]>
  </style>
 </defs>
 <g id="Layer_x0020_1">
  <metadata id="CorelCorpID_0Corel-Layer"/>
  <path class="fil0" d="M23 358l0 -319 234 175c16,12 22,18 45,18 18,0 30,-10 40,-18l234 -175 0 319c-5,-3 -32,-39 -36,-44l-92 -112c-10,-12 -22,-3 -22,7 0,6 19,26 24,32l101 125c3,4 7,8 9,11l-520 0 117 -145c8,-9 27,-27 9,-35 -6,-2 -10,0 -13,4 -3,2 -3,2 -5,5l-87 108c-4,4 -6,7 -9,11 -4,4 -6,7 -10,11 -4,5 -14,20 -19,22zm20 -335l513 0c-10,10 -51,39 -62,48 -22,16 -42,31 -63,47l-111 83c-23,18 -38,1 -56,-12l-94 -71c-39,-29 -85,-62 -123,-91 -1,-2 -2,-3 -4,-4zm-43 5l0 345c0,14 15,28 29,28l541 0c15,0 30,-15 30,-28l0 -345c0,-14 -15,-28 -30,-28l-541 0c-14,0 -29,14 -29,28z"/>
 </g>
</svg>
