<svg viewBox="0 0 1024 1176.463" xmlns="http://www.w3.org/2000/svg"><path d="m870.817 244.517c-1.122-.13-2.423-.203-3.74-.203-16.54 0-30.363 11.636-33.728 27.168l-.042.227c4.995 4.27 11.53 6.867 18.673 6.867 15.916 0 28.818-12.902 28.818-28.817 0-1.74-.154-3.443-.45-5.097l.027.174c-2.32-.216-5.02-.34-7.747-.34-.65 0-1.3.008-1.946.022l.096-.003zm82.536-11.757c-.72.2-1.68 1.2-2.84 3.28-8.386 13.562-13.356 30.008-13.356 47.613v.392-.02c.08 6.518 3.2 3.6 3.24-.6.115-17.275 5.087-33.365 13.615-47.003l-.22.377c1.04-2.52.72-4.4-.44-4zm-4.28-3.64c-.68.16-1.758 1.04-3.078 3.04-10.7 14.508-18.085 32.093-20.69 51.2l-.064.584c-.52 6.478 2.92 3.878 3.32-.32 2.706-19.22 10.026-36.353 20.8-50.752l-.206.287c1.28-2.4 1.12-4.28-.08-4zm-3.918-4.8c-.68.08-1.84.88-3.36 2.76-13.832 14.99-24.386 33.224-30.385 53.42l-.246.963c-1.08 6.4 2.56 4.12 3.28-.04 6.21-20.703 16.724-38.506 30.567-53.124l-.055.06c1.48-2.32 1.44-4.2.24-4.04zm-3.2-5.318c-1.497.346-2.772 1.14-3.71 2.23l-.01.01c-16.338 16.206-29.57 35.514-38.743 56.973l-.445 1.17c-2 6.2 1.92 4.4 3.28.4 9.702-22.068 22.785-40.903 38.813-56.768l.015-.015c1.8-2.077 2.04-3.957.8-3.997zm5.998-7.878c3.6 12.276 9.237 17.915 33.63 20.154-5.335 28.02-22.902 51.097-46.814 63.825l-.493.24c-22.514 13.212-41.433 30.015-56.602 49.838l-.34.466c-23.402 47.155-44.18 102.472-59.38 160.054l-1.404 6.257c-13.794 61.262-46.104 113.494-90.65 151.932l-.36.303c-6-14.396 6.797-22.713 1.198-35.87-10.76 26.572-21.345 48.405-33.14 69.468l1.588-3.085c-30.036 61.418-86.777 105.78-154.675 118.245l-1.32.2c42.71-49.945 70.483-113.808 75.753-183.95l.065-1.073c-15.996 3.48-17.276 46.547-43.108 62.382-2.08.047-4.53.075-6.986.075-19.76 0-39.104-1.774-57.884-5.17l1.968.294c-23.936-4.235-51.495-6.656-79.62-6.656-44.026 0-86.667 5.933-127.167 17.042l3.366-.787c-52.796 26.32-95.882 50.957-137.538 77.63l5.898-3.533c-26.087 12.933-56.807 20.5-89.294 20.5-8.965 0-17.796-.575-26.457-1.693l1.024.108c-6.96-9.357 40.067-21.434 37.428-41.868-21.434-2.32-33.91 2.84-52.544-5.6 2.233-3.898 5.233-7.115 8.817-9.532l.1-.064c34.15-23.594 131.083-5.6 157.036-31.07 13.706-14.25 26.043-30.006 36.68-46.938l.71-1.21c10.792-16.946 23.407-31.494 37.857-43.974l.252-.212c6.158-4.998 15.756-13.636 22.833-18.515 27.304-18.036 58.71-33.392 92.06-44.49l2.833-.818c46.948-16.512 94.414-22.074 144.48-41.188 33.438-11.166 62.472-25.915 88.823-44.25l-1.128.743c8.127-6.177 15.295-12.267 22.12-18.714l-.127.12c88.774-87.655 94.413-207.02 216.538-219.537 14.796-1.52 26.872-1.04 37.91-1.36.414.008.903.013 1.393.013 12.7 0 24.645-3.235 35.057-8.925l-.382.19zm22.912-17.792c-14.756.52-10.477 7.158-42.388 15.036-39.217 3.174-75.286 9.422-110.163 18.61l4.353-.976c-90.654 37.99-105.33 184.907-213.34 241.728-59.492 28.634-128.84 52.547-201.25 68.24l-6.286 1.142c-46.877 15.79-87.426 38.694-122.644 67.817l.64-.515c-29.472 25.393-36.672 50.065-67.46 81.976-31.27 42.47-149.717 4.72-180.19 57.985 10.274 7.38 23.104 11.803 36.967 11.803 5.91 0 11.635-.804 17.067-2.31l-.448.107c-5.838 11.037-42.944 25.592-36.23 41.908 11.747 1.853 25.292 2.91 39.084 2.91 46.326 0 89.863-11.94 127.7-32.91l-1.35.69c35.407-22.496 76.47-40.373 120.252-51.405l2.91-.62c.854-.003 1.864-.004 2.875-.004 82.767 0 163.684 7.918 242.036 23.04l-7.98-1.283c-18.233 32.468-36.635 60.158-56.843 86.385l1.22-1.648c-6.08 6.518 5.2 12.276 25.992 8.358 34.687-7.226 65.38-20.408 92.475-38.545l-.942.593c30.763-23.26 57.125-50.155 79.1-80.442l.757-1.093c25.753 41.268 116.527 50.386 135.16 14.676-34.668-14.676-42.067-91.053-30.19-124.004 12.472-31.606 24.638-70.712 34.176-110.836l1.254-6.25c10.24-37.19 16.515-93.934 28.712-122.965 14.596-36.11 42.908-47.387 64.18-66.542 25.315-16.486 41.817-44.652 41.817-76.673 0-.796-.01-1.59-.032-2.382l.002.117c-.24-14.24-7.597-22.117-20.994-21.718z"/></svg>