<?xml version="1.0" encoding="UTF-8"?>
<!DOCTYPE svg PUBLIC "-//W3C//DTD SVG 1.1//EN" "http://www.w3.org/Graphics/SVG/1.1/DTD/svg11.dtd">
<!-- Creator: CorelDRAW X7 -->
<svg xmlns="http://www.w3.org/2000/svg" xml:space="preserve" width="0.666661in" height="0.666661in" version="1.1" style="shape-rendering:geometricPrecision; text-rendering:geometricPrecision; image-rendering:optimizeQuality; fill-rule:evenodd; clip-rule:evenodd"
viewBox="0 0 667 667"
 xmlns:xlink="http://www.w3.org/1999/xlink">
 <defs>
  <style type="text/css">
   <![CDATA[
    .fil0 {fill:black}
   ]]>
  </style>
 </defs>
 <g id="Layer_x0020_1">
  <metadata id="CorelCorpID_0Corel-Layer"/>
  <g id="_904641986096">
   <path class="fil0" d="M151 494l0 -194c0,-11 10,-15 18,-22 8,-6 15,-11 23,-18l34 -26c5,-3 8,-6 12,-9l69 -53c33,-25 23,-22 75,17l115 89c9,7 19,11 19,22l0 194c0,12 -7,18 -18,18l-329 0c-12,0 -18,-6 -18,-18zm-30 -199l0 205c0,21 21,42 41,42l342 0c6,0 13,-2 17,-4 14,-7 25,-23 25,-38l0 -205c0,-12 -9,-25 -16,-31l-156 -120c-12,-9 -22,-19 -41,-19 -15,0 -24,6 -33,13l-163 125c-7,6 -16,20 -16,32z"/>
   <path class="fil0" d="M197 321c0,10 3,12 13,17l103 65c24,15 19,15 58,-10 6,-4 11,-7 17,-11l34 -21c6,-4 12,-8 18,-11 6,-4 11,-8 17,-11 9,-5 13,-8 13,-18 0,-9 -7,-14 -16,-14 -6,0 -26,13 -31,17l-74 47c-3,1 -13,8 -15,8 -3,0 -88,-55 -104,-64 -7,-5 -10,-8 -19,-8 -8,0 -14,6 -14,14z"/>
  </g>
 </g>
</svg>
