<?xml version="1.0" encoding="UTF-8"?>
<!DOCTYPE svg PUBLIC "-//W3C//DTD SVG 1.1//EN" "http://www.w3.org/Graphics/SVG/1.1/DTD/svg11.dtd">
<!-- Creator: CorelDRAW X7 -->
<svg xmlns="http://www.w3.org/2000/svg" xml:space="preserve" width="0.632591in" height="0.658307in" version="1.1" style="shape-rendering:geometricPrecision; text-rendering:geometricPrecision; image-rendering:optimizeQuality; fill-rule:evenodd; clip-rule:evenodd"
viewBox="0 0 633 658"
 xmlns:xlink="http://www.w3.org/1999/xlink">
 <defs>
  <style type="text/css">
   <![CDATA[
    .fil0 {fill:black}
   ]]>
  </style>
 </defs>
 <g id="Layer_x0020_1">
  <metadata id="CorelCorpID_0Corel-Layer"/>
  <g id="_782212833152">
   <path class="fil0" d="M351 370l252 0 0 257c-14,0 -188,-26 -220,-29 -10,-1 -20,-4 -32,-4l0 -224zm267 288l-6 0c-6,0 -12,-1 -16,-2l-57 -8c-65,-7 -131,-18 -195,-26 -13,-1 -23,-3 -23,-22l0 -237c0,-12 3,-22 15,-22l280 0c9,0 17,5 17,14l0 290c0,10 -7,13 -15,13z"/>
   <path class="fil0" d="M351 64l252 -33 0 252 -252 0 0 -219zm256 -64l12 0c8,1 14,5 14,15l0 282c0,8 -5,15 -13,15l-284 0c-12,0 -15,-10 -15,-21l0 -232c0,-18 6,-21 22,-23 13,-1 26,-3 39,-5l196 -26c10,-2 20,-4 29,-5z"/>
   <path class="fil0" d="M31 370l121 0c39,0 75,-1 114,-1l0 213c-7,0 -22,-2 -29,-3l-206 -26 0 -183zm-30 -15l0 209c0,15 11,16 24,18l183 23c11,1 25,3 36,4 28,4 52,13 52,-15l0 -234c0,-9 -4,-19 -12,-19l-266 0c-9,0 -17,5 -17,14z"/>
   <path class="fil0" d="M30 105l117 -14c12,-2 108,-15 119,-15l0 207 -236 0 0 -178zm-30 -14l0 206c0,8 5,15 13,15l269 0c10,0 14,-8 14,-19l0 -227c0,-8 -1,-14 -5,-18 -5,-4 -11,-5 -18,-3l-242 31c-13,1 -31,1 -31,15z"/>
  </g>
 </g>
</svg>
