<?xml version="1.0" encoding="UTF-8"?>
<!DOCTYPE svg PUBLIC "-//W3C//DTD SVG 1.1//EN" "http://www.w3.org/Graphics/SVG/1.1/DTD/svg11.dtd">
<!-- Creator: CorelDRAW X7 -->
<svg xmlns="http://www.w3.org/2000/svg" xml:space="preserve" width="0.499992in" height="0.499992in" version="1.1" style="shape-rendering:geometricPrecision; text-rendering:geometricPrecision; image-rendering:optimizeQuality; fill-rule:evenodd; clip-rule:evenodd"
viewBox="0 0 500 500"
 xmlns:xlink="http://www.w3.org/1999/xlink">
 <defs>
  <style type="text/css">
   <![CDATA[
    .fil0 {fill:black}
   ]]>
  </style>
 </defs>
 <g id="Layer_x0020_1">
  <metadata id="CorelCorpID_0Corel-Layer"/>
  <path class="fil0" d="M204 106c0,-53 71,-63 89,-19 27,70 -89,91 -89,19zm-44 -7c0,34 8,50 28,70 27,26 63,34 98,19 83,-35 70,-172 -42,-172 -42,0 -84,42 -84,83z"/>
  <path class="fil0" d="M81 395c0,-31 -1,-58 19,-85 9,-12 32,-25 51,-25 14,0 70,50 150,20 7,-2 43,-20 44,-20 69,0 73,63 73,110 0,18 -34,27 -53,27l-230 0c-20,0 -54,-9 -54,-27zm52 -166l17 0c37,3 66,26 88,26 77,0 66,-26 107,-26 38,0 69,13 91,35 41,43 57,139 21,177 -18,20 -46,38 -82,38l-250 0c-72,0 -114,-52 -99,-136 6,-32 20,-63 39,-80 25,-23 47,-32 68,-34z"/>
 </g>
</svg>
