<?xml version="1.0" encoding="UTF-8"?>
<!DOCTYPE svg PUBLIC "-//W3C//DTD SVG 1.1//EN" "http://www.w3.org/Graphics/SVG/1.1/DTD/svg11.dtd">
<!-- Creator: CorelDRAW X7 -->
<svg xmlns="http://www.w3.org/2000/svg" xml:space="preserve" width="0.657622in" height="0.645579in" version="1.1" style="shape-rendering:geometricPrecision; text-rendering:geometricPrecision; image-rendering:optimizeQuality; fill-rule:evenodd; clip-rule:evenodd"
viewBox="0 0 658 646"
 xmlns:xlink="http://www.w3.org/1999/xlink">
 <defs>
  <style type="text/css">
   <![CDATA[
    .fil0 {fill:black}
   ]]>
  </style>
 </defs>
 <g id="Layer_x0020_1">
  <metadata id="CorelCorpID_0Corel-Layer"/>
  <g id="_782207947184">
   <path class="fil0" d="M0 34c0,25 15,41 28,58 4,6 7,10 11,16 11,14 13,17 19,36 6,22 15,48 25,69 2,3 4,5 6,9 17,33 27,22 19,41 -4,10 -5,22 -9,32 -11,40 -8,95 8,131l7 14c19,33 56,42 64,3 2,-7 2,-14 3,-22 1,-7 4,-14 4,-22 6,4 14,29 20,38 6,9 13,16 19,24 3,4 4,5 8,8l31 27c10,8 20,23 32,26 -5,-8 -25,-18 -62,-79 -15,-25 -39,-69 -47,-98 -4,1 -1,0 -4,3 -18,20 -24,37 -28,65 -2,8 -4,21 -4,30 -27,-1 -37,-68 -37,-90 0,-62 19,-77 19,-102 0,-14 -16,-18 -31,-49 -23,-48 -13,-65 -50,-114 -9,-13 -30,-34 -30,-51 0,-6 7,-13 12,-13 13,0 26,6 36,11 11,6 22,10 32,18 4,3 14,13 19,14 26,7 57,-12 143,53 13,9 25,19 36,30 11,11 22,21 32,34l21 28c9,12 16,27 25,40 8,15 16,40 25,57 11,22 19,46 30,67 5,8 7,14 12,22 16,28 27,24 62,36 33,12 52,29 82,49 6,4 15,9 17,16 -30,0 -56,2 -82,12 -19,7 -32,4 -11,34 10,14 22,24 36,33 8,5 14,9 22,14 33,16 37,17 67,38 7,5 13,14 21,16 -2,-7 -5,-14 -10,-19 -12,-12 -23,-25 -35,-37l-24 -19c-15,-10 -45,-22 -50,-40 11,0 35,-8 50,-10 5,0 47,-5 47,-13 0,-3 -21,-26 -25,-29l-30 -25c-8,-5 -14,-10 -22,-16 -23,-15 -46,-27 -72,-38 -16,-6 -18,-16 -25,-30 -14,-31 -28,-55 -42,-88 -7,-17 -13,-35 -22,-51 -5,-8 -10,-15 -15,-22 -3,-4 -4,-7 -7,-11 -10,-14 -20,-29 -33,-41l-16 -17c0,0 0,0 -1,-1l-6 -5c-27,-26 -80,-67 -115,-79 -27,-9 -35,-9 -62,-11 -6,0 -11,-1 -15,-3l-10 -9c-4,-3 -6,-5 -11,-8 -4,-2 -8,-4 -12,-7 -21,-10 -60,-28 -83,-8 -5,5 -12,16 -12,25z"/>
   <path class="fil0" d="M131 113c2,5 10,13 14,18 2,3 10,19 10,23 11,-3 18,-21 6,-34 -12,-13 -18,-8 -30,-7z"/>
  </g>
 </g>
</svg>
