<?xml version="1.0" encoding="UTF-8"?>
<!DOCTYPE svg PUBLIC "-//W3C//DTD SVG 1.1//EN" "http://www.w3.org/Graphics/SVG/1.1/DTD/svg11.dtd">
<!-- Creator: CorelDRAW X7 -->
<svg xmlns="http://www.w3.org/2000/svg" xml:space="preserve" width="0.608657in" height="0.635835in" version="1.1" style="shape-rendering:geometricPrecision; text-rendering:geometricPrecision; image-rendering:optimizeQuality; fill-rule:evenodd; clip-rule:evenodd"
viewBox="0 0 609 636"
 xmlns:xlink="http://www.w3.org/1999/xlink">
 <defs>
  <style type="text/css">
   <![CDATA[
    .fil0 {fill:black}
   ]]>
  </style>
 </defs>
 <g id="Layer_x0020_1">
  <metadata id="CorelCorpID_0Corel-Layer"/>
  <g id="_782207970512">
   <path class="fil0" d="M139 294c19,10 28,17 52,24 22,6 42,9 65,12l36 2c6,0 6,1 12,1 5,0 10,-1 24,-1 17,0 53,-6 68,-9 7,-2 14,-3 20,-5 25,-6 34,-14 53,-24 0,40 6,49 -27,66 -7,4 -13,7 -21,10 -70,23 -217,26 -273,-22 -6,-6 -9,-11 -9,-23 0,-10 0,-20 0,-31zm146 -294l38 0c39,2 77,8 108,19 23,8 67,29 67,59l0 259c0,7 -6,18 -9,23 -51,66 -239,65 -311,37 -22,-9 -43,-16 -59,-38 -3,-4 -8,-15 -8,-22l0 -259c0,-7 5,-18 9,-23 13,-18 36,-29 58,-36 30,-11 68,-17 107,-19zm-146 211c43,29 114,39 165,39 33,0 65,-5 92,-10 26,-5 52,-14 73,-29 0,24 4,41 -7,52 -19,19 -59,30 -86,35 -60,9 -134,8 -191,-13 -14,-5 -28,-12 -38,-21 -12,-12 -8,-27 -8,-53zm0 -82c4,1 11,6 15,8l35 14c76,21 185,23 256,-9l24 -13c0,11 0,21 0,31 1,14 -2,15 -10,22 -9,9 -28,18 -42,22 -26,9 -54,13 -82,16 -5,0 -11,0 -16,0 -7,0 -9,1 -15,1 -6,0 -7,-1 -13,-1 -6,0 -11,0 -17,0 -34,-2 -101,-14 -124,-37 -7,-7 -11,-9 -11,-22 0,-10 0,-21 0,-32zm0 -46c0,-20 45,-37 62,-42 68,-18 183,-19 243,14 62,35 -6,61 -41,71 -63,18 -179,16 -236,-15 -9,-5 -28,-16 -28,-28z"/>
   <path class="fil0" d="M442 538c0,9 2,9 6,15 -39,0 -32,2 -32,-72 0,-13 30,-10 40,-10 15,0 13,16 13,23 0,13 0,25 0,38 -5,-4 -6,-8 -15,-7 -6,1 -12,6 -12,13zm-56 -49c0,37 -6,72 23,88 13,6 47,6 61,2 9,-3 6,2 13,2 10,0 15,-6 15,-16 0,-8 -4,-4 -3,-10 1,-5 3,-6 3,-12l0 -64c0,-5 -2,-10 -4,-14 -3,-6 -4,-7 -8,-11 -16,-16 -32,-12 -60,-12 -7,0 -12,2 -17,5 -16,9 -23,21 -23,42z"/>
   <path class="fil0" d="M0 455l0 114c0,13 22,18 28,3 2,-6 1,-63 1,-72l10 14c11,15 21,16 32,1 3,-3 7,-11 11,-13 0,15 0,31 0,47 0,16 -1,32 15,32 10,0 15,-8 15,-18l0 -102c0,-5 -1,-11 -3,-13 -4,-6 -17,-11 -26,2l-27 37 -28 -36c-5,-8 -6,-9 -16,-9 -6,0 -12,6 -12,13z"/>
   <path class="fil0" d="M248 484c0,8 2,13 5,18 9,14 30,22 48,23l2 -7 0 9c13,0 43,10 18,22 -13,6 -32,4 -41,-5 -6,-6 -2,-17 -18,-17 -26,0 -15,54 42,54 57,0 81,-60 23,-79 -12,-4 -31,-6 -40,-10 -8,-3 -6,-2 -10,-8 9,-16 33,-16 46,-9 12,7 8,24 25,21 27,-5 6,-54 -39,-54 -17,0 -31,1 -44,12 -9,6 -17,15 -17,30z"/>
   <path class="fil0" d="M138 510c0,11 25,52 25,57 1,5 -25,45 -25,55 0,10 7,14 16,14 9,0 13,-11 17,-18l47 -95c11,-22 -7,-29 -16,-25 -6,3 -7,5 -9,10 -3,7 -10,19 -12,25l-2 0c-1,-4 -12,-31 -22,-35 -10,-4 -19,4 -19,12z"/>
   <path class="fil0" d="M525 455l0 114c0,8 8,12 16,12l51 0c24,0 19,-28 4,-28l-42 0 0 -95c0,-23 -29,-19 -29,-3z"/>
  </g>
 </g>
</svg>
