<?xml version="1.0" encoding="UTF-8"?>
<!DOCTYPE svg PUBLIC "-//W3C//DTD SVG 1.1//EN" "http://www.w3.org/Graphics/SVG/1.1/DTD/svg11.dtd">
<!-- Creator: CorelDRAW X7 -->
<svg xmlns="http://www.w3.org/2000/svg" xml:space="preserve" width="0.666661in" height="0.666661in" version="1.1" style="shape-rendering:geometricPrecision; text-rendering:geometricPrecision; image-rendering:optimizeQuality; fill-rule:evenodd; clip-rule:evenodd"
viewBox="0 0 667 667"
 xmlns:xlink="http://www.w3.org/1999/xlink">
 <defs>
  <style type="text/css">
   <![CDATA[
    .fil0 {fill:black}
   ]]>
  </style>
 </defs>
 <g id="Layer_x0020_1">
  <metadata id="CorelCorpID_0Corel-Layer"/>
  <path class="fil0" d="M275 542l117 0c-7,13 -9,19 -21,28 -5,4 -9,7 -16,9 -20,8 -41,4 -58,-8 -13,-9 -15,-15 -22,-29zm59 -459c22,0 49,7 65,14 14,6 26,13 37,22 10,8 17,14 25,24 18,22 23,33 32,58 13,38 8,147 7,192 0,41 17,54 37,83l17 24 -441 0 16 -23c19,-28 38,-44 38,-82 0,-45 -5,-155 7,-192 16,-49 45,-85 93,-106 10,-4 19,-7 31,-10 9,-2 25,-4 36,-4zm-103 459c3,8 3,16 12,32 17,27 49,51 83,51l15 0c34,0 66,-24 82,-51 11,-17 9,-23 14,-32 37,0 75,0 113,0 17,0 29,-4 39,-18 8,-12 11,-31 2,-44l-35 -51c-4,-5 -9,-12 -11,-18 -11,-36 7,-161 -10,-218 -10,-34 -28,-65 -53,-90 -15,-15 -31,-28 -49,-37 -41,-20 -61,-25 -109,-25 -50,0 -103,26 -138,61 -15,15 -27,31 -37,50 -27,55 -24,76 -24,147 0,27 3,92 -3,111 -2,7 -6,13 -10,19l-24 33c-2,3 -3,5 -6,9 -10,15 -19,31 -5,52 9,12 19,19 39,19 38,0 76,0 115,0z"/>
 </g>
</svg>
