<?xml version="1.0" encoding="UTF-8"?>
<!DOCTYPE svg PUBLIC "-//W3C//DTD SVG 1.1//EN" "http://www.w3.org/Graphics/SVG/1.1/DTD/svg11.dtd">
<!-- Creator: CorelDRAW X7 -->
<svg xmlns="http://www.w3.org/2000/svg" xml:space="preserve" width="0.387748in" height="0.0510118in" version="1.1" style="shape-rendering:geometricPrecision; text-rendering:geometricPrecision; image-rendering:optimizeQuality; fill-rule:evenodd; clip-rule:evenodd"
viewBox="0 0 367 48"
 xmlns:xlink="http://www.w3.org/1999/xlink">
 <defs>
  <style type="text/css">
   <![CDATA[
    .fil0 {fill:#373435}
   ]]>
  </style>
 </defs>
 <g id="Layer_x0020_1">
  <metadata id="CorelCorpID_0Corel-Layer"/>
  <path class="fil0" d="M33 40c-8,0 -13,0 -18,-5 -10,-9 -5,-23 7,-26 9,-2 34,-1 40,4 9,7 5,24 -7,26 -5,1 -16,1 -22,1zm23 7c26,-4 26,-46 -6,-46 -7,-1 -24,-1 -30,0 -21,4 -24,25 -16,37 4,5 11,10 20,10 8,0 25,1 32,-1z"/>
  <path class="fil0" d="M80 1l0 47 9 0 0 -39c7,0 14,0 21,0 7,0 14,-1 16,5 5,15 -23,10 -32,11 1,0 2,2 3,3 2,1 3,2 5,3 16,13 13,17 31,17 -2,-4 -4,-4 -8,-8 -3,-2 -7,-5 -9,-7 23,-1 23,-21 14,-29 -8,-6 -38,-3 -50,-3z"/>
  <path class="fil0" d="M152 23c-5,7 -11,17 -15,25 13,0 8,3 21,-18 2,-3 4,-6 6,-9 2,-4 4,-7 6,-10l13 19c-2,2 -1,2 -6,2l-15 0c-2,0 -1,-1 -2,1 5,9 2,7 28,7 8,8 0,8 16,8 -3,-8 -17,-28 -23,-37 -13,-21 -15,-8 -29,12z"/>
  <path class="fil0" d="M199 22c-1,13 7,21 15,24 7,3 29,2 38,2 1,-3 3,-5 4,-8 -10,0 -20,0 -30,0 -9,-1 -16,-5 -17,-13 -4,-23 28,-18 42,-18 2,-4 3,-4 5,-8 -20,0 -54,-7 -57,21z"/>
  <path class="fil0" d="M261 1c-1,7 -1,41 1,46 7,2 35,1 44,1 3,-2 4,-5 6,-8l-42 0c-2,-9 2,-30 -1,-39l-8 0z"/>
  <path class="fil0" d="M311 21c-1,13 6,21 14,25 7,3 26,2 36,2 3,-1 5,-5 6,-8 -17,-1 -43,5 -47,-11l39 -1c1,-2 4,-5 5,-8l-44 0c3,-15 25,-11 40,-11 2,-1 2,-1 4,-4 1,-1 2,-3 2,-4 -21,-1 -52,-6 -55,20z"/>
 </g>
</svg>
