<?xml version="1.0" encoding="UTF-8"?>
<!DOCTYPE svg PUBLIC "-//W3C//DTD SVG 1.1//EN" "http://www.w3.org/Graphics/SVG/1.1/DTD/svg11.dtd">
<!-- Creator: CorelDRAW X7 -->
<svg xmlns="http://www.w3.org/2000/svg" xml:space="preserve" width="0.666661in" height="0.666661in" version="1.1" style="shape-rendering:geometricPrecision; text-rendering:geometricPrecision; image-rendering:optimizeQuality; fill-rule:evenodd; clip-rule:evenodd"
viewBox="0 0 667 667"
 xmlns:xlink="http://www.w3.org/1999/xlink">
 <defs>
  <style type="text/css">
   <![CDATA[
    .fil0 {fill:black}
   ]]>
  </style>
 </defs>
 <g id="Layer_x0020_1">
  <metadata id="CorelCorpID_0Corel-Layer"/>
  <path class="fil0" d="M81 254c-2,3 -4,4 -7,7 -3,4 -3,5 -7,9 -3,3 -3,3 -6,7l-22 25c-23,26 2,53 16,53 27,0 24,-8 39,-23 5,-4 24,-26 25,-30 7,2 9,7 14,11 6,4 8,7 13,12 3,3 4,3 7,6l22 16c-2,8 -7,15 -10,20l-11 20c-10,21 -19,28 -19,47 0,22 32,42 54,16l40 -71c15,8 56,20 74,20l0 64c0,15 16,28 25,28 12,0 18,1 28,-10 4,-4 8,-10 8,-18l0 -64c29,0 60,-17 74,-20l39 72c17,24 75,9 46,-43 -4,-7 -30,-53 -31,-59 1,-3 31,-25 41,-35 4,-4 8,-9 13,-12 4,3 15,17 19,22l14 15c2,3 3,4 6,7 30,27 71,-16 43,-44 -8,-7 -39,-42 -41,-48 11,-17 33,-39 15,-61 -11,-15 -30,-16 -44,-4 -3,2 -23,32 -33,44 -16,18 -31,35 -51,50 -18,15 -39,30 -61,39 -39,17 -86,23 -128,12 -41,-11 -67,-29 -99,-55 -40,-32 -73,-91 -81,-97 -24,-18 -52,4 -48,28 1,10 11,25 17,34l7 10z"/>
 </g>
</svg>
