<?xml version="1.0" encoding="UTF-8"?>
<!DOCTYPE svg PUBLIC "-//W3C//DTD SVG 1.1//EN" "http://www.w3.org/Graphics/SVG/1.1/DTD/svg11.dtd">
<!-- Creator: CorelDRAW X7 -->
<svg xmlns="http://www.w3.org/2000/svg" xml:space="preserve" width="0.666661in" height="0.666661in" version="1.1" style="shape-rendering:geometricPrecision; text-rendering:geometricPrecision; image-rendering:optimizeQuality; fill-rule:evenodd; clip-rule:evenodd"
viewBox="0 0 667 667"
 xmlns:xlink="http://www.w3.org/1999/xlink">
 <defs>
  <style type="text/css">
   <![CDATA[
    .fil0 {fill:black}
   ]]>
  </style>
 </defs>
 <g id="Layer_x0020_1">
  <metadata id="CorelCorpID_0Corel-Layer"/>
  <g id="_810763806272">
   <path class="fil0" d="M71 335c4,-20 43,-65 61,-82l38 -29c64,-41 136,-56 211,-44 42,6 79,22 115,44 23,14 44,34 63,55 10,12 34,43 37,56 -14,20 -12,22 -31,46 -21,26 -42,44 -70,62 -34,23 -93,45 -136,47 -30,2 -42,2 -73,-3 -29,-4 -54,-13 -80,-25l-25 -13c-4,-2 -5,-3 -9,-5 -12,-7 -27,-19 -37,-29 -3,-2 -4,-3 -7,-5l-47 -58c-4,-6 -7,-12 -10,-17zm-64 -4c0,20 23,54 35,71 5,7 10,12 15,19 15,18 32,36 51,50 6,5 12,10 19,15 4,3 6,5 10,7 4,2 7,4 10,6 83,50 179,65 276,41 40,-10 82,-30 116,-53 6,-5 12,-10 19,-14 3,-3 5,-5 9,-8l26 -25c22,-23 67,-80 67,-109 0,-14 -37,-71 -50,-85 -12,-12 -20,-24 -33,-35 -4,-2 -6,-5 -9,-8 -3,-2 -6,-5 -9,-7 -13,-10 -26,-20 -40,-28 -7,-5 -14,-9 -22,-13 -132,-65 -276,-49 -388,40l-35 32c-24,28 -23,25 -45,58 -5,7 -22,36 -22,46z"/>
   <path class="fil0" d="M272 337c0,-26 11,-48 35,-59 16,-8 37,-8 54,0 54,27 43,117 -31,117 -11,0 -24,-5 -32,-11 -7,-5 -9,-8 -15,-15 -5,-8 -11,-21 -11,-32zm-60 -11c0,24 1,38 12,60 7,14 13,22 24,33 11,12 17,16 32,24 33,16 73,16 106,0 13,-6 23,-13 32,-23 12,-11 17,-17 24,-33 24,-47 13,-103 -24,-140 -10,-11 -18,-16 -32,-23 -46,-23 -103,-11 -138,24 -11,10 -17,18 -24,32 -5,12 -12,30 -12,46z"/>
  </g>
 </g>
</svg>
