<?xml version="1.0" encoding="UTF-8"?>
<!DOCTYPE svg PUBLIC "-//W3C//DTD SVG 1.1//EN" "http://www.w3.org/Graphics/SVG/1.1/DTD/svg11.dtd">
<!-- Creator: CorelDRAW X7 -->
<svg xmlns="http://www.w3.org/2000/svg" xml:space="preserve" width="0.666661in" height="0.666661in" version="1.1" style="shape-rendering:geometricPrecision; text-rendering:geometricPrecision; image-rendering:optimizeQuality; fill-rule:evenodd; clip-rule:evenodd"
viewBox="0 0 667 667"
 xmlns:xlink="http://www.w3.org/1999/xlink">
 <defs>
  <style type="text/css">
   <![CDATA[
    .fil1 {fill:#FF6600}
    .fil0 {fill:white}
   ]]>
  </style>
 </defs>
 <g id="Layer_x0020_1">
  <metadata id="CorelCorpID_0Corel-Layer"/>
  <ellipse class="fil0" cx="333" cy="333" rx="295" ry="298"/>
  <g id="_998276671456">
   <path class="fil1" d="M333 267c19,0 39,6 53,17 2,1 4,3 6,5 12,11 17,16 25,32 14,30 8,72 -13,96 -19,21 -40,33 -72,33 -20,0 -45,-9 -58,-21 -5,-5 -3,-2 -8,-9 -7,-9 -5,-4 -13,-16 -18,-31 -14,-76 10,-104l8 -8c9,-7 9,-9 24,-17 9,-4 25,-8 38,-8zm-95 -54l0 17 -51 0c-14,0 -24,6 -31,14 -4,4 -4,3 -7,9 -2,5 -4,9 -4,16l0 0 0 181c0,9 8,22 13,26 9,7 16,11 29,11l293 0c13,0 20,-4 29,-11 5,-4 13,-17 13,-26l0 -181c0,-21 -20,-39 -42,-39l-51 0c0,-16 2,-28 -11,-40 -5,-5 -15,-11 -25,-11l-119 0c-10,0 -20,6 -25,11 -6,6 -11,15 -11,23z"/>
   <path class="fil1" d="M272 358c0,10 2,18 6,26 5,10 4,9 10,16l10 9c18,12 40,14 60,6 8,-3 12,-7 18,-12 2,-2 2,-3 4,-4 1,-2 1,-2 3,-4 13,-17 15,-42 6,-62 -2,-3 -3,-6 -5,-9 -22,-31 -68,-36 -94,-8 -11,11 -18,25 -18,42z"/>
  </g>
 </g>
</svg>
