<?xml version="1.0" encoding="UTF-8"?>
<!DOCTYPE svg PUBLIC "-//W3C//DTD SVG 1.1//EN" "http://www.w3.org/Graphics/SVG/1.1/DTD/svg11.dtd">
<!-- Creator: CorelDRAW X7 -->
<svg xmlns="http://www.w3.org/2000/svg" xml:space="preserve" width="0.57122in" height="0.575713in" version="1.1" style="shape-rendering:geometricPrecision; text-rendering:geometricPrecision; image-rendering:optimizeQuality; fill-rule:evenodd; clip-rule:evenodd"
viewBox="0 0 571 576"
 xmlns:xlink="http://www.w3.org/1999/xlink">
 <defs>
  <style type="text/css">
   <![CDATA[
    .fil0 {fill:black}
   ]]>
  </style>
 </defs>
 <g id="Layer_x0020_1">
  <metadata id="CorelCorpID_0Corel-Layer"/>
  <g id="_782215736528">
   <path class="fil0" d="M42 327l0 -245c0,-11 8,-10 13,-10 25,0 54,6 69,16 0,35 -2,73 3,105 6,44 21,81 44,116 17,24 30,37 51,56 10,10 30,20 30,25l0 73c0,8 -5,12 -12,12 -50,0 -97,5 -137,-24 -24,-17 -39,-35 -50,-62 -7,-18 -11,-37 -11,-62zm124 -168l0 -105c0,-7 4,-11 11,-11l160 0c28,0 59,11 78,20 12,7 20,11 31,19 13,9 28,23 38,36 11,14 21,29 28,46 9,22 17,51 17,82l0 178c0,17 -3,31 -8,43 -15,36 -53,65 -91,65 -18,0 -42,4 -42,-7l0 -95 57 0c21,0 27,-32 6,-40 -18,-7 -151,20 -236,-94 -28,-37 -49,-82 -49,-137zm-40 -117c-16,-7 -67,-16 -82,-13 -17,3 -21,7 -31,17 -8,8 -13,20 -13,35l0 258c0,45 21,93 51,124 7,7 16,14 24,20 54,40 103,34 168,34 22,0 40,-16 47,-32 8,-19 4,-51 4,-76 8,4 40,15 51,15l0 95c0,33 24,57 57,57 46,0 89,-8 122,-41 26,-26 47,-61 47,-102l0 -195c0,-35 -11,-74 -23,-98 -4,-7 -6,-12 -11,-19l-25 -36c-3,-3 -5,-4 -8,-7 -7,-9 -15,-16 -24,-23 -44,-36 -97,-55 -159,-55l-141 0c-28,0 -54,21 -54,42z"/>
   <path class="fil0" d="M403 271c0,52 65,43 65,3 0,-42 -65,-41 -65,-3z"/>
  </g>
 </g>
</svg>
