<?xml version="1.0" encoding="UTF-8"?>
<!DOCTYPE svg PUBLIC "-//W3C//DTD SVG 1.1//EN" "http://www.w3.org/Graphics/SVG/1.1/DTD/svg11.dtd">
<!-- Creator: CorelDRAW X7 -->
<svg xmlns="http://www.w3.org/2000/svg" xml:space="preserve" width="0.666661in" height="0.666661in" version="1.1" style="shape-rendering:geometricPrecision; text-rendering:geometricPrecision; image-rendering:optimizeQuality; fill-rule:evenodd; clip-rule:evenodd"
viewBox="0 0 667 667"
 xmlns:xlink="http://www.w3.org/1999/xlink">
 <defs>
  <style type="text/css">
   <![CDATA[
    .fil0 {fill:black}
   ]]>
  </style>
 </defs>
 <g id="Layer_x0020_1">
  <metadata id="CorelCorpID_0Corel-Layer"/>
  <g id="_904814125136">
   <path class="fil0" d="M93 333c7,-11 47,-51 58,-60 16,-12 21,-18 40,-32 71,-50 141,-66 223,-34 11,5 22,10 32,16 10,6 20,12 29,18 21,15 46,36 65,54l34 38c-3,5 -7,9 -11,13 -7,8 -29,31 -35,37 -5,3 -7,7 -12,11 -15,11 -22,19 -41,31 -2,2 -4,3 -6,5 -3,2 -5,3 -8,5 -37,24 -83,41 -130,41 -30,0 -56,-8 -78,-17 -40,-16 -84,-47 -114,-77l-46 -49zm-44 -2c0,11 3,12 11,22l19 23c3,3 4,4 7,8 5,4 10,9 14,14 11,13 47,43 61,52 6,4 11,8 16,12 10,7 43,25 55,30 78,34 147,28 221,-9 23,-12 48,-28 69,-45l58 -54c9,-9 37,-40 37,-48 0,-11 -2,-13 -10,-22l-47 -52c-8,-7 -13,-14 -23,-21 -9,-7 -17,-15 -31,-25 -20,-13 -30,-21 -52,-32 -75,-37 -144,-43 -222,-10 -6,3 -12,7 -18,10 -7,3 -13,6 -19,10 -6,4 -12,6 -17,10l-41 30c-3,3 -5,5 -8,7 -9,7 -17,16 -25,24l-31 33c-5,5 -9,9 -13,15 -3,4 -11,12 -11,18z"/>
   <path class="fil0" d="M259 336c0,-45 32,-77 77,-77 39,0 72,32 72,77 0,39 -33,72 -77,72 -38,0 -72,-34 -72,-72zm72 -115c-4,1 -22,-1 -46,11 -24,12 -46,33 -55,57 -12,30 -12,65 2,93 9,19 22,33 39,45 16,11 45,21 65,19 10,-1 15,-1 24,-4 23,-5 39,-15 55,-31 26,-26 37,-68 27,-105 -7,-28 -23,-50 -46,-66 -17,-12 -50,-22 -65,-19z"/>
  </g>
 </g>
</svg>
