<?xml version="1.0" encoding="UTF-8"?>
<!DOCTYPE svg PUBLIC "-//W3C//DTD SVG 1.1//EN" "http://www.w3.org/Graphics/SVG/1.1/DTD/svg11.dtd">
<!-- Creator: CorelDRAW X7 -->
<svg xmlns="http://www.w3.org/2000/svg" xml:space="preserve" width="0.666661in" height="0.666661in" version="1.1" style="shape-rendering:geometricPrecision; text-rendering:geometricPrecision; image-rendering:optimizeQuality; fill-rule:evenodd; clip-rule:evenodd"
viewBox="0 0 667 667"
 xmlns:xlink="http://www.w3.org/1999/xlink">
 <defs>
  <style type="text/css">
   <![CDATA[
    .fil0 {fill:black}
   ]]>
  </style>
 </defs>
 <g id="Layer_x0020_1">
  <metadata id="CorelCorpID_0Corel-Layer"/>
  <path class="fil0" d="M91 115c0,17 8,22 21,35 16,15 180,179 184,183 -3,4 -9,9 -13,13l-170 170c-14,14 -22,18 -22,36 0,12 10,22 23,23l5 0c6,0 12,-3 17,-8 10,-7 82,-81 92,-91 18,-18 35,-35 53,-53 4,-4 48,-49 52,-52 5,3 168,167 183,183 7,7 13,14 21,19 3,1 6,2 10,2l6 0c11,-1 22,-8 22,-27 0,-13 -12,-22 -21,-31 -15,-16 -180,-179 -183,-184 3,-5 167,-167 183,-183 14,-14 21,-18 21,-35 0,-12 -10,-22 -22,-24l-5 0c-6,1 -12,3 -18,8 -4,4 -9,9 -13,13 -16,16 -179,180 -184,184 -4,-4 -148,-148 -157,-157l-39 -39c-6,-5 -12,-8 -17,-9l-7 0c-12,2 -22,12 -22,24z"/>
 </g>
</svg>
