<?xml version="1.0" encoding="UTF-8"?>
<!DOCTYPE svg PUBLIC "-//W3C//DTD SVG 1.1//EN" "http://www.w3.org/Graphics/SVG/1.1/DTD/svg11.dtd">
<!-- Creator: CorelDRAW X7 -->
<svg xmlns="http://www.w3.org/2000/svg" xml:space="preserve" width="1.66666in" height="1.66666in" version="1.1" style="shape-rendering:geometricPrecision; text-rendering:geometricPrecision; image-rendering:optimizeQuality; fill-rule:evenodd; clip-rule:evenodd"
viewBox="0 0 1667 1667"
 xmlns:xlink="http://www.w3.org/1999/xlink">
 <defs>
   <clipPath id="id0">
    <path d="M-41 824l713 135 72 -805 -585 78 -200 592z"/>
   </clipPath>
   <clipPath id="id1">
    <path d="M314 277l-265 469 1106 8 -46 -704 -795 227z"/>
   </clipPath>
   <clipPath id="id2">
    <path d="M1043 227l-9 550 506 0 93 -98 -14 -452 -576 0z"/>
   </clipPath>
   <clipPath id="id3">
    <path d="M22347 -10569l0 29319 2500 0 0 -29319 -2500 0z"/>
   </clipPath>
   <clipPath id="id4">
    <path d="M46 1339l573 -1 -30 -677 -496 12 -47 666z"/>
   </clipPath>
   <clipPath id="id5">
    <path d="M545 675l-27 790 614 4 11 -783 -598 -11z"/>
   </clipPath>
   <clipPath id="id6">
    <path d="M1041 694l-5 651 596 -2 57 -662 -648 13z"/>
   </clipPath>
 </defs>
 <g id="Layer_x0020_1">
  <metadata id="CorelCorpID_0Corel-Layer"/>
  <g style="clip-path:url(#id0)">
   <image transform="matrix(0.138482 -0 -0 -0.138482 -10.1439 723.508)" x="0" y="0" width="3992" height="4450" xlink:href="reset-password_Images\reset-password_ImgID1.gif"/>
  </g>
  <g style="clip-path:url(#id1)">
   <image transform="matrix(0.138482 -0 -0 -0.138482 541.983 722.691)" x="0" y="0" width="3978" height="4450" xlink:href="reset-password_Images\reset-password_ImgID2.gif"/>
  </g>
  <g style="clip-path:url(#id2)">
   <image transform="matrix(0.138482 -0 -0 -0.138482 1092.08 722.807)" x="0" y="0" width="3978" height="4450" xlink:href="reset-password_Images\reset-password_ImgID3.gif"/>
  </g>
  <g style="clip-path:url(#id3)">
   <image transform="matrix(1 -0 -0 -1 22346.3 6325.31)" x="0" y="0" width="2515" height="4471" xlink:href="reset-password_Images\reset-password_ImgID4.gif"/>
  </g>
  <g style="clip-path:url(#id4)">
   <image transform="matrix(0.138482 -0 -0 -0.138482 -8.69042 1337.7)" x="0" y="0" width="3992" height="4450" xlink:href="reset-password_Images\reset-password_ImgID5.gif"/>
  </g>
  <g style="clip-path:url(#id5)">
   <image transform="matrix(0.138482 -0 -0 -0.138482 542.022 1337.68)" x="0" y="0" width="3978" height="4450" xlink:href="reset-password_Images\reset-password_ImgID6.gif"/>
  </g>
  <g style="clip-path:url(#id6)">
   <image transform="matrix(0.138482 -0 -0 -0.138482 1091.37 1337.61)" x="0" y="0" width="3978" height="4450" xlink:href="reset-password_Images\reset-password_ImgID7.gif"/>
  </g>
 </g>
</svg>
