<?xml version="1.0" encoding="UTF-8"?>
<!DOCTYPE svg PUBLIC "-//W3C//DTD SVG 1.1//EN" "http://www.w3.org/Graphics/SVG/1.1/DTD/svg11.dtd">
<!-- Creator: CorelDRAW X7 -->
<svg xmlns="http://www.w3.org/2000/svg" xml:space="preserve" width="0.666661in" height="0.666661in" version="1.1" style="shape-rendering:geometricPrecision; text-rendering:geometricPrecision; image-rendering:optimizeQuality; fill-rule:evenodd; clip-rule:evenodd"
viewBox="0 0 667 667"
 xmlns:xlink="http://www.w3.org/1999/xlink">
 <defs>
  <style type="text/css">
   <![CDATA[
    .fil0 {fill:#373435}
   ]]>
  </style>
 </defs>
 <g id="Layer_x0020_1">
  <metadata id="CorelCorpID_0Corel-Layer"/>
  <path class="fil0" d="M131 63c0,22 17,33 27,43l224 193c5,3 6,3 10,7l30 25 -56 50c-32,25 -71,62 -105,89l-104 90c-14,12 -28,22 -28,45 0,32 38,64 77,32l114 -98c30,-26 74,-61 102,-87 5,-5 7,-5 12,-10 20,-18 79,-65 91,-78 17,-18 17,-42 2,-62l-45 -39c-38,-36 -123,-101 -160,-136l-102 -88c-17,-16 -24,-22 -47,-22 -24,0 -42,21 -42,46z"/>
 </g>
</svg>
