<?xml version="1.0" encoding="UTF-8"?>
<!DOCTYPE svg PUBLIC "-//W3C//DTD SVG 1.1//EN" "http://www.w3.org/Graphics/SVG/1.1/DTD/svg11.dtd">
<!-- Creator: CorelDRAW X7 -->
<svg xmlns="http://www.w3.org/2000/svg" xml:space="preserve" width="0.666661in" height="0.666661in" version="1.1" style="shape-rendering:geometricPrecision; text-rendering:geometricPrecision; image-rendering:optimizeQuality; fill-rule:evenodd; clip-rule:evenodd"
viewBox="0 0 667 667"
 xmlns:xlink="http://www.w3.org/1999/xlink">
 <defs>
  <style type="text/css">
   <![CDATA[
    .fil0 {fill:black}
   ]]>
  </style>
 </defs>
 <g id="Layer_x0020_1">
  <metadata id="CorelCorpID_0Corel-Layer"/>
  <path class="fil0" d="M17 186l57 139c5,13 22,20 35,15l139 -56c21,-9 25,-47 -7,-55 -10,-3 -19,2 -32,7 -24,10 -48,20 -71,29 1,-4 2,-6 3,-11 6,-20 27,-55 42,-71 48,-55 111,-84 184,-82 25,1 40,5 62,11 4,1 6,2 10,3 4,2 6,2 10,4 4,1 5,2 9,4 21,12 41,21 61,41 22,23 41,45 55,82 32,77 18,150 -17,209 -21,35 -60,72 -100,89l-21 8c-46,19 -116,17 -156,-1 -20,-8 -39,-21 -57,-4 -4,4 -4,5 -6,10 -7,15 -1,30 14,37 3,2 6,3 9,4l47 17c207,56 418,-136 352,-366 -9,-32 -29,-68 -46,-90 -25,-34 -64,-69 -102,-86l-37 -16c-16,-6 -42,-12 -59,-13l-21 -2c-65,-1 -116,10 -173,46 -45,29 -81,71 -104,118 -2,4 -2,6 -4,10 -6,-13 -11,-26 -16,-40 -7,-16 -9,-21 -22,-26 -25,-10 -46,17 -38,36z"/>
 </g>
</svg>
