<?xml version="1.0" encoding="UTF-8"?>
<!DOCTYPE svg PUBLIC "-//W3C//DTD SVG 1.1//EN" "http://www.w3.org/Graphics/SVG/1.1/DTD/svg11.dtd">
<!-- Creator: CorelDRAW X7 -->
<svg xmlns="http://www.w3.org/2000/svg" xml:space="preserve" width="0.666661in" height="0.666661in" version="1.1" style="shape-rendering:geometricPrecision; text-rendering:geometricPrecision; image-rendering:optimizeQuality; fill-rule:evenodd; clip-rule:evenodd"
viewBox="0 0 667 667"
 xmlns:xlink="http://www.w3.org/1999/xlink">
 <defs>
  <style type="text/css">
   <![CDATA[
    .fil0 {fill:black}
   ]]>
  </style>
 </defs>
 <g id="Layer_x0020_1">
  <metadata id="CorelCorpID_0Corel-Layer"/>
  <path class="fil0" d="M649 186l-56 139c-5,13 -22,20 -35,15l-140 -56c-20,-9 -24,-47 8,-55 10,-3 19,2 32,7 24,10 47,20 71,29 -1,-4 -2,-6 -4,-11 -5,-20 -26,-55 -41,-71 -48,-55 -111,-84 -185,-82 -24,1 -39,5 -61,11 -4,1 -6,2 -10,3 -5,2 -6,2 -10,4 -4,1 -6,2 -9,4 -21,12 -41,21 -61,41 -22,23 -41,45 -56,82 -31,77 -18,150 18,209 21,35 59,72 100,89l20 8c47,19 116,17 157,-1 20,-8 38,-21 57,-4 4,4 4,5 6,10 6,15 0,30 -14,37 -3,2 -6,3 -9,4l-47 17c-207,56 -418,-136 -352,-366 9,-32 28,-68 45,-90 26,-34 65,-69 103,-86l36 -16c16,-6 43,-12 60,-13l21 -2c64,-1 116,10 173,46 45,29 80,71 103,118 2,4 3,6 5,10 5,-13 11,-26 16,-40 7,-16 9,-21 21,-26 26,-10 46,17 38,36z"/>
 </g>
</svg>
