<?xml version="1.0" encoding="UTF-8"?>
<!DOCTYPE svg PUBLIC "-//W3C//DTD SVG 1.1//EN" "http://www.w3.org/Graphics/SVG/1.1/DTD/svg11.dtd">
<!-- Creator: CorelDRAW X7 -->
<svg xmlns="http://www.w3.org/2000/svg" xml:space="preserve" width="0.666661in" height="0.666661in" version="1.1" style="shape-rendering:geometricPrecision; text-rendering:geometricPrecision; image-rendering:optimizeQuality; fill-rule:evenodd; clip-rule:evenodd"
viewBox="0 0 667 667"
 xmlns:xlink="http://www.w3.org/1999/xlink">
 <defs>
  <style type="text/css">
   <![CDATA[
    .fil0 {fill:#2853A8}
   ]]>
  </style>
 </defs>
 <g id="Layer_x0020_1">
  <metadata id="CorelCorpID_0Corel-Layer"/>
  <g id="_101910250512">
   <g id="_538199223664">
    <path class="fil0" d="M118 566l0 -238c0,-33 21,-47 52,-47l327 0c17,0 29,3 38,12 8,8 14,18 14,35l0 238c0,30 -18,48 -48,48l-335 0c-30,0 -48,-18 -48,-48l0 0zm98 -401c0,-43 31,-85 70,-102 45,-19 96,-10 129,24 22,22 36,48 36,81l0 70 -235 0 0 -73 0 0zm-45 8l0 65c-30,0 -49,3 -71,24 -14,15 -26,34 -26,57l0 257c0,42 41,81 81,81l356 0c41,0 81,-40 81,-81l0 -257c0,-22 -11,-42 -26,-57 -21,-21 -40,-24 -71,-24 0,-69 6,-127 -45,-178 -15,-15 -26,-24 -45,-34 -55,-27 -117,-20 -167,14 -8,6 -14,12 -21,19 -25,25 -46,64 -46,114l0 0z"/>
    <path class="fil0" d="M292 412c0,11 -2,14 3,23 4,7 5,7 7,11 10,17 -16,75 27,75 14,0 23,1 31,-11 4,-7 3,-20 3,-31 0,-9 -2,-25 1,-32 6,-11 11,-7 11,-35 0,-17 -20,-37 -36,-37l-11 0c-17,0 -36,20 -36,37l0 0z"/>
   </g>
  </g>
 </g>
</svg>
