<?xml version="1.0" encoding="UTF-8"?>
<!DOCTYPE svg PUBLIC "-//W3C//DTD SVG 1.1//EN" "http://www.w3.org/Graphics/SVG/1.1/DTD/svg11.dtd">
<!-- Creator: CorelDRAW X7 -->
<svg xmlns="http://www.w3.org/2000/svg" xml:space="preserve" width="0.666661in" height="0.666661in" version="1.1" style="shape-rendering:geometricPrecision; text-rendering:geometricPrecision; image-rendering:optimizeQuality; fill-rule:evenodd; clip-rule:evenodd"
viewBox="0 0 667 667"
 xmlns:xlink="http://www.w3.org/1999/xlink">
 <defs>
  <style type="text/css">
   <![CDATA[
    .fil0 {fill:black}
   ]]>
  </style>
 </defs>
 <g id="Layer_x0020_1">
  <metadata id="CorelCorpID_0Corel-Layer"/>
  <g id="_574037849968">
   <path class="fil0" d="M247 405l0 -76c0,-19 9,-31 24,-39 0,-22 3,-35 14,-48 21,-29 75,-29 97,-1 10,13 14,26 14,49 15,8 23,19 23,39l0 76c0,26 -17,43 -43,43l-86 0c-26,0 -43,-17 -43,-43zm-156 -212c0,65 3,101 20,159 11,39 29,72 50,105 3,4 5,7 8,11 3,3 5,7 8,11 4,4 6,7 10,10 19,19 19,24 49,48 23,18 44,33 70,46 30,16 23,17 54,1l37 -22c30,-20 48,-36 73,-62l27 -32c16,-21 25,-36 36,-60 27,-53 43,-126 43,-191 0,-18 4,-43 -21,-46 -9,-1 -21,0 -41,-3 -23,-3 -47,-11 -67,-19 -27,-10 -60,-28 -84,-44 -11,-7 -17,-15 -31,-15 -10,0 -21,10 -28,15 -26,17 -55,32 -85,44 -37,15 -48,16 -85,21 -8,1 -43,-4 -43,23z"/>
   <path class="fil0" d="M650 327c0,52 -10,100 -29,138 -31,61 -66,105 -129,142l-25 13c-179,83 -320,-32 -324,-33 4,-15 8,-5 8,-36 0,-34 -53,-68 -89,-32 -5,6 -8,9 -11,16 -17,39 14,74 44,74 30,0 25,-7 38,-10 3,2 6,4 9,7 11,8 20,13 31,19 14,8 29,15 46,21 16,6 33,11 51,15 47,8 90,7 136,-3 36,-8 58,-18 90,-34 22,-12 67,-46 82,-65 4,-5 7,-7 10,-11 35,-46 56,-82 70,-139 11,-47 11,-96 2,-143 -2,-9 -3,-16 -10,-16 -15,0 -7,15 -4,33 2,14 4,27 4,44z"/>
   <path class="fil0" d="M0 334c0,13 1,31 3,43 1,4 3,17 4,20 5,9 14,0 15,-1 0,-9 -2,-19 -3,-28 -8,-55 6,-123 27,-167 33,-68 75,-112 142,-149 4,-2 8,-4 13,-6 74,-37 188,-39 263,-1 4,2 5,2 9,4 4,2 5,3 8,5 4,2 15,8 18,9 -3,12 -4,7 -4,23 0,35 48,62 80,30 32,-32 3,-80 -28,-80 -22,0 -23,2 -39,13 -50,-26 -86,-43 -147,-48 -30,-2 -37,-1 -67,2 -32,3 -87,19 -112,34 -35,20 -54,31 -84,61 -17,17 -23,26 -38,45l-16 26c-28,50 -44,104 -44,164l0 1z"/>
   <path class="fil0" d="M286 277l0 9 94 0 0 -9c0,-22 -21,-43 -43,-43l-8 0c-22,0 -43,21 -43,43z"/>
   <path class="fil0" d="M316 345c0,18 8,-6 0,34 -6,29 -6,27 28,27 17,0 7,-25 3,-44 -2,-11 3,-6 3,-17 0,-23 -34,-23 -34,0z"/>
  </g>
 </g>
</svg>
