<?xml version="1.0" encoding="UTF-8"?>
<!DOCTYPE svg PUBLIC "-//W3C//DTD SVG 1.1//EN" "http://www.w3.org/Graphics/SVG/1.1/DTD/svg11.dtd">
<!-- Creator: CorelDRAW X7 -->
<svg xmlns="http://www.w3.org/2000/svg" xml:space="preserve" width="0.617846in" height="0.617846in" version="1.1" style="shape-rendering:geometricPrecision; text-rendering:geometricPrecision; image-rendering:optimizeQuality; fill-rule:evenodd; clip-rule:evenodd"
viewBox="0 0 618 618"
 xmlns:xlink="http://www.w3.org/1999/xlink">
 <defs>
  <style type="text/css">
   <![CDATA[
    .fil0 {fill:black}
   ]]>
  </style>
 </defs>
 <g id="Layer_x0020_1">
  <metadata id="CorelCorpID_0Corel-Layer"/>
  <path class="fil0" d="M401 581c-3,-2 -3,-6 -5,-14 -2,-6 -3,-12 -5,-17 -3,-12 -6,-23 -9,-34 -7,-22 -13,-44 -19,-66 -7,-23 -13,-44 -20,-67l-18 -67 247 -245 -171 510zm-100 -288c-29,-7 -102,-29 -133,-38l-116 -33c-8,-2 -13,-2 -16,-6l512 -169 -247 246zm-301 -79c0,35 24,35 60,46l154 44c10,2 75,20 77,22 3,3 43,146 45,154l27 95c8,26 10,43 41,43 28,0 33,-37 41,-59 13,-41 173,-515 173,-523l0 -6c0,-14 -16,-30 -30,-30 -16,0 -27,6 -44,12 -13,4 -25,8 -37,12 -25,8 -49,16 -75,25 -136,45 -274,90 -410,136 -12,5 -22,17 -22,29z"/>
 </g>
</svg>
