<?xml version="1.0" encoding="UTF-8"?>
<!DOCTYPE svg PUBLIC "-//W3C//DTD SVG 1.1//EN" "http://www.w3.org/Graphics/SVG/1.1/DTD/svg11.dtd">
<!-- Creator: CorelDRAW X7 -->
<svg xmlns="http://www.w3.org/2000/svg" xml:space="preserve" width="8.5in" height="11in" version="1.1" style="shape-rendering:geometricPrecision; text-rendering:geometricPrecision; image-rendering:optimizeQuality; fill-rule:evenodd; clip-rule:evenodd"
viewBox="0 0 8500 11000"
 xmlns:xlink="http://www.w3.org/1999/xlink">
 <defs>
  <style type="text/css">
   <![CDATA[
    .fil49 {fill:black}
    .fil57 {fill:#01153E}
    .fil35 {fill:#022FA0}
    .fil6 {fill:#0A88D2}
    .fil8 {fill:#0FA1B8}
    .fil63 {fill:#153047}
    .fil72 {fill:#1A335B}
    .fil58 {fill:#1C1715}
    .fil14 {fill:#1D3B77}
    .fil55 {fill:#2B282D}
    .fil41 {fill:#2D313D}
    .fil62 {fill:#314452}
    .fil5 {fill:#35BFE6}
    .fil54 {fill:#3B373C}
    .fil44 {fill:#3E5C87}
    .fil4 {fill:#3FD2C5}
    .fil32 {fill:#4284CD}
    .fil67 {fill:#442B19}
    .fil43 {fill:#476291}
    .fil30 {fill:#4796EB}
    .fil7 {fill:#49D3D5}
    .fil68 {fill:#513826}
    .fil12 {fill:#5283A8}
    .fil34 {fill:#5384CC}
    .fil53 {fill:#565457}
    .fil45 {fill:#5775AA}
    .fil33 {fill:#5796D0}
    .fil15 {fill:#5F9BDD}
    .fil31 {fill:#60ABEF}
    .fil70 {fill:#649DB7}
    .fil3 {fill:#66E8C4}
    .fil9 {fill:#66E8C7}
    .fil51 {fill:#6D3C12}
    .fil69 {fill:#788587}
    .fil71 {fill:#8CC7DA}
    .fil13 {fill:#92BFF7}
    .fil66 {fill:#9CD6E2}
    .fil11 {fill:#A1B7EB}
    .fil16 {fill:#A2C5E9}
    .fil39 {fill:#BA6549}
    .fil29 {fill:#BDC5CD}
    .fil10 {fill:#CADBF9}
    .fil2 {fill:#CBD5D6}
    .fil42 {fill:#D38753}
    .fil52 {fill:#D6A183}
    .fil20 {fill:#D83A21}
    .fil26 {fill:#DA9A06}
    .fil48 {fill:#DB52A3}
    .fil65 {fill:#DCE2EA}
    .fil27 {fill:#DEAE1F}
    .fil1 {fill:#DEDEDE}
    .fil22 {fill:#E0E4E2}
    .fil23 {fill:#E1E4E1}
    .fil40 {fill:#E2A36A}
    .fil59 {fill:#E55DAA}
    .fil56 {fill:#E8B795}
    .fil0 {fill:#E9F5F6}
    .fil28 {fill:#EA9D03}
    .fil60 {fill:#EBA97A}
    .fil47 {fill:#ED65B2}
    .fil21 {fill:#EDF0EF}
    .fil64 {fill:#F6F6F6}
    .fil50 {fill:#F6F7F4}
    .fil18 {fill:#F85427}
    .fil17 {fill:#F97450}
    .fil24 {fill:#FAB001}
    .fil61 {fill:#FDC596}
    .fil37 {fill:#FEAD82}
    .fil46 {fill:#FEB48C}
    .fil19 {fill:#FF6C3C}
    .fil36 {fill:#FF77C4}
    .fil38 {fill:#FFBD99}
    .fil25 {fill:#FFC71F}
    .fil73 {fill:white}
    .fil74 {fill:#FEFEFE;fill-rule:nonzero}
   ]]>
  </style>
 </defs>
 <g id="Layer_x0020_1">
  <metadata id="CorelCorpID_0Corel-Layer"/>
  <path class="fil0" d="M8092 8991c-330,-35 -876,-64 -1558,-84 34,-44 54,-98 54,-157l-2 -1911c518,63 931,436 1019,913l189 0c368,0 666,278 666,621l0 63c0,243 -150,454 -368,555zm-7045 -29c-420,-173 -712,-564 -712,-1019l0 0c0,-615 534,-1113 1194,-1113l1605 0 1 823 -682 0c0,0 0,0 0,0l-132 0c-1,0 -1,0 -2,0l-401 0c-2,0 -4,0 -5,0 -92,3 -166,82 -166,180l0 1c0,6 0,12 1,19l0 0c0,0 0,0 0,0 0,0 0,0 0,0 0,0 0,0 0,0 9,90 82,160 170,160l403 0 132 0 402 0 281 0 -1423 0c0,0 0,0 0,0 -112,1 -184,93 -187,208 0,3 0,6 0,8l0 1c0,1 0,1 0,1 0,0 0,0 0,0 0,0 0,1 0,1 0,0 0,0 0,0 0,0 0,0 0,0 0,0 0,1 0,1 0,0 0,0 0,0 1,118 74,212 187,212l487 0 160 0 486 0 290 0 0 1 -1871 0 0 89c0,0 0,0 0,0 0,1 27,84 28,196l0 0c1,60 -6,128 -28,196l0 0 0 21c-77,5 -150,9 -218,14zm2087 -2933l-1868 0c-514,0 -931,-388 -931,-868 0,-480 417,-869 931,-869l195 0c-91,-73 -149,-181 -149,-302l0 0c0,-221 192,-400 429,-400l647 0c-66,-53 -107,-130 -107,-217 0,-158 137,-286 307,-286l679 0c-81,47 -136,133 -136,231l3 2711z"/>
  <path class="fil1" d="M4397 9261c-2232,0 -4041,-86 -4041,-192 0,-39 255,-76 691,-107 147,61 310,95 482,95l431 0 4469 0 1365 0c107,0 208,-24 298,-66 223,24 347,50 347,78 0,106 -1809,192 -4042,192z"/>
  <path class="fil2" d="M7794 9057l-1365 0 -4469 0 -431 0c-172,0 -335,-34 -482,-95 68,-5 141,-9 218,-14l0 68 1146 0 998 0c0,0 1,0 1,0 0,0 0,0 0,0l192 0c2,0 5,0 8,0l2705 -3c90,0 170,-42 219,-106 682,20 1228,49 1558,84 -90,42 -191,66 -298,66z"/>
  <path class="fil3" d="M704 8759c13,-9 38,2 122,-33 122,-51 169,-313 169,-313 -185,-23 -173,244 -245,290 -32,20 -48,40 -55,56l9 0z"/>
  <path class="fil4" d="M938 8491c-38,78 -83,192 -159,229 -21,10 -37,22 -48,33 18,-2 47,-7 95,-27 122,-51 169,-313 169,-313 0,0 -19,1 -57,78z"/>
  <path class="fil5" d="M626 8759l20 0c13,-28 17,-80 -26,-176 -81,-177 -122,-407 -66,-474 0,0 -192,137 -148,280 41,134 248,223 220,370z"/>
  <path class="fil6" d="M634 8759l12 0c13,-28 17,-80 -26,-176 -81,-177 -122,-407 -66,-474 0,0 -127,141 -78,276 47,134 194,204 158,374z"/>
  <path class="fil7" d="M436 8684c73,30 104,50 125,75l26 0c-20,-58 -31,-121 -76,-168 -52,-53 -249,-141 -256,-151 -7,-10 82,204 181,244z"/>
  <path class="fil8" d="M564 8742c2,5 4,11 6,17l17 0c-20,-58 -31,-121 -76,-168 -52,-53 -249,-141 -256,-151 0,0 96,120 203,175 76,39 96,98 106,127z"/>
  <path class="fil9" d="M682 8675c-3,35 -11,63 -19,84l14 0c48,-62 122,-183 108,-324 -20,-206 -42,-464 -42,-464 0,0 -271,206 -138,434 67,113 81,204 77,270z"/>
  <path class="fil4" d="M695 8295c28,171 28,362 -16,442 8,-5 17,-11 26,-17 44,-67 92,-169 80,-285 -20,-206 -42,-464 -42,-464 0,0 -83,102 -48,324z"/>
  <path class="fil10" d="M841 8746l-308 0c-28,0 -49,25 -44,52l40 227c6,32 34,55 67,55l182 0c33,0 61,-23 67,-55l39 -227c5,-27 -16,-52 -43,-52z"/>
  <path class="fil11" d="M885 8792c1,-25 -19,-46 -44,-46l-308 0c-26,0 -45,21 -44,46l396 0z"/>
  <path class="fil11" d="M841 8746l-86 0c27,0 48,25 44,52l-40 227c-6,32 -34,55 -67,55l86 0c33,0 61,-23 67,-55l39 -227c5,-27 -16,-52 -43,-52z"/>
  <path class="fil3" d="M8084 8759c13,-9 39,2 122,-33 122,-51 170,-313 170,-313 -186,-23 -174,244 -246,290 -32,20 -47,40 -54,56l8 0z"/>
  <path class="fil4" d="M8318 8491c-38,78 -83,192 -159,229 -21,10 -37,22 -48,33 18,-2 47,-7 95,-27 122,-51 170,-313 170,-313 0,0 -20,1 -58,78z"/>
  <path class="fil5" d="M8006 8759l20 0c13,-28 18,-80 -26,-176 -81,-177 -121,-407 -65,-474 0,0 -193,137 -149,280 41,134 248,223 220,370z"/>
  <path class="fil6" d="M8015 8759l11 0c13,-28 18,-80 -26,-176 -81,-177 -121,-407 -65,-474 0,0 -127,141 -79,276 48,134 194,204 159,374z"/>
  <path class="fil7" d="M7816 8684c73,30 105,50 125,75l26 0c-19,-58 -31,-121 -76,-168 -51,-53 -249,-141 -256,-151 -6,-10 82,204 181,244z"/>
  <path class="fil8" d="M7944 8742c2,5 4,11 7,17l16 0c-19,-58 -31,-121 -76,-168 -51,-53 -249,-141 -256,-151 0,0 96,120 203,175 76,39 97,98 106,127z"/>
  <path class="fil9" d="M8062 8675c-2,35 -10,63 -19,84l14 0c48,-62 122,-183 109,-324 -21,-206 -43,-464 -43,-464 0,0 -271,206 -137,434 66,113 81,204 76,270z"/>
  <path class="fil4" d="M8076 8295c27,171 28,362 -16,442 8,-5 16,-11 25,-17 44,-67 92,-169 81,-285 -21,-206 -43,-464 -43,-464 0,0 -83,102 -47,324z"/>
  <path class="fil10" d="M8221 8746l-308 0c-27,0 -48,25 -44,52l40 227c6,32 34,55 67,55l182 0c33,0 61,-23 67,-55l40 -227c4,-27 -16,-52 -44,-52z"/>
  <path class="fil11" d="M8265 8792c1,-25 -19,-46 -44,-46l-308 0c-25,0 -45,21 -44,46l396 0z"/>
  <path class="fil11" d="M8221 8746l-85 0c27,0 48,25 43,52l-40 227c-6,32 -34,55 -67,55l86 0c33,0 61,-23 67,-55l40 -227c4,-27 -16,-52 -44,-52z"/>
  <path class="fil12" d="M3410 9016l2905 -3c151,0 273,-118 273,-263l-6 -5435c0,-149 -125,-269 -280,-269l-2891 3c-155,0 -280,121 -280,269l5 5436c0,145 123,262 274,262z"/>
  <path class="fil13" d="M3511 8962l2770 -2c144,0 261,-115 261,-256l-5 -5297c0,-145 -121,-262 -269,-262l-2756 3c-148,0 -268,117 -268,262l6 5298c0,140 117,255 261,254z"/>
  <polygon class="fil14" points="3411,8716 6381,8713 6376,3335 3406,3338 "/>
  <polygon class="fil15" points="4431,3272 5361,3271 5361,3204 4431,3205 "/>
  <path class="fil15" d="M4568 8900l656 0c28,0 50,-15 50,-34l0 -57c0,-18 -22,-34 -50,-34l-656 1c-28,0 -50,15 -50,34l0 57c0,18 23,33 50,33z"/>
  <path class="fil16" d="M4373 6866l-675 0c-13,0 -23,10 -23,23l0 74c0,13 10,23 23,23l675 0c13,0 23,-10 23,-23l0 -74c0,-13 -10,-23 -23,-23z"/>
  <path class="fil16" d="M4954 6866l-427 0c-12,0 -22,10 -22,23l0 74c0,13 10,23 22,23l427 0c12,0 22,-10 22,-23l0 -74c0,-13 -10,-23 -22,-23z"/>
  <path class="fil16" d="M4579 7114l-881 0c-13,0 -23,10 -23,23l0 74c0,13 10,23 23,23l881 0c12,0 22,-10 22,-23l0 -74c0,-13 -10,-23 -22,-23z"/>
  <path class="fil16" d="M5331 7114l-599 0c-15,0 -27,12 -27,27l0 66c0,15 12,27 27,27l599 0c15,0 27,-12 27,-27l0 -66c0,-15 -12,-27 -27,-27z"/>
  <path class="fil16" d="M6081 5620l-1938 0c-4,0 -7,-3 -7,-7l0 -95c0,-4 3,-7 7,-7l1938 0c4,0 7,3 7,7l0 95c0,4 -3,7 -7,7z"/>
  <path class="fil16" d="M4039 5716l-300 0c-4,0 -7,-3 -7,-6l0 -288c0,-4 3,-7 7,-7l300 0c4,0 7,3 7,7l0 288c0,3 -3,6 -7,6z"/>
  <path class="fil16" d="M6081 6058l-1938 0c-4,0 -7,-3 -7,-7l0 -95c0,-4 3,-7 7,-7l1938 0c4,0 7,3 7,7l0 95c0,4 -3,7 -7,7z"/>
  <path class="fil16" d="M4039 6154l-300 0c-4,0 -7,-3 -7,-7l0 -287c0,-4 3,-7 7,-7l300 0c4,0 7,3 7,7l0 287c0,4 -3,7 -7,7z"/>
  <path class="fil16" d="M6081 6496l-1938 0c-4,0 -7,-3 -7,-8l0 -94c0,-4 3,-8 7,-8l1938 0c4,0 7,4 7,8l0 94c0,5 -3,8 -7,8z"/>
  <path class="fil16" d="M4039 6592l-300 0c-4,0 -7,-3 -7,-7l0 -288c0,-3 3,-6 7,-6l300 0c4,0 7,3 7,6l0 288c0,4 -3,7 -7,7z"/>
  <path class="fil16" d="M6062 5108l-2383 0c-2,0 -4,-2 -4,-4l0 -47c0,-2 2,-4 4,-4l2383 0c2,0 4,2 4,4l0 47c0,2 -2,4 -4,4z"/>
  <path class="fil17" d="M5636 8204l-1472 0c-63,0 -114,-51 -114,-114l0 -197c0,-63 51,-114 114,-114l1472 0c63,0 114,51 114,114l0 197c0,63 -51,114 -114,114z"/>
  <path class="fil18" d="M1265 8535l0 -89 2337 0c120,0 217,127 217,284l0 2c0,157 -97,284 -217,284l-2337 0 0 -89c73,-200 0,-392 0,-392z"/>
  <path class="fil19" d="M3602 8446l-944 0c-3,15 -5,30 -5,46l0 259c0,91 66,166 148,166l966 0c33,-50 52,-114 52,-185l0 -2c0,-157 -97,-284 -217,-284z"/>
  <path class="fil20" d="M1265 8446l1146 0c96,0 174,102 174,227l0 116c0,125 -78,227 -174,227l-1146 0 0 -89c73,-200 0,-392 0,-392l0 -89z"/>
  <path class="fil21" d="M2399 8535c66,0 119,70 119,156l0 80c0,86 -53,156 -119,156l-1134 0c64,-196 0,-392 0,-392l1134 0z"/>
  <path class="fil22" d="M1293 8731l0 0c-1,-112 -28,-195 -28,-196 0,1 27,84 28,196z"/>
  <path class="fil23" d="M2518 8731l-1225 0c-1,-112 -28,-195 -28,-196l1134 0c66,0 119,70 119,156l0 40z"/>
  <path class="fil24" d="M3757 7709l0 -56 -1839 0c-94,0 -171,80 -171,180l0 1c0,99 77,179 171,179l1839 0 0 -56c-57,-126 0,-248 0,-248z"/>
  <path class="fil25" d="M1918 7653l743 0c3,9 4,19 4,29l0 164c0,58 -52,105 -117,105l-760 0c-25,-32 -41,-73 -41,-117l0 -1c0,-100 77,-180 171,-180z"/>
  <path class="fil2" d="M2453 7653l-134 0c1,0 1,0 2,0l132 0c0,0 0,0 0,0z"/>
  <path class="fil26" d="M2453 8013l-132 0c-52,0 -92,-24 -118,-62l190 0c15,26 36,47 60,62z"/>
  <path class="fil27" d="M2393 7951l-190 0c-21,-32 -32,-73 -32,-118l0 -2c0,-99 55,-177 148,-178l134 0c-54,34 -92,101 -92,179l0 2c0,43 12,84 32,117z"/>
  <path class="fil28" d="M3757 7653l-902 0c-75,0 -136,64 -136,144l0 73c0,79 61,143 136,143l902 0 0 -56c-57,-126 0,-248 0,-248l0 -56z"/>
  <path class="fil21" d="M2865 7709c-52,0 -94,44 -94,99l0 50c0,55 42,99 94,99l892 0c-50,-124 0,-248 0,-248l-892 0z"/>
  <path class="fil29" d="M3735 7833l0 0c1,-71 22,-124 22,-124l0 0c0,0 -21,53 -22,124z"/>
  <path class="fil23" d="M3735 7833l-964 0 0 -25c0,-55 42,-99 94,-99l892 0c0,0 -21,53 -22,124z"/>
  <path class="fil30" d="M3937 8081l0 -68 -2224 0c-114,0 -187,97 -187,216l0 1c0,119 73,215 187,215l2224 0 0 -67c-70,-152 0,-297 0,-297z"/>
  <path class="fil31" d="M1526 8229l0 1c0,49 12,94 35,130l943 0c62,0 112,-56 112,-125l0 -222 -903 0c-114,0 -187,97 -187,216z"/>
  <path class="fil32" d="M2360 8445l-160 0c-68,0 -128,-33 -165,-85l246 0c19,36 47,65 79,85z"/>
  <path class="fil33" d="M2281 8360l-246 0c-27,-36 -42,-81 -42,-130l0 -1c0,-119 92,-216 207,-216l160 0c-66,41 -111,122 -111,215l0 2c0,48 11,92 32,130z"/>
  <path class="fil34" d="M3937 8013l-1091 0c-91,0 -165,77 -165,172l0 88c0,95 74,172 165,172l1091 0 0 -67c-70,-152 0,-297 0,-297l0 -68z"/>
  <path class="fil21" d="M2858 8081c-63,0 -114,53 -114,118l0 60c0,66 51,119 114,119l1079 0c-61,-149 0,-297 0,-297l-1079 0z"/>
  <path class="fil29" d="M3910 8229l0 0c1,-85 27,-148 27,-148 0,0 -26,63 -27,148z"/>
  <path class="fil23" d="M3910 8229l-1166 0 0 -30c0,-65 51,-118 114,-118l1079 0c0,0 -26,63 -27,148z"/>
  <path class="fil35" d="M2893 8185c0,0 11,15 12,47 2,33 17,72 17,72l35 -37 39 37c0,0 -13,-46 -13,-70 0,-24 -19,-49 -19,-49l-71 0z"/>
  <path class="fil36" d="M2980 7168c-6,17 -76,62 -105,24 -51,-88 -107,-211 -157,-299 -10,-18 8,-90 11,-98 4,-11 78,1 91,20 68,101 114,201 131,245 17,42 35,91 29,108z"/>
  <path class="fil37" d="M3063 6868c-2,7 -43,12 -51,4 -4,-3 -10,-10 -16,-18 -62,160 -102,222 -124,276 -26,94 92,112 124,5 7,-25 61,-236 74,-290 -3,11 -6,20 -7,23z"/>
  <path class="fil37" d="M2992 6802c0,0 24,-113 27,-127 3,-15 20,-16 18,0 -3,16 -13,118 -14,131 -1,13 -32,13 -31,-4z"/>
  <path class="fil37" d="M3012 6872c-8,-7 -25,-31 -34,-45 -9,-14 -1,-46 29,-47 30,-2 78,7 74,27 -4,20 -16,54 -18,61 -2,7 -43,12 -51,4z"/>
  <path class="fil37" d="M2979 6829c0,0 -7,-12 -12,-20 -2,-5 -1,-8 1,-24 1,-17 3,-28 3,-28 0,0 43,-3 51,-4 7,0 7,21 -15,25l-11 4c0,0 13,16 12,33 0,17 -21,26 -29,14z"/>
  <path class="fil38" d="M3051 6734c-7,-5 -15,-4 -21,-1 -5,3 -6,52 -7,66 -1,12 19,19 22,0 2,-18 10,-61 6,-65z"/>
  <path class="fil38" d="M3073 6746c-2,-7 -17,-6 -20,-1 -4,4 -9,56 -10,68 -1,6 16,15 18,-4 3,-18 13,-59 12,-63z"/>
  <path class="fil38" d="M3091 6762c-3,-8 -13,-8 -18,-3 -3,4 -10,43 -11,54 -1,7 10,15 15,-2 5,-16 15,-45 14,-49z"/>
  <path class="fil39" d="M3013 6777c0,-1 0,-1 -1,-1l-18 6 1 1c18,25 11,40 10,40 0,1 0,1 1,2l0 0 1 -1c1,-1 9,-16 -9,-41l15 -5c0,0 1,-1 0,-1z"/>
  <path class="fil40" d="M2883 8303c0,0 -7,23 -6,48l-33 -8 2 -41 37 1z"/>
  <path class="fil40" d="M2947 8368c-1,6 -105,1 -105,1l2 -26 33 1c0,0 70,17 70,24z"/>
  <path class="fil41" d="M2841 8369l2 -15c0,0 6,8 38,9 28,0 32,-10 32,-10 26,8 40,10 37,15 -5,7 -109,1 -109,1z"/>
  <path class="fil42" d="M2846 8302l-1 35c0,0 15,-10 32,0 0,0 3,-25 6,-34l-37 -1z"/>
  <path class="fil40" d="M3035 8305c0,0 -6,23 -6,48l-32 -8 2 -41 36 1z"/>
  <path class="fil40" d="M3099 8370c0,6 -105,1 -105,1l3 -26 33 1c0,0 70,17 69,24z"/>
  <path class="fil41" d="M2994 8371l2 -14c0,0 6,8 38,8 28,0 31,-10 31,-10 26,8 41,10 37,15 -5,7 -108,1 -108,1z"/>
  <path class="fil42" d="M2999 8304l-2 35c0,0 15,-10 32,0 0,0 3,-25 6,-34l-36 -1z"/>
  <path class="fil43" d="M2841 7404c0,0 -205,58 -178,246l528 8c0,0 16,-81 -17,-118 -33,-37 -333,-136 -333,-136z"/>
  <path class="fil43" d="M3189 7658c0,0 -72,206 -150,665l-53 0c0,0 -33,-344 -23,-437 9,-92 79,-237 79,-237 0,-1 101,-22 147,9z"/>
  <path class="fil44" d="M2841 7653l199 2c0,0 -72,145 -77,231 -5,87 23,437 23,437l22 0c0,0 -12,-371 -5,-431 7,-60 87,-255 83,-268 -4,-13 -252,-87 -252,-87l7 116z"/>
  <polygon class="fil44" points="2841,7404 2424,7398 2720,7553 "/>
  <path class="fil45" d="M2424 7398c0,0 -61,99 -17,249l618 9c0,0 13,-83 -21,-118 -48,-50 -406,-96 -580,-140z"/>
  <path class="fil45" d="M3025 7656c0,0 -67,148 -135,665l-53 -1c0,0 -39,-343 -31,-436 7,-92 68,-231 68,-231 0,0 104,-28 151,3z"/>
  <path class="fil43" d="M2407 7647l467 6c0,0 -63,152 -68,231 -7,100 31,436 31,436l20 1c0,0 -24,-346 -14,-432 10,-87 87,-253 75,-271 -13,-18 -338,-40 -525,-106 0,0 -7,78 14,135z"/>
  <path class="fil36" d="M2753 7154c-2,91 27,147 95,250 -136,45 -280,39 -428,-5 33,-88 83,-159 137,-221l2 -2c0,0 1,-1 1,-1 1,-1 1,-2 1,-2 29,-50 -57,-110 -90,-210 -34,-102 -18,-154 -18,-154 128,-56 203,-68 348,-6l4 88c0,0 38,69 33,100 -5,30 -85,115 -85,163z"/>
  <path class="fil46" d="M2554 6763c-3,33 50,58 78,60 28,2 78,-16 80,-49 3,-34 -33,-30 -77,-33 -44,-3 -79,-12 -81,22z"/>
  <path class="fil46" d="M2632 6815l0 0c31,2 58,-21 60,-52l7 -97c2,-31 -22,-57 -52,-59 -31,-3 -58,21 -60,51l-6 98c-2,30 21,57 51,59z"/>
  <path class="fil39" d="M2694 6733c2,-28 5,-67 5,-67 2,-31 -22,-57 -52,-59 -31,-3 -58,21 -60,51 0,0 -1,19 -3,45 0,0 21,28 48,35 33,9 62,-5 62,-5z"/>
  <path class="fil47" d="M2848 7404c-12,-43 -97,-110 -95,-250 0,-56 80,-121 85,-164 -30,12 -154,49 -351,11 36,101 83,128 74,172 0,0 0,1 -1,2 0,0 -1,1 -1,1l-2 2c-54,62 -104,133 -137,221 73,21 144,34 214,36 69,0 148,-9 214,-31z"/>
  <path class="fil48" d="M2693 7210c0,-13 6,-43 13,-74 10,-45 22,-96 20,-122 -3,-42 -44,-164 -46,-170l-6 2c1,2 43,127 46,169 2,24 -10,75 -20,119 -7,34 -13,63 -13,76 0,76 15,146 48,219 3,0 5,0 7,0 -34,-73 -49,-143 -49,-219z"/>
  <polygon class="fil48" points="2532,6779 2625,6875 2653,6835 2679,6858 2697,6832 2728,6865 2731,6777 2675,6783 "/>
  <polygon class="fil47" points="2532,6779 2575,6714 2675,6783 2629,6852 "/>
  <polygon class="fil47" points="2697,6731 2675,6783 2724,6843 2731,6777 "/>
  <path class="fil49" d="M2666 6328c-73,-3 -123,49 -134,74 0,0 -39,36 -39,73 1,36 -5,56 -5,56 0,0 -30,25 -19,66 0,0 -1,-26 7,-36 0,0 -11,36 3,58 0,0 -5,-22 3,-41 0,0 1,16 3,31 3,15 -2,75 38,101 0,0 -11,-15 -14,-32 0,0 8,11 15,21 6,11 -2,50 10,79 0,0 -6,-32 -3,-62 0,0 16,44 35,55 0,0 -26,-39 -28,-48 0,0 18,6 30,5 0,0 -27,-4 -33,-19 -6,-15 -7,-58 -4,-67 2,5 7,12 12,13 0,5 0,19 -2,29 0,0 5,-3 8,-11 0,0 2,13 -1,26 0,0 7,-11 6,-18 0,0 11,8 23,20l163 -311c0,0 -1,-58 -74,-62z"/>
  <path class="fil49" d="M2727 6703c0,0 51,-73 48,-117 0,0 4,43 -4,61 0,0 15,-17 13,-38 0,0 27,55 -16,112 0,0 15,-8 20,-17 0,0 -8,23 -14,30 0,0 19,-15 23,-37 0,0 -1,21 -8,34 0,0 36,-51 7,-119 0,0 7,-20 7,-32 0,0 2,15 -3,29 0,0 20,-22 10,-65 0,0 5,-12 5,-21 0,0 2,12 1,36 0,0 3,-11 3,-24 0,0 2,5 1,23 0,0 6,-19 0,-37 0,0 6,-25 -7,-43 -12,-18 -47,-64 -47,-64 0,0 28,20 31,33 0,0 -6,-17 -11,-23 0,0 6,3 10,9 0,0 1,-10 -30,-27 0,0 -7,-18 -26,-22 0,0 -8,-40 -76,-43 -69,-3 -115,46 -126,69 0,0 -37,34 -36,68 1,34 -5,53 -5,53 0,0 -28,23 -18,61 0,0 -1,-25 7,-34 0,0 -11,34 3,55 0,0 -5,-21 3,-39 0,0 0,15 3,29 2,15 -2,70 35,94 0,0 -11,-13 -14,-29 0,0 8,10 14,20 7,9 -1,46 10,73 0,0 -5,-30 -3,-57 0,0 15,40 33,50 0,0 -25,-36 -26,-44 0,0 17,5 28,5 0,0 -25,-4 -31,-18 -6,-14 -7,-58 -3,-64 0,0 6,8 10,11 0,0 1,17 -1,29 0,0 4,-2 7,-10 0,0 2,12 0,24 0,0 5,-10 5,-16 0,0 -2,13 10,24 12,10 59,-78 158,8z"/>
  <path class="fil50" d="M2805 6443c1,2 1,2 1,2 0,0 0,-1 -1,-2z"/>
  <path class="fil49" d="M2829 6517c0,0 6,-24 -6,-43 -13,-18 -49,-63 -49,-63 0,0 26,17 31,30 -1,-5 -6,-16 -11,-20 0,0 7,2 11,9 0,0 1,-10 -31,-27 0,0 -14,-15 -34,-19l-147 304c12,11 26,22 26,22l-2 -5c11,14 58,21 81,16l0 0c1,0 2,0 2,0l0 0c1,-1 2,-1 2,-1 8,-3 17,-9 25,-16 1,-1 2,-2 3,-3 1,0 1,-1 2,-2l0 0c3,-2 5,-5 8,-8l0 0c7,-9 13,-19 15,-27 14,-24 30,-58 28,-82 0,0 5,42 -4,60 0,0 15,-17 13,-38 0,0 29,55 -16,111 0,0 16,-7 20,-16 0,0 -8,22 -14,29 0,0 19,-15 24,-36 0,0 -1,20 -8,33 0,0 36,-50 6,-118 0,0 8,-20 8,-32 0,0 2,15 -3,30 0,-1 20,-23 10,-65 0,0 6,-12 6,-21 0,0 1,12 0,36 0,0 3,-12 4,-24 0,0 2,4 0,23 0,0 6,-19 0,-37z"/>
  <path class="fil46" d="M2723 6446c0,0 18,26 32,35 0,0 6,43 10,75 4,33 -5,80 -11,100 -6,19 -35,49 -53,62 -26,18 -71,5 -88,-7l-11 -7c0,0 -35,-23 -43,-66l-4 -36c0,0 -7,-5 -8,-14 -1,-10 2,-30 2,-30 0,0 93,-95 122,-110 30,-15 48,-4 48,-4l15 -8c0,0 -8,6 -11,10z"/>
  <path class="fil51" d="M2507 6534c0,0 44,8 76,-22 32,-31 48,-45 48,-45 0,0 -15,6 -22,14 0,0 26,-34 51,-43 25,-9 65,-10 65,-10 0,0 -26,-5 -38,-2 0,0 39,-10 55,2 0,0 -28,-29 -75,-12 -48,17 -81,64 -110,74 0,0 25,-4 34,-12 0,0 -37,34 -58,35 0,0 32,1 61,-29 0,0 -27,50 -87,50z"/>
  <path class="fil51" d="M2538 6469c0,0 75,-74 153,-73 0,0 -21,-4 -41,-2 0,0 20,-7 34,-6 0,0 -33,-10 -67,13 0,0 35,-32 73,-24 0,0 -51,-32 -130,27 0,0 56,-29 73,-23 0,0 -39,11 -54,28 0,0 20,-11 27,-11 0,0 -46,28 -68,57 0,0 38,-32 47,-32 0,0 -42,35 -47,46z"/>
  <path class="fil52" d="M2543 6597c0,0 -16,-6 -13,2 3,9 18,13 13,17 -5,5 -8,8 -2,10 6,1 0,-3 -4,2 -3,5 8,21 14,18 7,-3 5,-14 0,-21 0,0 0,-24 -8,-28z"/>
  <path class="fil51" d="M2746 6449c0,0 16,12 25,32 0,0 -2,-11 -4,-16 0,0 13,5 19,46 0,0 4,-10 1,-26 0,0 18,13 22,43 0,0 -3,-41 -23,-62 -20,-21 -30,-43 -30,-43 0,0 3,19 8,26 0,0 -10,-11 -11,-14l3 11 -6 -9c0,0 4,12 7,16 0,0 -3,-2 -11,-4z"/>
  <path class="fil36" d="M2379 7236c14,13 67,30 97,0 9,-100 20,-243 28,-342 2,-21 -36,-78 -43,-84 -8,-9 -81,28 -83,51 -9,122 -22,236 -22,341 0,0 9,20 23,34z"/>
  <path class="fil46" d="M2712 7020c0,-4 0,-9 1,-15 -57,23 -184,77 -251,113 -28,18 -71,93 -47,115 24,22 69,1 79,-6 40,-27 202,-138 256,-175 -20,-3 -39,-18 -38,-32z"/>
  <path class="fil53" d="M2799 7026c-17,-3 -33,-6 -49,-9 -6,-2 -10,-6 -9,-12 5,-57 17,-124 26,-171 2,-6 8,-11 16,-10 19,1 39,3 59,6 19,3 39,7 58,11 7,2 11,8 10,15 -11,46 -29,113 -48,167 -2,6 -8,9 -14,9 -16,-2 -33,-4 -49,-6z"/>
  <path class="fil54" d="M2848 7030c-33,-3 -65,-8 -98,-15 -5,-1 -8,-5 -8,-10 6,-52 16,-121 27,-171 1,-5 7,-9 13,-9 40,3 79,9 117,18 7,1 10,7 9,12 -12,50 -30,118 -48,168 -1,5 -6,8 -12,7z"/>
  <path class="fil55" d="M2805 6992c-28,-26 -41,-58 -48,-92 -6,35 -11,70 -15,105 0,5 3,9 8,10 33,7 65,12 98,15 6,1 11,-2 12,-7 1,-3 2,-6 3,-8 -21,-2 -41,-8 -58,-23z"/>
  <path class="fil46" d="M2766 7050c24,-7 45,-13 45,-13 8,-5 18,-11 18,-20 0,-5 -3,-10 -6,-14 -9,-14 -36,-19 -49,-37 -9,-11 -31,-34 -36,-28 -15,18 -26,62 -26,82 -1,18 29,38 54,30z"/>
  <path class="fil46" d="M2756 6942c-6,-12 1,-26 4,-50 3,-16 -17,-29 -22,-16 -3,12 -13,48 -15,54 -2,6 1,36 4,43 3,7 39,-8 29,-31z"/>
  <path class="fil46" d="M2781 6977c16,-17 27,-18 39,-38 10,-17 37,-55 47,-73 8,-12 -19,-6 -26,6 -11,17 -24,32 -39,52 -13,16 -34,25 -49,39 -10,10 18,23 28,14z"/>
  <path class="fil46" d="M2790 6995c22,-10 33,-8 52,-22 16,-13 36,-28 52,-41 12,-9 -15,-13 -26,-4 -17,14 -14,10 -37,24 -18,12 -41,13 -61,22 -13,6 7,27 20,21z"/>
  <path class="fil46" d="M2805 7020c22,-10 41,-16 49,-21 5,-3 19,-16 22,-21 4,-5 11,-15 11,-15 2,-6 -6,-11 -11,-7 -5,4 -21,18 -34,26 0,0 -34,9 -57,17 -13,5 7,27 20,21z"/>
  <path class="fil46" d="M2818 7026c9,2 19,8 30,1 12,-8 23,-18 33,-29 9,-10 1,-18 -9,-10 -10,8 -30,21 -35,20 -4,-1 -16,-3 -20,-4 -11,-3 -10,19 1,22z"/>
  <path class="fil56" d="M6776 8233c0,0 29,558 49,677 0,0 -12,31 -81,52 -69,20 -110,40 -83,73 0,0 261,6 282,-9 21,-15 13,-39 -17,-96 0,0 43,-640 19,-697l-169 0z"/>
  <path class="fil56" d="M6990 8233c0,0 4,164 55,276 51,113 147,339 147,376 0,36 0,91 0,91 0,0 58,37 88,-27 0,0 -13,-97 -25,-173 -12,-76 -57,-308 -74,-380 -17,-72 -21,-163 -21,-163l-170 0z"/>
  <path class="fil57" d="M6738 8963c-66,20 -103,40 -77,72 0,0 261,6 282,-9 20,-14 14,-36 -11,-84 0,0 -131,59 -194,21z"/>
  <path class="fil57" d="M7192 8976c0,0 -39,33 -18,69 20,36 115,11 127,-9 12,-19 -21,-87 -21,-87l-88 27z"/>
  <path class="fil58" d="M7021 6535c0,0 49,-25 86,73 37,98 39,250 25,302 0,0 108,116 20,191 0,0 -121,127 -129,160 -3,-8 -55,-101 -139,-106 -84,-5 -291,-223 -180,-257 0,0 -9,35 29,27 38,-8 14,-138 14,-184 1,-46 28,-159 109,-207 80,-48 173,-44 165,1z"/>
  <path class="fil59" d="M6480 7136c-56,37 -119,-7 -119,-7l-11 95c77,87 184,39 184,39 97,-26 305,-343 305,-343 -115,-29 -302,180 -359,216z"/>
  <path class="fil60" d="M6884 6837c0,0 -17,65 -28,73 0,0 -12,30 22,114 33,84 119,37 132,14 14,-23 44,-67 17,-110 0,0 -38,-28 -18,-87 0,0 -119,-24 -125,-4z"/>
  <path class="fil61" d="M7023 6842c0,0 -57,45 -103,28 -47,-17 -88,-63 -101,-108 -13,-45 8,-136 39,-168 32,-32 148,-53 181,-11 33,42 45,211 -16,259z"/>
  <path class="fil59" d="M7129 7642c0,0 124,67 131,100l-137 -43 6 -57z"/>
  <path class="fil62" d="M6763 7678c0,0 -49,364 -1,596 0,0 351,28 417,-9 0,0 22,-399 -5,-585l-411 -2z"/>
  <path class="fil63" d="M7011 7680c54,35 113,91 113,167 0,103 -11,327 -16,433 32,-3 57,-7 71,-15 0,0 22,-399 -5,-585l-163 0z"/>
  <path class="fil64" d="M7007 6906c0,0 -102,45 -151,-6 0,0 -214,214 -93,776 0,0 408,21 417,23 8,1 -30,-122 -77,-156 -48,-34 -322,-192 -95,-628 2,-3 2,-5 -1,-9z"/>
  <path class="fil65" d="M7046 7691c-323,-73 -223,-404 -234,-470 -10,-55 82,-237 113,-297 -25,0 -51,-5 -69,-24 0,0 -214,214 -93,776 0,0 163,9 284,15 0,0 -1,0 -1,0z"/>
  <path class="fil36" d="M7010 6905c0,0 27,3 64,14 15,4 115,41 108,199 -7,172 -23,316 2,375 24,59 81,157 84,263 -128,-103 -282,-213 -366,-390 -117,-247 108,-461 108,-461z"/>
  <path class="fil59" d="M7102 6932c34,21 85,72 80,186 -7,172 -23,316 2,375 24,59 81,157 84,263 0,0 -55,-176 -145,-269 0,0 72,-371 -21,-555z"/>
  <polygon class="fil66" points="7021,6905 6930,6980 6916,6926 6989,6906 "/>
  <path class="fil66" d="M6859 6900l54 24 -51 58c0,0 -24,-59 -3,-82z"/>
  <path class="fil36" d="M6692 7071c0,0 6,-41 20,-94 4,-16 14,-34 28,-43 31,-19 81,-29 119,-34 0,0 -106,405 -99,714 5,27 8,51 3,62 0,0 -25,10 -68,40 -40,26 15,-203 24,-241 -25,-147 -43,-250 -27,-404z"/>
  <path class="fil67" d="M7088 6987c0,0 47,19 74,-18 26,-36 -18,-57 -18,-57 0,0 29,36 -14,41 -42,4 -42,-67 -27,-106 42,-113 18,-188 -2,-228 -20,-41 -55,-70 -55,-70l-25 -14 -16 41c0,0 30,47 45,90 16,43 22,98 -14,169 -36,71 -45,141 52,152z"/>
  <path class="fil68" d="M7005 6576l16 -41c0,0 49,-25 86,73 12,34 19,74 22,114 -17,61 -64,131 -89,191 -33,75 66,55 66,55 0,0 -33,56 -82,13 -55,-47 -7,-125 14,-166 20,-41 17,-118 -3,-162 -20,-44 -30,-77 -30,-77z"/>
  <path class="fil67" d="M7005 6576c0,0 -111,-29 -167,105 -55,134 25,195 11,237 -14,41 -52,47 -84,5 0,0 39,25 45,-4 6,-29 -60,-71 -54,-182 2,-38 8,-72 16,-99 17,-40 44,-80 84,-104 80,-48 173,-44 165,1l-16 41z"/>
  <polygon class="fil69" points="6399,7171 6477,7063 6004,6724 5926,6833 "/>
  <path class="fil70" d="M5492 7000c-119,0 -238,-36 -341,-110 -136,-97 -217,-241 -239,-394l1161 0c-13,91 -48,180 -105,259 -114,160 -294,245 -476,245zm586 -614l-1171 0c5,-109 41,-218 109,-314 4,-5 7,-9 11,-14l931 0c73,96 114,211 120,328zm-229 -437l-713 0c103,-80 229,-121 357,-121 118,0 237,35 341,110 5,3 10,7 15,11z"/>
  <path class="fil71" d="M5958 6058l-931 0c32,-42 68,-78 109,-109l713 0c42,32 78,69 109,109z"/>
  <path class="fil71" d="M6073 6496l-1161 0c-5,-36 -7,-73 -5,-110l1171 0c1,37 0,73 -5,110z"/>
  <path class="fil72" d="M5166 6869c-252,-180 -309,-530 -129,-782 181,-251 531,-309 782,-128 251,180 309,530 128,781 -180,252 -530,309 -781,129zm-48 66c288,207 689,141 896,-147 206,-288 140,-689 -148,-896 -288,-206 -689,-140 -895,148 -207,288 -141,689 147,895z"/>
  <path class="fil72" d="M6224 7014l47 -66c31,-43 99,-48 151,-10l785 563c52,37 70,103 39,146l-48 66c-31,43 -98,48 -151,10l-784 -563c-53,-37 -70,-103 -39,-146z"/>
  <path class="fil73" d="M5148 6485c52,76 156,96 233,43 76,-52 95,-156 43,-232 -52,-76 -156,-96 -233,-44 -76,53 -95,157 -43,233z"/>
  <path class="fil73" d="M5286 6761c19,27 56,34 83,16 27,-19 34,-56 15,-83 -18,-27 -55,-34 -82,-15 -28,18 -34,55 -16,82z"/>
  <path class="fil61" d="M6825 7506c0,0 -30,13 -54,33 -23,19 -47,51 -92,-10 -45,-62 -15,-74 4,-65 18,9 44,25 61,10 18,-15 55,-21 55,-21l26 53z"/>
  <path class="fil36" d="M6786 7447c0,0 161,-93 209,-104 0,0 -12,-172 16,-238 27,-65 176,-147 152,-30 -23,118 -32,307 -97,362 -66,55 -157,34 -247,95l-33 -85z"/>
  <path class="fil59" d="M7066 7437c65,-55 78,-248 102,-365 9,-45 -8,-60 -34,-58 0,0 0,1 0,1 6,97 2,347 -103,383 -71,24 -165,81 -219,115l7 19c90,-61 181,-40 247,-95z"/>
  <path class="fil61" d="M6412 7114c7,-2 12,5 10,11 -2,5 -6,11 -13,16 -17,11 -27,30 -24,32 4,2 33,-27 45,-18 12,10 -37,36 -36,44 1,7 34,-19 37,-9 4,10 -38,33 -38,39 0,6 26,-6 24,2 -2,8 -14,20 -44,22 0,0 -48,7 -55,-21 -7,-26 22,-99 94,-118z"/>
  <path class="fil74" d="M4621 7953c-7,-4 -15,-8 -23,-11 -9,-2 -16,-4 -22,-4 -7,0 -12,2 -16,4 -4,3 -6,6 -6,11 0,4 1,8 4,11 3,2 6,5 11,6 4,2 10,4 17,6 10,3 18,6 25,9 7,3 12,8 17,14 4,6 7,13 7,23 0,9 -3,17 -8,24 -5,7 -12,12 -20,16 -9,3 -19,5 -30,5 -12,0 -23,-2 -35,-7 -11,-4 -21,-10 -29,-17l12 -25c8,7 16,13 26,17 9,4 18,6 26,6 8,0 15,-2 19,-5 5,-3 7,-7 7,-12 0,-5 -1,-8 -4,-11 -3,-3 -6,-5 -11,-7 -4,-1 -10,-3 -17,-6 -11,-3 -19,-6 -25,-8 -7,-3 -12,-8 -17,-13 -5,-6 -7,-14 -7,-23 0,-9 2,-17 7,-23 5,-7 11,-12 20,-16 8,-3 18,-5 30,-5 9,0 19,2 29,4 9,3 18,7 25,12l-12 25z"/>
  <path id="1" class="fil74" d="M4661 7950l28 0 0 115 -28 0 0 -115zm14 -50c4,0 8,2 11,5 3,3 5,7 5,12 0,5 -2,9 -5,12 -3,3 -7,5 -11,5 -5,0 -9,-2 -12,-5 -3,-3 -4,-7 -4,-12 0,-5 1,-9 4,-12 3,-3 7,-5 12,-5z"/>
  <path id="2" class="fil74" d="M4829 7950l0 104c0,11 -3,21 -7,29 -5,8 -12,14 -22,19 -9,4 -19,6 -31,6 -18,0 -34,-5 -49,-15l11 -20c11,8 23,12 36,12 10,0 19,-3 25,-8 6,-6 9,-13 9,-22l0 -14c-4,6 -9,11 -15,14 -6,3 -14,5 -22,5 -10,0 -19,-3 -26,-7 -8,-5 -14,-12 -19,-20 -4,-9 -6,-18 -6,-29 0,-11 2,-20 6,-29 5,-8 11,-14 19,-19 7,-5 16,-7 26,-7 8,0 15,2 22,5 6,3 11,8 15,13l0 -17 28 0zm-59 88c9,0 17,-4 22,-10 6,-6 9,-14 9,-23 0,-10 -3,-18 -9,-24 -5,-6 -13,-9 -22,-9 -9,0 -16,3 -22,9 -5,6 -8,14 -8,24 0,9 3,17 8,23 6,6 13,10 22,10z"/>
  <path id="3" class="fil74" d="M4931 7949c14,0 24,4 32,12 7,8 11,19 11,32l0 72 -28 0 0 -63c0,-9 -3,-15 -7,-20 -5,-4 -11,-7 -19,-7 -9,1 -17,4 -22,10 -5,6 -8,14 -8,24l0 56 -28 0 0 -115 28 0 0 22c8,-15 22,-23 41,-23z"/>
  <path id="4" class="fil74" d="M5085 8003c0,12 4,22 11,28 6,7 15,10 27,10 11,0 20,-3 27,-10 6,-6 9,-16 9,-28l0 -89 29 0 0 89c0,13 -2,25 -8,34 -5,10 -13,18 -23,23 -9,5 -21,7 -34,7 -14,0 -26,-2 -36,-7 -10,-5 -17,-13 -22,-23 -6,-9 -8,-21 -8,-34l0 -89 28 0 0 89z"/>
  <path id="5" class="fil74" d="M5289 7949c11,0 20,3 29,8 8,5 14,11 19,20 4,9 7,20 7,31 0,12 -3,22 -7,31 -5,8 -11,15 -19,20 -8,5 -18,7 -29,7 -8,0 -16,-1 -22,-5 -7,-3 -12,-8 -17,-14l0 60 -28 0 0 -157 28 0 0 19c4,-6 10,-11 16,-15 7,-3 14,-5 23,-5zm-6 93c9,0 17,-3 23,-10 6,-6 9,-14 9,-25 0,-10 -3,-18 -9,-25 -6,-6 -14,-9 -23,-9 -10,0 -18,3 -24,9 -6,7 -9,15 -9,25 0,11 3,19 9,26 6,6 14,9 24,9z"/>
  <polygon class="fil74" points="3917,3693 3963,3693 3884,3926 3838,3926 3785,3749 3730,3926 3685,3926 3606,3693 3654,3693 3709,3878 3764,3693 3808,3693 3863,3878 "/>
  <path id="1" class="fil74" d="M4047 3746c28,0 49,8 64,25 14,16 21,39 21,68 0,6 0,10 0,13l-132 0c3,13 9,23 18,30 9,7 20,11 33,11 9,0 18,-2 26,-5 9,-4 16,-9 22,-15l24 24c-9,10 -20,17 -33,23 -13,5 -27,8 -42,8 -19,0 -35,-4 -49,-12 -13,-7 -24,-18 -32,-31 -7,-14 -11,-30 -11,-48 0,-17 4,-33 11,-47 8,-14 19,-24 33,-32 13,-8 29,-12 47,-12zm46 77c-1,-13 -5,-24 -13,-31 -9,-8 -19,-12 -33,-12 -13,0 -23,4 -32,12 -8,7 -14,18 -16,31l94 0z"/>
  <polygon id="2" class="fil74" points="4171,3679 4215,3679 4215,3926 4171,3926 "/>
  <path id="3" class="fil74" d="M4393 3804c-12,-13 -28,-20 -47,-20 -14,0 -26,5 -35,15 -9,10 -13,22 -13,38 0,16 4,29 13,39 9,9 21,14 35,14 22,0 38,-7 48,-21l27 23c-8,11 -18,20 -31,26 -13,7 -29,10 -46,10 -18,0 -33,-4 -47,-12 -14,-7 -24,-18 -32,-31 -7,-14 -11,-30 -11,-48 0,-18 4,-34 11,-47 8,-14 19,-25 32,-32 14,-8 30,-12 48,-12 16,0 30,3 43,9 13,6 23,14 31,24l-26 25z"/>
  <path id="4" class="fil74" d="M4530 3746c18,0 35,4 49,12 14,7 25,18 33,32 8,13 12,29 12,47 0,18 -4,34 -12,47 -8,14 -19,25 -33,32 -14,8 -31,12 -49,12 -19,0 -35,-4 -49,-12 -15,-7 -26,-18 -34,-32 -7,-13 -11,-29 -11,-47 0,-18 4,-34 11,-47 8,-14 19,-25 34,-32 14,-8 30,-12 49,-12zm0 37c-15,0 -27,5 -37,15 -9,10 -14,23 -14,39 0,16 5,29 14,39 10,10 22,15 37,15 15,0 27,-5 36,-15 9,-10 14,-23 14,-39 0,-16 -5,-29 -14,-39 -9,-10 -21,-15 -36,-15z"/>
  <path id="5" class="fil74" d="M4895 3746c20,0 36,6 48,19 11,12 17,29 17,50l0 111 -44 0 0 -99c0,-12 -3,-22 -10,-29 -7,-8 -17,-11 -29,-11 -13,0 -24,5 -33,15 -8,9 -12,21 -12,36l0 88 -43 0 0 -99c0,-12 -4,-22 -11,-29 -7,-8 -16,-11 -28,-11 -14,0 -25,5 -33,15 -8,9 -12,21 -12,36l0 88 -44 0 0 -178 44 0 0 33c11,-23 32,-35 62,-35 16,0 29,4 39,11 11,8 18,18 23,32 11,-28 33,-43 66,-43z"/>
  <path id="6" class="fil74" d="M5083 3746c28,0 49,8 64,25 14,16 21,39 21,68 0,6 0,10 0,13l-132 0c3,13 9,23 18,30 9,7 20,11 33,11 9,0 18,-2 26,-5 9,-4 16,-9 22,-15l24 24c-9,10 -20,17 -33,23 -13,5 -27,8 -42,8 -19,0 -35,-4 -49,-12 -13,-7 -24,-18 -32,-31 -7,-14 -11,-30 -11,-48 0,-17 4,-33 11,-47 8,-14 19,-24 33,-32 13,-8 29,-12 47,-12zm46 77c-1,-13 -5,-24 -13,-31 -9,-8 -19,-12 -33,-12 -13,0 -23,4 -32,12 -8,7 -14,18 -16,31l94 0z"/>
  <path id="7" class="fil74" d="M3737 4254c-15,9 -29,13 -45,13 -15,0 -28,-5 -38,-14 -9,-9 -14,-22 -14,-39l0 -88 -25 0 -1 -32 26 0 0 -49 43 0 0 49 51 0 0 32 -51 0 0 80c0,8 1,14 4,17 3,4 8,6 14,6 7,0 15,-3 26,-8l10 33z"/>
  <path id="8" class="fil74" d="M3847 4085c18,0 35,4 49,12 14,7 25,18 33,31 8,14 12,30 12,48 0,18 -4,33 -12,47 -8,14 -19,25 -33,32 -14,8 -31,12 -49,12 -19,0 -35,-4 -49,-12 -15,-7 -26,-18 -34,-32 -7,-14 -11,-29 -11,-47 0,-18 4,-34 11,-48 8,-13 19,-24 34,-31 14,-8 30,-12 49,-12zm0 37c-15,0 -27,5 -37,15 -9,10 -14,23 -14,39 0,16 5,29 14,39 10,10 22,15 37,15 15,0 27,-5 36,-15 9,-10 14,-23 14,-39 0,-16 -5,-29 -14,-39 -9,-10 -21,-15 -36,-15z"/>
  <polygon id="9" class="fil74" points="4062,4032 4223,4032 4222,4071 4106,4071 4106,4134 4212,4134 4212,4173 4106,4173 4106,4265 4062,4265 "/>
  <polygon id="10" class="fil74" points="4256,4018 4299,4018 4299,4265 4256,4265 "/>
  <path id="11" class="fil74" d="M4429 4085c29,0 50,8 64,25 15,16 22,39 22,68 0,6 0,10 0,13l-132 0c3,13 9,23 18,30 9,7 20,11 33,11 9,0 18,-2 26,-6 8,-3 16,-8 22,-14l23 24c-9,10 -19,17 -32,23 -13,5 -27,8 -43,8 -18,0 -34,-4 -48,-12 -14,-7 -24,-18 -32,-32 -8,-13 -11,-29 -11,-47 0,-18 3,-33 11,-47 8,-14 19,-25 32,-32 14,-8 30,-12 47,-12zm46 77c0,-13 -4,-24 -13,-31 -8,-8 -19,-12 -32,-12 -13,0 -24,4 -32,11 -9,8 -14,19 -16,32l93 0z"/>
  <polygon id="12" class="fil74" points="4523,4087 4573,4087 4610,4145 4648,4087 4696,4087 4639,4174 4700,4265 4650,4265 4610,4203 4567,4265 4519,4265 4581,4174 "/>
  <path id="13" class="fil74" d="M4732 4087l43 0 0 178 -43 0 0 -178zm21 -77c7,0 13,2 18,7 4,5 7,11 7,19 0,7 -3,13 -7,18 -5,5 -11,8 -18,8 -7,0 -13,-3 -18,-8 -4,-5 -7,-11 -7,-18 0,-8 3,-14 7,-19 5,-5 11,-7 18,-7z"/>
  <path id="14" class="fil74" d="M4927 4032c24,0 45,5 63,14 18,10 33,24 43,42 11,18 16,38 16,60 0,23 -5,43 -16,60 -10,18 -25,32 -44,42 -18,10 -40,15 -63,15l-96 0 0 -233 97 0zm1 194c15,0 27,-4 39,-10 11,-7 20,-16 27,-28 6,-11 9,-25 9,-39 0,-15 -3,-29 -10,-41 -6,-11 -16,-21 -27,-27 -12,-7 -25,-10 -39,-10l-52 0 0 155 53 0z"/>
  <path id="15" class="fil74" d="M5192 4032c25,0 44,5 58,15 15,11 22,25 22,43 0,13 -4,24 -11,33 -7,9 -17,15 -30,19 16,2 28,9 37,20 9,10 13,23 13,39 0,20 -8,35 -23,47 -16,11 -37,17 -63,17l-107 0 0 -233 104 0zm-3 95c12,0 21,-3 27,-8 7,-5 10,-12 10,-21 0,-9 -3,-16 -10,-21 -6,-5 -15,-7 -27,-7l-56 0 0 57 56 0zm0 99c15,0 26,-2 34,-8 8,-5 12,-13 12,-23 0,-10 -4,-17 -12,-23 -8,-5 -19,-8 -34,-7l-56 0 0 61 56 0z"/>
 </g>
</svg>
