<?xml version="1.0" encoding="UTF-8"?>
<!DOCTYPE svg PUBLIC "-//W3C//DTD SVG 1.1//EN" "http://www.w3.org/Graphics/SVG/1.1/DTD/svg11.dtd">
<!-- Creator: CorelDRAW X7 -->
<svg xmlns="http://www.w3.org/2000/svg" xml:space="preserve" width="0.666661in" height="0.666661in" version="1.1" style="shape-rendering:geometricPrecision; text-rendering:geometricPrecision; image-rendering:optimizeQuality; fill-rule:evenodd; clip-rule:evenodd"
viewBox="0 0 667 667"
 xmlns:xlink="http://www.w3.org/1999/xlink">
 <defs>
  <style type="text/css">
   <![CDATA[
    .fil0 {fill:black}
   ]]>
  </style>
 </defs>
 <g id="Layer_x0020_1">
  <metadata id="CorelCorpID_0Corel-Layer"/>
  <g id="_572823259312">
   <path class="fil0" d="M8 98l0 471c0,21 14,47 28,61 14,14 40,28 61,28l407 0c44,0 89,-45 89,-89l0 -12c0,-22 -35,-42 -57,-17 -16,17 0,53 -47,53l-377 0c-25,0 -39,-13 -39,-38l0 -443c0,-26 13,-39 39,-39l377 0c46,0 32,36 46,53 22,27 58,6 58,-16 0,-19 0,-29 -9,-47 -10,-20 -25,-35 -45,-45 -9,-4 -24,-10 -35,-10l-407 0c-44,0 -89,46 -89,90z"/>
   <path class="fil0" d="M463 201c0,11 0,14 5,21 18,24 65,59 78,79l-278 0c-14,0 -34,-3 -45,2 -25,10 -28,47 -1,60 11,6 120,3 137,3 63,0 125,0 187,0 -17,26 -83,66 -83,95 0,13 1,17 9,26 10,10 30,11 40,5 3,-2 9,-6 11,-9 16,-14 123,-121 130,-132 19,-28 -19,-57 -28,-66 -16,-15 -99,-101 -112,-110 -18,-11 -50,-1 -50,26z"/>
  </g>
 </g>
</svg>
