<?xml version="1.0" encoding="UTF-8"?>
<!DOCTYPE svg PUBLIC "-//W3C//DTD SVG 1.1//EN" "http://www.w3.org/Graphics/SVG/1.1/DTD/svg11.dtd">
<!-- Creator: CorelDRAW X7 -->
<svg xmlns="http://www.w3.org/2000/svg" xml:space="preserve" width="0.489854in" height="0.587366in" version="1.1" style="shape-rendering:geometricPrecision; text-rendering:geometricPrecision; image-rendering:optimizeQuality; fill-rule:evenodd; clip-rule:evenodd"
viewBox="0 0 490 587"
 xmlns:xlink="http://www.w3.org/1999/xlink">
 <defs>
  <style type="text/css">
   <![CDATA[
    .fil0 {fill:black}
   ]]>
  </style>
 </defs>
 <g id="Layer_x0020_1">
  <metadata id="CorelCorpID_0Corel-Layer"/>
  <g id="_414432718560">
   <polygon class="fil0" points="0,587 466,587 466,377 413,377 413,535 53,535 53,377 0,377 "/>
   <path class="fil0" d="M109 364l76 15c48,12 105,22 153,33 6,1 14,3 19,4 7,2 6,2 8,-12 2,-6 3,-12 4,-19 2,-5 4,-13 4,-20l-32 -6c-10,-3 -20,-5 -31,-7l-127 -27c-10,-2 -21,-5 -31,-7 -6,-1 -11,-2 -16,-3 -6,-2 -10,-3 -17,-3 0,7 -3,19 -5,26 -2,9 -3,17 -5,26z"/>
   <path class="fil0" d="M142 241l220 104c5,2 10,6 15,6 7,-12 14,-32 22,-47l-87 -42c-25,-10 -63,-31 -88,-42l-60 -27c-6,12 -16,36 -22,48z"/>
   <path class="fil0" d="M295 31c1,4 23,34 28,40l29 39c26,36 63,84 87,119 3,5 6,8 10,13 3,-3 5,-4 9,-7l32 -24c-1,-5 -22,-32 -28,-40l-86 -118c-4,-4 -7,-8 -10,-13l-24 -33c-2,-3 -4,-4 -5,-7 -6,1 -36,27 -42,31z"/>
   <path class="fil0" d="M208 124c1,2 9,8 12,11l186 158 17 -21c3,-3 5,-6 8,-10 3,-4 5,-6 8,-11 -4,-2 -7,-6 -12,-10 -29,-22 -68,-59 -99,-84 -4,-3 -8,-7 -12,-10 -9,-7 -16,-14 -25,-21l-37 -32c-5,-3 -8,-7 -13,-10 -5,3 -31,37 -33,40z"/>
   <path class="fil0" d="M103 480c0,2 1,3 4,3l256 0 0 -53 -260 0 0 50z"/>
  </g>
 </g>
</svg>
