<?xml version="1.0" encoding="UTF-8"?>
<!DOCTYPE svg PUBLIC "-//W3C//DTD SVG 1.1//EN" "http://www.w3.org/Graphics/SVG/1.1/DTD/svg11.dtd">
<!-- Creator: CorelDRAW X7 -->
<svg xmlns="http://www.w3.org/2000/svg" xml:space="preserve" width="0.666661in" height="0.666661in" version="1.1" style="shape-rendering:geometricPrecision; text-rendering:geometricPrecision; image-rendering:optimizeQuality; fill-rule:evenodd; clip-rule:evenodd"
viewBox="0 0 667 667"
 xmlns:xlink="http://www.w3.org/1999/xlink">
 <defs>
  <style type="text/css">
   <![CDATA[
    .fil1 {fill:#1EB4EB}
    .fil2 {fill:#4ACCF2}
    .fil3 {fill:#71E2F7}
    .fil0 {fill:#DFF6FF}
   ]]>
  </style>
 </defs>
 <g id="Layer_x0020_1">
  <metadata id="CorelCorpID_0Corel-Layer"/>
  <g id="_414014282560">
   <path class="fil0" d="M352 118c18,5 33,24 40,31 20,20 9,9 48,12l8 2c22,-2 56,26 57,66 1,8 0,25 1,32 2,10 32,24 42,51 17,41 -17,68 -33,83 -9,9 -9,5 -9,22 -1,30 1,48 -23,70 -24,23 -48,17 -75,19 -7,0 -7,2 -10,6 -11,11 -26,29 -41,35 -16,7 -36,6 -50,-1 -15,-8 -24,-20 -34,-30 -8,-8 -5,-10 -20,-10 -10,0 -21,0 -31,-1 -35,-4 -63,-39 -60,-64 -4,-6 -1,-23 -2,-32 0,-7 -1,-7 -5,-11 -10,-9 -36,-32 -36,-46l-3 -5c-10,-34 17,-58 35,-75 9,-8 9,-5 10,-21 0,-29 -1,-48 21,-69 22,-23 43,-20 71,-21 14,0 12,-2 20,-10 9,-10 17,-21 31,-29 12,-7 34,-12 48,-4zm-44 -115l49 0c24,1 47,3 66,6 43,6 86,12 122,36 9,6 25,17 32,25l11 9c2,2 2,3 4,6 2,2 4,3 5,5 23,22 41,57 49,88 10,42 16,90 18,137l0 39c-1,24 -3,48 -6,70 -6,43 -13,86 -36,121 -18,27 -20,24 -31,38 -9,12 -35,32 -48,40 -35,21 -79,30 -121,35 -24,3 -49,5 -73,6l-36 0c-46,-2 -91,-7 -136,-18 -38,-10 -70,-31 -98,-58 -13,-13 -25,-29 -35,-44 -5,-8 -10,-18 -14,-26 -23,-57 -27,-134 -27,-200l0 -2c0,-48 11,-129 28,-169 17,-40 55,-80 92,-103 43,-27 116,-39 185,-41z"/>
   <path class="fil1" d="M282 326c1,0 1,-1 1,1l1 2 21 23c7,-2 9,-7 13,-11l32 -33c13,-15 27,-29 41,-44 17,-19 42,-19 56,4 6,9 5,24 -1,33 -6,8 -91,95 -105,110 -6,6 -13,16 -23,19 -13,5 -26,0 -33,-7 -11,-9 -36,-39 -42,-42 -3,0 -3,1 -2,-1 -2,0 -2,0 -2,-2 -2,1 -1,1 -1,-1 -2,0 -1,1 -1,-1 -2,0 -2,0 -2,-2 -1,1 -1,1 -1,-1 -2,0 -1,1 -1,-1 -2,0 -2,1 -1,-1 -2,0 -2,0 -2,-2 -2,1 -1,1 -1,-1 -2,0 -2,1 -1,-1 -2,0 -2,0 -1,-2 -3,1 -2,1 -2,-1 -2,0 -1,1 -1,-1 -2,0 -2,1 -1,-2 -3,1 -2,1 -1,-1 -2,0 -2,0 -1,-2 -3,-1 -4,1 -10,7l-45 45c-8,8 0,16 -4,31 -3,25 25,60 60,64 10,1 21,1 31,1 15,0 12,2 20,10 10,10 19,22 34,30 14,7 34,8 50,1 15,-6 30,-24 41,-35 3,-4 3,-6 10,-6 27,-2 51,4 75,-19 24,-22 22,-40 23,-70 0,-17 0,-13 9,-22 16,-15 50,-42 33,-83 -10,-27 -40,-41 -42,-51 -1,-7 0,-24 -1,-32 -1,-40 -35,-68 -57,-66l-7 0c-4,6 -126,127 -141,141 -5,5 -17,15 -18,22z"/>
   <path class="fil2" d="M119 352c0,14 26,37 36,46 4,4 5,4 5,11 1,9 -2,26 2,32 4,-15 -4,-23 4,-31l45 -45c6,-6 7,-8 10,-7 -1,2 -1,2 1,2 -1,2 -2,2 1,1 -1,3 -1,2 1,2 0,2 -1,1 1,1 0,2 -1,2 2,1 -1,2 -1,2 1,2 -1,2 -1,1 1,1 0,2 -1,2 1,1 0,2 0,2 2,2 -1,2 -1,1 1,1 0,2 -1,1 1,1 0,2 0,2 1,1 0,2 0,2 2,2 0,2 -1,1 1,1 0,2 -1,2 1,1 0,2 0,2 2,2 -1,2 -1,1 2,1l-2 -1c0,-2 0,-2 -2,-2 0,-2 1,-1 -1,-1 0,-2 1,-1 -1,-1 0,-2 0,-2 -2,-2 1,-1 1,-1 -1,-1 1,-2 1,-1 -1,-1 0,-2 1,-2 -1,-1 0,-3 0,-2 -2,-2 1,-2 1,-2 -1,-1 1,-2 1,-2 -1,-1 0,-3 1,-2 -1,-2 0,-2 0,-1 -2,-1 1,-2 1,-2 -1,-1 1,-3 1,-2 -1,-2 0,-2 1,-2 -1,-1 0,-3 1,-2 -1,-2 -4,-10 -8,-15 -4,-29 5,-18 27,-28 45,-20 10,5 12,12 20,17 -1,2 -1,1 1,1 0,2 -1,2 1,2l-1 -2c0,-2 0,-1 -1,-1 1,-7 13,-17 18,-22 15,-14 137,-135 141,-141l7 0 -8 -2c-39,-3 -28,8 -48,-12 -7,-7 -22,-26 -40,-31 -2,4 -3,4 -7,9l-110 109c-37,37 -80,81 -116,116z"/>
   <path class="fil0" d="M284 329c-2,0 -1,0 -1,-2 -2,0 -2,1 -1,-1 -8,-5 -10,-12 -20,-17 -18,-8 -40,2 -45,20 -4,14 0,19 4,29 2,0 1,-1 1,2 2,-1 1,-1 1,1 2,0 2,-1 1,2 2,-1 2,-1 1,1 2,0 2,-1 2,1 2,0 1,-1 1,2 2,-1 2,-1 1,1 2,-1 2,-1 1,1 2,0 2,-1 2,2 2,-1 1,-1 1,1 2,0 2,-1 1,1 2,0 2,0 1,1 2,0 2,0 2,2 2,0 1,-1 1,1 2,0 1,-1 1,1 2,0 2,0 2,2l2 1c6,3 31,33 42,42 7,7 20,12 33,7 10,-3 17,-13 23,-19 14,-15 99,-102 105,-110 6,-9 7,-24 1,-33 -14,-23 -39,-23 -56,-4 -14,15 -28,29 -41,44l-32 33c-4,4 -6,9 -13,11l-21 -23z"/>
   <path class="fil3" d="M119 352c36,-35 79,-79 116,-116l110 -109c4,-5 5,-5 7,-9 -14,-8 -36,-3 -48,4 -14,8 -22,19 -31,29 -8,8 -6,10 -20,10 -28,1 -49,-2 -71,21 -22,21 -21,40 -21,69 -1,16 -1,13 -10,21 -18,17 -45,41 -35,75l3 5z"/>
  </g>
 </g>
</svg>
