<?xml version="1.0" encoding="UTF-8"?>
<!DOCTYPE svg PUBLIC "-//W3C//DTD SVG 1.1//EN" "http://www.w3.org/Graphics/SVG/1.1/DTD/svg11.dtd">
<!-- Creator: CorelDRAW X7 -->
<svg xmlns="http://www.w3.org/2000/svg" xml:space="preserve" width="0.61052in" height="0.61052in" version="1.1" style="shape-rendering:geometricPrecision; text-rendering:geometricPrecision; image-rendering:optimizeQuality; fill-rule:evenodd; clip-rule:evenodd"
viewBox="0 0 611 611"
 xmlns:xlink="http://www.w3.org/1999/xlink">
 <defs>
  <style type="text/css">
   <![CDATA[
    .fil0 {fill:black}
   ]]>
  </style>
 </defs>
 <g id="Layer_x0020_1">
  <metadata id="CorelCorpID_0Corel-Layer"/>
  <g id="_414434865856">
   <path class="fil0" d="M33 481l0 -352c0,-26 14,-56 35,-72 3,-2 4,-4 7,-6 14,-10 36,-18 54,-18l352 0c14,0 29,4 39,9 5,2 10,5 15,9 8,5 13,10 19,17 2,3 3,4 5,7 4,5 7,10 9,15 5,10 10,25 10,39l0 352c0,14 -5,29 -9,39 -4,8 -9,15 -15,22 -2,3 -3,4 -5,7 -3,2 -4,2 -7,5 -16,14 -38,24 -61,24l-352 0c-24,0 -51,-13 -67,-29l-11 -13c-10,-14 -18,-36 -18,-55zm-33 -344l0 337c0,21 5,41 11,56 23,50 70,81 126,81l337 0c37,0 72,-14 97,-40 25,-25 40,-60 40,-97l0 -337c0,-22 -5,-42 -12,-57 -11,-25 -25,-40 -46,-56 -22,-16 -50,-24 -79,-24l-337 0c-78,0 -137,59 -137,137z"/>
   <path class="fil0" d="M143 134l52 0c3,6 12,16 16,22 61,77 127,156 188,234l60 75c3,4 6,7 8,11l-51 0c-1,-4 -13,-17 -17,-21l-247 -309c-3,-4 -7,-7 -9,-12zm118 200c-4,6 -10,13 -15,19l-77 97c-6,7 -30,34 -30,41 0,16 20,22 29,11 2,-2 2,-3 4,-5l19 -24c10,-13 20,-24 31,-38l53 -66c3,-4 4,-7 9,-8 1,5 68,86 74,93 6,7 10,13 15,19 7,8 24,35 34,35l95 0c8,0 24,-11 9,-30 -4,-5 -8,-9 -12,-14 -4,-5 -7,-9 -11,-15 -16,-19 -31,-38 -47,-57 -8,-10 -84,-104 -92,-116l93 -115c6,-9 29,-34 29,-42 0,-15 -19,-21 -28,-11l-107 134c-3,3 -4,7 -9,8 -2,-5 -84,-105 -90,-113 -5,-6 -10,-12 -15,-19 -6,-7 -10,-15 -18,-15l-96 0c-7,0 -24,10 -8,29l161 202z"/>
  </g>
 </g>
</svg>
