<?xml version="1.0" encoding="UTF-8"?>
<!DOCTYPE svg PUBLIC "-//W3C//DTD SVG 1.1//EN" "http://www.w3.org/Graphics/SVG/1.1/DTD/svg11.dtd">
<!-- Creator: CorelDRAW X7 -->
<svg xmlns="http://www.w3.org/2000/svg" xml:space="preserve" width="0.666661in" height="0.666661in" version="1.1" style="shape-rendering:geometricPrecision; text-rendering:geometricPrecision; image-rendering:optimizeQuality; fill-rule:evenodd; clip-rule:evenodd"
viewBox="0 0 667 667"
 xmlns:xlink="http://www.w3.org/1999/xlink">
 <defs>
  <style type="text/css">
   <![CDATA[
    .fil0 {fill:black}
   ]]>
  </style>
 </defs>
 <g id="Layer_x0020_1">
  <metadata id="CorelCorpID_0Corel-Layer"/>
  <g id="_904814126384">
   <path class="fil0" d="M273 339c0,-16 0,-20 7,-34 2,1 1,1 2,2l39 39c0,1 1,1 1,1 0,0 0,0 0,1l16 15c1,1 1,1 2,2l11 11c0,0 0,0 0,0l2 2c2,1 1,1 2,3 6,6 4,2 5,5 -24,12 -52,7 -70,-11l-5 -5c-2,-2 -5,-6 -6,-8 -2,-5 -6,-16 -6,-23zm-36 -6c0,28 9,47 26,65l13 12c25,18 59,23 88,13 11,-4 19,-9 22,-11 6,4 18,17 23,22 -48,11 -54,14 -105,10 -43,-4 -101,-28 -132,-57 -12,-11 -21,-18 -32,-32l-13 -18c-3,-5 -1,-6 2,-10l13 -18c14,-15 22,-24 41,-38 7,-5 33,-23 41,-23 1,3 1,2 3,4l20 20c5,4 4,5 7,6 0,4 -4,7 -6,12 -7,13 -11,26 -11,43zm-147 -227c0,11 3,11 12,20l81 81c4,4 11,10 13,15 -12,2 -50,33 -62,44 -11,11 -44,45 -44,63 0,19 4,24 16,39 12,16 30,36 46,48 5,4 8,7 13,11 41,28 96,54 160,54 35,0 58,-2 91,-12 4,-1 18,-7 21,-7l88 88c8,7 23,26 32,26 13,0 19,-6 19,-19 0,-10 -46,-52 -55,-61l-379 -379c-12,-13 -21,-27 -36,-27 -7,0 -16,9 -16,16z"/>
   <path class="fil0" d="M286 203c0,28 29,18 47,18 32,0 66,7 94,18 46,19 81,47 110,86 6,9 5,10 -1,18 -15,19 -23,28 -41,44 -5,4 -11,8 -11,17 0,10 13,26 32,11 23,-19 22,-21 39,-39 7,-8 21,-27 21,-38 0,-19 -3,-24 -15,-39 -17,-22 -37,-43 -60,-59 -40,-29 -95,-54 -159,-54 -11,0 -35,-1 -44,2 -3,1 -6,3 -8,5 -2,2 -4,7 -4,10z"/>
  </g>
 </g>
</svg>
