<?xml version="1.0" encoding="UTF-8"?>
<!DOCTYPE svg PUBLIC "-//W3C//DTD SVG 1.1//EN" "http://www.w3.org/Graphics/SVG/1.1/DTD/svg11.dtd">
<!-- Creator: CorelDRAW X7 -->
<svg xmlns="http://www.w3.org/2000/svg" xml:space="preserve" width="0.605748in" height="0.55152in" version="1.1" style="shape-rendering:geometricPrecision; text-rendering:geometricPrecision; image-rendering:optimizeQuality; fill-rule:evenodd; clip-rule:evenodd"
viewBox="0 0 606 552"
 xmlns:xlink="http://www.w3.org/1999/xlink">
 <defs>
  <style type="text/css">
   <![CDATA[
    .fil0 {fill:black}
   ]]>
  </style>
 </defs>
 <g id="Layer_x0020_1">
  <metadata id="CorelCorpID_0Corel-Layer"/>
  <g id="_414432726752">
   <path class="fil0" d="M235 446l135 0c-2,9 -31,45 -39,55 -5,7 -21,23 -28,28 -7,-3 -15,-12 -19,-18 -12,-15 -21,-22 -34,-42 -3,-4 -5,-7 -8,-11 -1,-2 -2,-4 -3,-6l-4 -6zm-235 -126l0 -88c0,-18 19,-38 40,-38 1,-11 15,-38 19,-47 2,-4 4,-7 6,-11 12,-20 35,-49 51,-63 6,-5 22,-21 29,-19 4,1 6,4 6,9 0,7 -14,17 -20,21 -6,5 -16,14 -20,21l103 0c2,-8 30,-46 38,-55l21 -25c2,-3 2,-2 4,-5 -40,0 -92,29 -98,29 -8,0 -11,-7 -8,-13 2,-5 9,-7 14,-10 11,-5 21,-8 33,-12 89,-30 187,-10 255,45 16,13 24,20 37,35 16,18 28,36 40,59 4,8 15,32 16,41 10,0 22,7 28,12 2,3 6,8 8,12 2,5 4,10 4,16l0 83c0,21 -19,40 -40,40 -1,10 -12,33 -16,41 -10,21 -20,34 -33,52 -3,3 -4,4 -7,7 -14,17 -18,18 -28,28 -7,8 -18,6 -18,-3 0,-10 22,-21 32,-36l-104 0c-2,7 -24,38 -30,45l-33 40c22,0 64,-13 84,-23 4,-2 20,-11 24,-11 11,0 11,9 8,14 -2,3 -12,8 -16,10 -116,57 -247,33 -333,-63l-13 -16c-14,-17 -41,-66 -43,-85 -21,0 -40,-20 -40,-37zm111 126l103 0c4,16 45,64 58,80 2,3 3,3 5,5 -20,0 -46,-8 -64,-14 -9,-3 -24,-10 -32,-15 -20,-10 -61,-40 -70,-56zm83 -89l218 0c-1,12 -20,50 -26,63 -2,3 -3,7 -6,7l-154 0c-4,0 -7,-8 -10,-15l-16 -35c-2,-6 -5,-13 -6,-20zm317 70l-108 0 29 -70 115 0c-5,22 -24,52 -36,70zm-452 -70l115 0c2,5 4,12 6,18 2,6 5,12 7,18l15 34 -107 0c-4,-8 -13,-18 -20,-32l-12 -27c-2,-3 -3,-8 -4,-11zm-41 -45l0 -73c0,-18 11,-27 29,-27l511 0c18,0 30,9 30,27l0 73c0,18 -12,28 -30,28l-511 0c-18,0 -29,-10 -29,-28zm208 -188l154 0c4,0 6,9 10,15l15 36c2,5 6,14 7,19l-218 0c0,-5 4,-13 6,-19 6,-15 13,-29 20,-44 1,-3 2,-7 6,-7zm177 0l108 0c4,8 13,19 20,33 5,10 13,25 16,37l-115 0 -27 -65c-1,-2 -1,-3 -2,-5zm-229 70l-115 0c3,-12 10,-26 16,-37 3,-6 6,-11 9,-16l11 -17 107 0c-1,5 -5,11 -7,17 -2,5 -5,10 -8,17 -2,6 -4,11 -7,18 -2,6 -4,13 -6,18zm129 -171c7,3 22,20 28,27 3,4 5,7 8,11 6,7 29,37 31,44l-135 0c3,-9 31,-44 39,-54 6,-7 21,-24 29,-28zm26 -3c42,0 102,28 134,54 9,8 26,22 32,31l-103 0c-2,-6 -24,-37 -29,-44l-26 -30c-2,-3 -6,-8 -8,-11z"/>
   <path class="fil0" d="M245 241c0,4 21,63 24,71 2,4 5,6 9,6 11,0 14,-19 19,-34 2,-4 4,-9 5,-13l11 26c4,11 4,21 16,21 3,0 6,-3 7,-6l18 -49c1,-4 7,-16 7,-20 0,-11 -14,-16 -19,-1l-10 27c-1,3 -3,9 -4,13l-15 -40c-4,-13 -16,-12 -20,-1 -2,5 -12,37 -15,41 -1,-4 -3,-10 -5,-13 -3,-10 -10,-36 -17,-36 -5,0 -11,2 -11,8z"/>
   <path class="fil0" d="M376 241c0,4 18,51 21,61 5,13 5,16 15,16 7,0 10,-16 13,-22l7 -20c1,-5 0,-4 3,-6 1,5 3,8 5,13l9 26c5,14 15,10 18,4l11 -30c4,-8 14,-35 14,-43 0,-5 -12,-14 -18,2l-16 38c-1,-4 -3,-9 -5,-13 -1,-5 -2,-8 -4,-13 -3,-8 -5,-21 -15,-21 -8,0 -10,11 -14,22 -1,4 -8,23 -11,27l-13 -40c-7,-17 -20,-7 -20,-1z"/>
   <path class="fil0" d="M114 240c0,9 3,15 6,22l18 51c4,7 14,9 18,-3l10 -26c1,-4 4,-9 4,-14 5,3 2,2 6,12 4,11 10,36 18,36 9,0 10,-3 14,-16 4,-10 22,-57 22,-61 0,-6 -13,-15 -19,0 -2,4 -3,9 -5,13l-10 28c-2,-4 -9,-23 -10,-27 -2,-4 -3,-8 -5,-13 -2,-5 -3,-9 -9,-9 -11,0 -14,20 -20,34 -1,4 -3,9 -4,13l-2 0c-1,-4 -11,-30 -14,-37 -6,-18 -18,-8 -18,-3z"/>
  </g>
 </g>
</svg>
