<?xml version="1.0" encoding="UTF-8"?>
<!DOCTYPE svg PUBLIC "-//W3C//DTD SVG 1.1//EN" "http://www.w3.org/Graphics/SVG/1.1/DTD/svg11.dtd">
<!-- Creator: CorelDRAW X7 -->
<svg xmlns="http://www.w3.org/2000/svg" xml:space="preserve" width="0.666661in" height="0.666661in" version="1.1" style="shape-rendering:geometricPrecision; text-rendering:geometricPrecision; image-rendering:optimizeQuality; fill-rule:evenodd; clip-rule:evenodd"
viewBox="0 0 667 667"
 xmlns:xlink="http://www.w3.org/1999/xlink">
 <defs>
  <style type="text/css">
   <![CDATA[
    .fil1 {fill:black}
    .fil0 {fill:black}
   ]]>
  </style>
 </defs>
 <g id="Layer_x0020_1">
  <metadata id="CorelCorpID_0Corel-Layer"/>
  <path class="fil0" d="M333 17c175,0 317,142 317,316 0,175 -142,316 -317,316 -174,0 -316,-141 -316,-316 0,-174 142,-316 316,-316zm0 58c143,0 259,116 259,258 0,143 -116,259 -259,259 -142,0 -258,-116 -258,-259 0,-142 116,-258 258,-258z"/>
  <rect class="fil1" x="177" y="307" width="316.449" height="52.9291" rx="28" ry="26"/>
 </g>
</svg>
